<svg id="Layer_1" data-name="Layer 1" xmlns="http://www.w3.org/2000/svg" viewBox="0 0 66.15 66.9"><defs><style>.cls-1{fill:#b35643;}</style></defs><title>fafa-bar-off</title><path class="cls-1" d="M39.42,42.07c-.6-.36-1.12-.61-1,1.22,0,.67.16,1.61-.43,1.67s-1.08.51-1.34-.83c-.14-.69-.4-1.2-.6-.48-.4,1.43-1,1.29-1.64,1.27-2.75-.12-5.53.67-8.26-.73-.38-.19-.7.23-1.05.47-.65.43-1.31.58-1.55-1.31-.18.62-.12,1.48-.57,1.53a7.69,7.69,0,0,1-3.75-.14c-.48-.18-.73-1-.67-2s.3-1.44.88-1.53c1.55-.26,3.11-.92,4.59.65.1.1.18.29.28,0,.57-1.47,1.41-1.08,2.12-1,2,.37,4-.44,6,.29.63.23,1.44-.49,2.17-.33,2.67.59,5.34-.21,8,0,1.45.1,2.9.17,4.35.23.44,0,.69.49.82,1.24a2.86,2.86,0,0,1-.27,2c-.19.3-.46.59-.69.59-2.41,0-4.81,0-7.21-.11-.36,0-.75-.21-.87-1.09A1.57,1.57,0,0,1,39.42,42.07Z"/><path class="cls-1" d="M26.94,34.31c.6.36,1.13.62,1-1.22,0-.66-.15-1.61.43-1.66s1.08-.51,1.34.82c.14.7.4,1.2.6.48.41-1.42,1-1.29,1.64-1.26,2.76.11,5.53-.68,8.26.72.38.2.7-.23,1-.46.65-.44,1.31-.58,1.56,1.3.17-.61.11-1.47.56-1.53a7.72,7.72,0,0,1,3.76.14c.47.18.73,1,.66,2s-.3,1.43-.87,1.52c-1.56.26-3.12.93-4.6-.64-.1-.11-.18-.3-.27,0-.58,1.46-1.41,1.07-2.12.94-2-.36-4,.45-6-.28-.64-.24-1.45.48-2.17.32-2.68-.59-5.35.22-8,0q-2.18-.15-4.35-.24c-.44,0-.69-.48-.82-1.23a2.89,2.89,0,0,1,.27-2c.19-.3.46-.58.7-.58q3.6,0,7.2.1c.36,0,.76.22.87,1.1A1.55,1.55,0,0,1,26.94,34.31Z"/><path class="cls-1" d="M39.42,23.11c-.6-.36-1.12-.62-1,1.22,0,.66.16,1.61-.43,1.66s-1.08.51-1.34-.83c-.14-.69-.4-1.19-.6-.48-.4,1.43-1,1.3-1.64,1.27-2.75-.11-5.53.67-8.26-.72-.38-.2-.7.22-1.05.46-.65.44-1.31.58-1.55-1.31-.18.62-.12,1.48-.57,1.54a7.69,7.69,0,0,1-3.75-.14c-.48-.18-.73-1-.67-2s.3-1.43.88-1.53C21,22,22.51,21.3,24,22.87c.1.1.18.3.28.05.57-1.46,1.41-1.08,2.12-1,2,.37,4-.44,6,.29.63.23,1.44-.49,2.17-.33,2.67.59,5.34-.21,8,0q2.18.15,4.35.24c.44,0,.69.48.82,1.23a2.85,2.85,0,0,1-.27,2c-.19.31-.46.59-.69.59-2.41,0-4.81,0-7.21-.1-.36,0-.75-.22-.87-1.1A1.55,1.55,0,0,1,39.42,23.11Z"/><polygon class="cls-1" points="58.4 48.34 58.41 48.33 58.4 48.34 58.4 48.34"/><polygon class="cls-1" points="58.96 14.19 58.95 14.19 58.96 14.19 58.96 14.19"/><path class="cls-1" d="M59.13,16.66h0Z"/><path class="cls-1" d="M8.35,48.72h.06l.08,0-.05-.07A.35.35,0,0,1,8.35,48.72Z"/><polygon class="cls-1" points="64.03 24.47 64.01 24.45 64.03 24.47 64.03 24.47"/><path class="cls-1" d="M62.41,44.56v0h0a0,0,0,0,1,0,0l0,0h0Z"/><polygon class="cls-1" points="61.52 21.86 61.53 21.85 61.52 21.86 61.52 21.86"/><polygon class="cls-1" points="55.76 52.62 55.77 52.65 55.76 52.62 55.76 52.62"/><polygon class="cls-1" points="59.39 45.97 59.39 45.96 59.39 45.97 59.39 45.97"/><path class="cls-1" d="M60.45,18.29h0Z"/><polygon class="cls-1" points="57.58 16.21 57.59 16.21 57.59 16.21 57.58 16.21"/><path class="cls-1" d="M23,63.85c.06,0,.1,0,.13,0s0,0,0,0l0,0a.42.42,0,0,1-.14.13h0a32,32,0,0,0,8.52,1.61.34.34,0,0,1,.09-.08c.07,0,.12,0,.14,0a0,0,0,0,1,0,.05l0,0h0c.48,0,1,0,1.43,0a32.08,32.08,0,0,0,14.59-3.5.13.13,0,0,1,0-.06l0,0c.06,0,.11-.05.12,0a0,0,0,0,1,0,0,32.08,32.08,0,0,0,3.77-2.29.62.62,0,0,1,.2-.2l.05,0,0,0a33.09,33.09,0,0,0,4.71-4.14c-.05,0-.08,0-.06-.08l0,0c.08-.06.15-.08.19-.06l.14-.15h0l-.07,0s.05-.13.1-.18l.05,0a.12.12,0,0,1,.1,0l.53-.62h0l0,0h0c.07-.08.14-.15.2-.23h0c.08-.08.15-.17.22-.25h0c.47-.57.91-1.16,1.34-1.77h0q.45-.63.87-1.29h0c.14-.2.27-.41.4-.62h0s0,0,0,0h0c.11-.19.22-.38.32-.57h0s0,0,0,0h0c.11-.19.22-.37.32-.56h0l.39-.77h-.05s0,0,0-.07a.18.18,0,0,1-.1,0h0s0,0,0,0h0l0,0h.16c.43-.85.82-1.71,1.18-2.59l-.15,0h-.07s0,0,0-.06h0l.06,0h.12l0,0h0l0-.08h0l0,0v0l.07-.07a2.77,2.77,0,0,0,.1-.26l0,0h0s0,0,0,0h0l-.06.05-.07,0h0l0,0-.16.11h0l0,0h0l0,0h-.08a.63.63,0,0,1,.21-.22c.09,0,.09-.06.09-.08l0,0,.09-.06h0a.43.43,0,0,1,.14-.14h0s.06,0,.07,0a0,0,0,0,1,0,0v0l.06,0c.16-.44.31-.89.46-1.34l-.07,0a.1.1,0,0,1,0-.11l0,0a.13.13,0,0,1,.07,0c.11-.35.21-.71.3-1.06h-.08c0-.06.06-.12.13-.17A31.25,31.25,0,0,0,65,38.65l-.1.1,0,0c-.06,0-.08,0-.08-.05h0s0,0,0-.06a.65.65,0,0,1,.22-.18,31.55,31.55,0,0,0,.38-4.38h0s0,0,0,0h-.1v0l.1,0h0l.07,0c0-.16,0-.32,0-.48,0-1-.05-2-.13-2.9l0,0h0s-.06.08-.09.11l0,0-.07,0s0-.08,0-.11,0,0,0,0l0-.06.11-.09h0c-.07-.74-.17-1.48-.29-2.2l-.07.05-.06,0a.07.07,0,0,1,0-.1.3.3,0,0,1,.1-.09h0c0-.19-.07-.39-.1-.58h0l-.08,0h0s-.07,0-.08-.05l0,0a.9.9,0,0,1,.14-.14c0-.19-.07-.38-.11-.57l0,0h0l0,.06a.29.29,0,0,1-.14.08h-.09s0-.05,0-.08v0l0,0c.1-.1.16-.11.2-.11h0c-.16-.76-.36-1.52-.57-2.26l0,0s0,0,0,0-.12,0-.12.08h0l0,0s0,0,0,0a.41.41,0,0,1,.09-.1c0-.05.1-.06.12,0a31.42,31.42,0,0,0-1.55-4.2h0s0,0,0,0h0l0,0h-.12v0h.12l0,0-.05,0h0c-.05,0-.07,0-.08,0l0,0,0-.05.09-.08a2.55,2.55,0,0,0-.13-.29h-.05l-.1,0h0s0,0,.11-.06h.05c-.18-.39-.38-.76-.57-1.14h-.08s0,0,0,0h0l-.15-.3h0l-.06-.11h-.07s0,0,0,0h0a31.87,31.87,0,0,0-2.36-3.71h0a0,0,0,0,1,0,0l0-.07H59s0,0,0,0h0q-.37-.49-.78-1h0l0,0L58,12.92h0c-.06-.09-.14-.16-.21-.25l0,0h0l0,0c-.19-.22-.38-.45-.57-.66h0s0,0,0,0h0l-.3-.33,0,0h-.06l.06,0-.06-.06,0,0c-.06,0-.11.06-.14,0a.08.08,0,0,1,0-.08l0,0,.05,0c-.46-.5-.94-1-1.44-1.45h0l-.14-.13h-.1s0,0,0,0h.06l0,0a32.18,32.18,0,0,0-46.36,2.6h0v0a.1.1,0,0,1,0,.09l0,0c-.09.08-.13,0-.15,0a32.16,32.16,0,0,0-4,35.84.34.34,0,0,1,.15-.14h.06s0,0,0,.08v0l0,.08,0,0-.05,0c.33.62.67,1.22,1,1.81l.06,0,.06,0h.06l0,.06a.2.2,0,0,1-.1.07A32.41,32.41,0,0,0,22.87,64,.39.39,0,0,1,23,63.85ZM63,45.52s0,0,0,0h0s0,0,0,0h0S63,45.53,63,45.52Zm-.13-.34H63s0,0,0,0l0,0H62.9S62.89,45.19,62.9,45.18ZM23,61.8s-.05,0-.06,0,0,0,0,0h0v-.07c.06,0,.15-.1.2-.06v0a.41.41,0,0,1-.1.09,0,0,0,0,0,0,0Zm.23.28h0l-.06,0h0l-.06,0s0-.06.06-.1l0,0v0a.3.3,0,0,1,.08-.08h.07A.16.16,0,0,1,23.23,62.08Zm.25-.46a.31.31,0,0,1-.14.19l-.06,0c-.05,0-.05,0,0-.06v0l0-.05c.07-.07.11-.08.14-.08l.09,0Zm.15,1.49h0s-.07,0-.09,0l0,0h0l0,0h0v0l.05-.06h0l.06-.07a.12.12,0,0,1,.15,0,.06.06,0,0,1,0,.06v0a.19.19,0,0,1-.07.06A.11.11,0,0,1,23.63,63.11Zm.42-.11a.47.47,0,0,1-.14.12l-.08.06h-.1l0,0a.6.6,0,0,1,.21-.21c.06,0,.1,0,.13,0s0,0,0,0Zm.56-1.63a.55.55,0,0,1-.22.12l0,0a1.17,1.17,0,0,1,.05-.11v0l0,0c.12-.09.17-.06.2,0h0l0,0A.23.23,0,0,1,24.61,61.37Zm.4,2.1h0s.07,0,.09,0v0l0,0,0,0-.06.07h0c-.07,0-.12.06-.18,0v-.05l0,0a.38.38,0,0,1,.09-.1h0l-.05,0-.05,0c-.07,0,0-.15.09-.25a.26.26,0,0,1,.23-.09h0s0,.08,0,.11l0,0,0,0a.46.46,0,0,1-.07.07Zm.84-1.34,0-.05c.06,0,.11,0,.12,0s0,.06,0,.11a.34.34,0,0,1-.12.12l-.05,0C25.74,62.28,25.81,62.18,25.85,62.13Zm.2.81-.12.09-.07,0v0a0,0,0,0,0,0,0l0-.07c.12-.08.17-.07.19,0v0Zm.19.91,0,0s-.07,0-.08,0,.06-.16.11-.22l.07,0h0s.07,0,.1,0h0a.15.15,0,0,1,0,.12A.53.53,0,0,1,26.24,63.85Zm-.15-.39c0-.08.07-.16.14-.21h.06s0,.08,0,.13a.33.33,0,0,1-.14.1Zm.59.13,0,.06,0,0,0,0v0l-.08.08a.06.06,0,0,1-.07,0s0,0,0,0l0-.06a.33.33,0,0,1,.16-.1h0l.05,0S26.67,63.59,26.68,63.59Zm.3-.87s0,0,0,0l0,.08c-.07,0-.17.06-.21,0l0-.06s0,0,0,0a.37.37,0,0,1,.11-.1l0,0a.2.2,0,0,1,.13.06h0l-.07.08Zm.62,1.75a1,1,0,0,1-.18.18l-.05,0a.09.09,0,0,1-.08,0,0,0,0,0,1,0,0s0,0,0,0l0,.06h0a.05.05,0,0,1,0,0,.19.19,0,0,1-.08,0h0c0-.08.06-.16.13-.22h0v-.06l0,0a.74.74,0,0,1,.24-.18h0l.05.06Zm.28-.79a.49.49,0,0,1-.18,0l-.1,0-.05,0h0v-.05a.71.71,0,0,1,.29-.09c.06,0,.1,0,.11.06v0ZM28,62.19a.29.29,0,0,1-.22.11h-.06s0,0,0-.07l0,0,0,0a.37.37,0,0,1,.16,0l.09,0Zm.4,2.59,0,0-.09,0v0l-.06,0a0,0,0,0,1-.06,0v0l0-.06,0,0a.55.55,0,0,1,.14-.15h0l.06,0S28.42,64.73,28.39,64.78Zm.61.47s0,0,0,0h0a0,0,0,0,0,0,0h0l0,0s0-.1.08-.15h0l.07,0h.05l-.05,0Zm.13-2.75h0s.07,0,.09,0v0l0,0,0,0-.06.06,0,0a.15.15,0,0,1-.18,0v-.05l0,0a.47.47,0,0,1,.1-.11h0l0,0-.06,0c-.07,0,0-.15.09-.25a.3.3,0,0,1,.23-.1h0s0,.08,0,.1,0,0,0,0l0,.05-.07.06Zm0,1.46-.07,0s0,0-.05,0v0l0-.07,0,0a.41.41,0,0,1,.14-.15h0s0,0,.06,0,0,.1,0,.15l0,0a.25.25,0,0,1-.08,0Zm.37.67a.57.57,0,0,1-.1.11l-.05.05-.07,0c-.06,0-.11,0-.07-.1l0,0a.92.92,0,0,1,.14-.11l0,0,.06,0,0,0Zm.36-.3,0,0h0a0,0,0,0,0,0,0s0,0,0,0l-.05,0s0-.11.08-.15h0l.07,0a0,0,0,0,1,.05,0l-.05,0Zm.8-.94,0,0c-.08.06-.15.07-.18,0s0-.12.09-.2l.05,0c.06,0,.09,0,.1,0S30.71,63.34,30.69,63.39Zm.36,1.34,0,0-.09,0v0s0,0,0-.08l0,0a.8.8,0,0,1,.18-.12h0S31.11,64.68,31.05,64.73Zm.36-1v0l-.05.06h0l0,0s0,0-.08,0h0c0-.08.06-.16.14-.22l.06,0,0,0S31.42,63.74,31.41,63.76ZM31.72,65h-.06a.07.07,0,0,1,0-.11.38.38,0,0,1,.11-.11l0,0a.08.08,0,0,1,.07,0v.07A.8.8,0,0,1,31.72,65Zm.64.27a.67.67,0,0,1-.27.22H32v0l0,0a.43.43,0,0,1-.14.12h0a.06.06,0,0,1,0-.06v0l0-.06a.46.46,0,0,1,.16-.11.08.08,0,0,1,.08,0,.51.51,0,0,1,.21-.16h0l0,0ZM32.09,63c0-.07.06-.16.13-.21l.07,0h0a.11.11,0,0,1,0,.08v0l0,.06h0l0,0s0,0-.08,0ZM33,64.13h0l-.09,0-.07,0h0q-.08,0-.09,0l.06,0h0l-.06,0h0v0l.06,0s0,0,0,0l.08,0c.08,0,.13,0,.14.07S33,64.12,33,64.13ZM34,65h0l-.05,0-.09,0h0a.07.07,0,0,1,.06.07l0,0,0,0,0,0-.09,0h0c-.07,0-.13,0-.16-.08l0,0,0,0a.32.32,0,0,1,.13,0H33.6s.06-.14.2-.18a.27.27,0,0,1,.25,0h0S34,65,34,65Zm-.39-2.12h0l0-.05.06,0s0,0,.06,0a.06.06,0,0,1,0,.07.27.27,0,0,1-.08.07h0S33.59,62.9,33.59,62.89Zm.59.15v0l.09-.08h0l0,0c.15,0,.18,0,.2,0h0v0a.17.17,0,0,1-.12,0A.49.49,0,0,1,34.18,63Zm.51.57a.3.3,0,0,1-.08.08l0,0-.07,0a.06.06,0,0,1,0-.06.31.31,0,0,1,.1-.1l.05,0h0A0,0,0,0,1,34.69,63.61Zm.32,2a.32.32,0,0,1-.17,0l0,0c0-.07.13-.11.22-.12l.06,0S35.07,65.54,35,65.56Zm-.21-.46v0s0,0,0,0l.08,0c.13,0,.17,0,.18,0v0l-.06,0-.14,0Zm.35-.65,0,0c-.06-.08,0-.13.1-.16l.07,0c.06,0,.1,0,.11,0s0,.06-.07.09A.38.38,0,0,1,35.15,64.45Zm.35.91a.18.18,0,0,1-.08.06s-.05,0-.06,0l0-.08c.06,0,.1,0,.12,0h0ZM36,65.3H36l0,0-.09,0c-.08,0-.17,0-.17-.1l.06,0,.06,0a.62.62,0,0,1,.14,0H36a.19.19,0,0,1,.09.11h0Zm0-.41A.07.07,0,0,1,36,65a.19.19,0,0,1-.09.09h0c-.06,0-.09,0-.06-.08l0,0,.07,0h0l.08,0-.06,0Zm.27-.08v0l0,.06L36.2,65l-.07,0v0h0s.07-.08.1-.11h0a.1.1,0,0,0,0,0l0-.07c.06,0,.08,0,.08,0S36.31,64.8,36.31,64.81Zm.48.34,0,0s0,0,0,0l0,.06s-.07,0-.08,0,0-.06,0-.1a.3.3,0,0,1,.08-.08h0s0,0,0,0,0,0,0,0a0,0,0,0,0,0,0Zm.6-2.38c-.06,0,0-.07,0-.09s0,0,0,0l0,0h.21v0s0,0,0,0l-.06,0h.06l-.08.05h-.05l-.09,0Zm.41,2.1-.09,0h-.18l0,0a.1.1,0,0,1,.06-.09l.16,0h.05s0,0,0,0A.13.13,0,0,1,37.8,64.87Zm.72.12-.08.09,0,0s-.06,0-.07,0h0l0-.06a.49.49,0,0,1,.12-.08s0,0,.06,0h0Zm.56-2.7,0,0-.07,0,0,0-.07,0s0-.07,0-.1v0l0,0,.07,0,0,0a.08.08,0,0,1,.07,0S39.1,62.25,39.08,62.29Zm.54,2.11-.07,0a.05.05,0,0,1-.07,0l.05-.08s.09,0,.11,0h0Zm.4-1.35,0,0a.18.18,0,0,1,0-.07l0,0,0,0a1.31,1.31,0,0,1,.22,0h.08l0,0s0,.08-.13.12A.6.6,0,0,1,40,63.05Zm.32.37,0-.06s.12-.08.15,0a0,0,0,0,1,0,0l0,0-.05,0s.05,0,.06,0h0l0,0-.07.05a.05.05,0,0,1-.07,0l0-.05,0,0a0,0,0,0,1,0-.06Zm.16-.66s0-.06,0-.07l0,0,.07,0h.1c.11,0,.19,0,.22,0l-.05.05a.3.3,0,0,0-.15.07l0,0c-.05,0-.07,0-.08,0h0s-.11,0-.13,0Zm.09,1.71,0,0,0,.05c-.09.06-.15,0-.18,0v0l0,0,0,0,0,0a.13.13,0,0,1,.12-.05s0,0,0,0l.05,0h0a.11.11,0,0,1,0,.08h0S40.61,64.45,40.59,64.47Zm.28-.16a.33.33,0,0,1-.19.14h0c-.08,0,.06-.15.11-.19l.07,0,0,0Zm.19-.92c-.07,0-.12.06-.14,0l0,0,.08-.07a.06.06,0,0,1,.06,0h0Zm0-.13,0,0,0,0s-.06,0-.07,0a.33.33,0,0,1-.15,0h0c0-.07,0-.16.15-.26l.06,0a.09.09,0,0,1,.07,0,0,0,0,0,0,0,0h0a.47.47,0,0,1,.15,0c.05,0,.06,0,.06,0h.11s0,0,0,.05l0,.06h-.07A.15.15,0,0,1,41.08,63.26Zm.39.35a.36.36,0,0,1-.19.16h0a.11.11,0,0,1,0,0v0l0-.07c.09-.07.16-.08.19,0h0Zm.92-2a.45.45,0,0,1-.1,0l0,0h-.07a0,0,0,0,1,0-.07l0,0a.07.07,0,0,0,.05,0,.22.22,0,0,1,.07-.07h.09a.1.1,0,0,1,.07,0h0l0,0a.09.09,0,0,0,0,0ZM42.64,64a.32.32,0,0,1-.08.09l-.05,0a.09.09,0,0,1-.07,0h0l0-.06a.38.38,0,0,1,.13-.08,0,0,0,0,1,.06,0h0Zm0-2.9c-.08,0-.11.08-.15.1a.38.38,0,0,1-.23.11h0c0-.08.06-.17.14-.23s.26-.13.3-.08a.07.07,0,0,1,0,.05Zm.31,2.9,0,0c-.05,0-.1,0-.12,0a.06.06,0,0,1,0-.07l0,0q.09-.06.12,0A.08.08,0,0,1,42.92,64Zm.38-3.08,0,.07s-.08.05-.1,0v0s0,0,0,0l0-.06.06-.06.07,0h0S43.31,60.93,43.3,60.94Zm.23,2.16a.57.57,0,0,1-.08.09l-.05,0a.06.06,0,0,1-.07,0h0l0-.06a.38.38,0,0,1,.13-.08,0,0,0,0,1,.06,0h0Zm.23-.64,0,0a.34.34,0,0,1-.15.09l0,0,0,0h0l0,0h0a.17.17,0,0,1,0-.14v0a.55.55,0,0,1,.19-.16c.05,0,.1,0,.12,0S43.8,62.4,43.76,62.46Zm.11-1.73-.07.07c-.08,0-.11,0,0-.13a.42.42,0,0,1,.11-.14l.06,0H44a.2.2,0,0,1-.07.17l-.1.07Zm.11.11h-.07l0,0,0,0L44,60.7a.06.06,0,0,1,.06,0h0l0,.07Zm.35.72h0a.6.6,0,0,1-.22.16h0c-.06,0,0-.09,0-.13l0,0,0,0,0,0h0l0,0,0,0a.08.08,0,0,1,.08,0l0,0Zm-.23-.24a.29.29,0,0,1,.08-.08h.08s0,0,0,.07a.3.3,0,0,1-.1.09H44.1A.06.06,0,0,1,44.1,61.32Zm.3-.7-.07,0h0l0-.07,0,0a.2.2,0,0,1,.1-.07h0l0,0v0a.22.22,0,0,1-.1.09Zm.17.49,0,0-.07,0s0-.05,0-.07l.06-.07h.07l0,0Zm.61,1.32c-.07,0-.12.06-.14,0l0,0,0,0-.05,0s0,0,0,0a.07.07,0,0,1,0-.06l-.05,0,0,0c0-.06,0-.15.15-.25l.07,0,.06,0a.17.17,0,0,1,0,.14h0l0,.06h0l0,0,0,0s.05,0,.05,0h0Zm.08-.67a.26.26,0,0,1-.15,0l0,0s0,0,.07,0a.19.19,0,0,1,.1,0h.07S45.31,61.74,45.26,61.76Zm.06-.41c-.11.07-.15,0-.16,0s0-.09,0-.15l.1-.06h0a.13.13,0,0,1,.06,0,.06.06,0,0,1,0,.06Zm.43-1.23s-.07,0-.09,0l0,0h0v0h0s-.06,0-.06,0l.07,0a.11.11,0,0,1,.05-.07l.13,0s0,0,0,0,0,0,0,0h0l.07,0c0,.08-.08.14-.19.17Zm0,1.34c0-.06,0-.15.15-.25l.07,0,.06,0a.17.17,0,0,1,0,.14h0l0,.06s-.06,0-.07,0a.48.48,0,0,1-.15,0Zm.29,0c-.07.05-.12.05-.14,0l0-.05a.24.24,0,0,1,.09-.06s.05,0,.05,0h0Zm.34-.82,0,0H46.3a0,0,0,0,0,0,0s0,0,0-.07l0,0a.08.08,0,0,0,0,0l.07-.07h.1s0,0,.06,0,0,0,0,0l0,0a.06.06,0,0,0,0,0l-.05.06A.31.31,0,0,1,46.41,60.69Zm.16-1.31.06,0h.07a.14.14,0,0,1,0,.09v.05l0,0a.57.57,0,0,1-.24.14h0v-.1A.41.41,0,0,1,46.57,59.38Zm0-.05a.19.19,0,0,1,.08-.12l.07,0h0s0,0,0,.05l0,.07,0,0Zm-.06.8c.11-.08.26-.14.3-.08s0,0,0,0l-.05.06-.14.11a.39.39,0,0,1-.24.11h0C46.31,60.28,46.39,60.19,46.47,60.13Zm.39.09,0,.08s-.11.05-.13,0a.05.05,0,0,1,0,0l.05-.05Q46.83,60.18,46.86,60.22Zm-.3,1.14h0S46.47,61.4,46.56,61.36Zm.44.3-.07.06a.36.36,0,0,1-.13.1h-.08s0,0,0-.05v0a.64.64,0,0,1,.22-.21l0,0a.08.08,0,0,1,.06,0l0,.06v0Zm.19-1.88h0a0,0,0,0,1,0-.07l.05,0s0,0,0,0l.07-.07.07,0h0s.05,0,.07,0,0,0,0,0l0,0s0,0,0,0l0,.05a.14.14,0,0,1-.1,0l0,0Zm.38.52a.37.37,0,0,1-.17.13h0c-.07.06-.1,0-.09,0s0,0,0-.08a.6.6,0,0,1,.16-.16h0s.06,0,.07,0a.06.06,0,0,1,0,0v.07Zm-.09-1a.49.49,0,0,1-.24.11h0c0-.08.06-.17.14-.23s.26-.14.3-.08,0,0,0,0l-.05.06A.67.67,0,0,0,47.48,59.34Zm.2.29h0s0,0,0,0l0,0c.06,0,.11-.06.12,0s0,0,0,0l0,0,0,0Zm.22.26s-.07,0-.08,0v0h0c0-.05,0-.11.16-.2h0l.07-.07h0l.06,0c.06,0,.06,0,.09-.06l.08-.09.08,0h0a0,0,0,0,1,0,0s0,0,0,0l0,.05-.07.08a.75.75,0,0,1-.18.18h-.08a.43.43,0,0,1-.09.1Zm.48.47a.24.24,0,0,1-.09.08h-.07a.07.07,0,0,1,0-.08l.08-.08h.08S48.41,60.32,48.38,60.36Zm-.28-.49-.06,0,0,0V59.8a.24.24,0,0,1,.09-.06s0,0,0,0h0l0,.07Zm.36.72,0,0a.52.52,0,0,1-.22.16h0c-.05,0,0-.09,0-.13l0,0,0,0h0l0,0,0,0s.07,0,.08,0l0,0Zm.06-.93-.07,0v0l0-.06s0,0,0,0a.19.19,0,0,1,.11-.07h0v.05a.22.22,0,0,1-.1.09Zm.36-.82-.07.08c-.07,0-.11,0,0-.14a.85.85,0,0,1,.11-.14l.07,0h.07a.22.22,0,0,1-.07.18.27.27,0,0,1-.1.06Zm-.13-.78,0,0c-.05,0-.1.06-.12,0s0,0,0-.06l0,0c.06,0,.11-.05.12,0A.06.06,0,0,1,48.75,58.06Zm-.1,2.12-.07,0s0,0,0-.06a.22.22,0,0,1,.07-.07l.06,0,0,0,0,.07Zm.24,0-.1.07h-.07s0-.05,0-.07a.57.57,0,0,1,.11-.1l.06,0,0,0ZM49,59h0l-.07,0,0,0,0-.05h0v0a.24.24,0,0,1,.09-.06s0,0,0,0h0l0,0h0S49,59,49,59Zm.35.69h0a.47.47,0,0,1-.22.17h0c-.06,0,0-.09,0-.13l0,0,0,0h0v0l0,0,0,0a.06.06,0,0,1,.08,0l0,0Zm-.23-.23.08-.08h.08s0,0,0,.07a.29.29,0,0,1-.1.08h-.06A.07.07,0,0,1,49.11,59.44Zm.3-.7-.07,0v0l0-.06,0,0a.15.15,0,0,1,.1-.07h0v0a.3.3,0,0,1-.1.09Zm.05-.53s0,0,0-.07a.24.24,0,0,1,.08-.06h.05a0,0,0,0,1,0,.05h0l0,0-.06,0S49.46,58.22,49.46,58.21Zm.12,1,0,0-.07,0s0,0,0-.06l.07-.07.06,0,0,0Zm.28.33s-.1.06-.13,0l0,0,0-.06s.1-.07.14,0h0Zm.54.48s0,0,0,0h0a1,1,0,0,1-.26,0h-.12l0,0L50,60l0,0h.11s0,0,.08,0a.65.65,0,0,1,.18,0l0,0Zm0-.33,0,0-.07.06c-.1,0-.16,0-.17-.08s0-.13.14-.17a.25.25,0,0,1,.17,0h.07C50.53,59.62,50.45,59.67,50.41,59.7Zm-.15-.3a.15.15,0,0,1,.08-.08l0,0h.06s0,0,0,0,0,0,0,0l-.06.09s0,0,0,0l-.07,0s0,0,0,0S50.23,59.44,50.26,59.4Zm.36-.43v0h0l.06,0s0,0,0,.06,0,0,0,0l0,0-.14,0h-.07a.13.13,0,0,1,0-.12.05.05,0,0,1,0,0l0,0,0-.07c.15-.11.27-.14.32-.07v0l-.05.07,0,0Zm-.27-1.68s0,0,0-.07a.27.27,0,0,1,.08-.07h.05a0,0,0,0,1,0,0v0l0,0a.07.07,0,0,1-.06,0S50.35,57.3,50.35,57.29Zm.58,2s-.1.06-.12,0,0,0,0,0l.06-.05a.11.11,0,0,1,.12,0Zm0-1-.06.05-.08,0s0,0,0-.08l.07-.07,0,0a.25.25,0,0,1,.14,0v0C51,58.24,51,58.27,50.94,58.29Zm0-1.35h-.13c0-.05,0-.08,0-.11a.81.81,0,0,1,.2-.06H51v0h0l0,0A.38.38,0,0,1,50.9,56.94Zm.46,0H51.3l0,0,0,0a.18.18,0,0,1,.1-.07h.07S51.48,56.8,51.36,56.89Zm.3,2.92,0,0c-.1.08-.2,0-.16,0a.28.28,0,0,1,.08-.09h.08l0,0S51.67,59.78,51.66,59.81Zm0-2,.07,0a.1.1,0,0,1,.08,0l.05,0s0,.11-.08.16a.37.37,0,0,1-.12.07s-.08,0-.1,0l.06,0S51.6,57.9,51.65,57.83Zm.17.58s-.1.05-.13,0a.21.21,0,0,1,0-.06l.06-.05a.13.13,0,0,1,.12,0ZM52,58.3l-.11,0s0,0-.05,0h0s.08-.06.11-.06h0l.08,0v0Zm.16-.81-.09.07H52v0l0,0h0l0-.06h0l0-.07c.07,0,.1,0,.11,0s0,0,0,0v.1ZM52,56.18l0,0c0-.05.08-.06.13-.07l0,0h0A.17.17,0,0,1,52,56.18Zm.16-.2,0,0,0-.05a.24.24,0,0,1,.11-.07h.07s0,.06-.11.16Zm.26-.44.07,0v0a.2.2,0,0,1-.13.09l-.07,0S52.32,55.58,52.44,55.54Zm0-.25h0l0,0h0a0,0,0,0,1,0,0h0S52.4,55.31,52.39,55.29Zm.26,2.17a1.27,1.27,0,0,0-.11.13l-.06.06-.06,0a.09.09,0,0,1-.1,0s0-.09.13-.24l.07,0h.15Zm0-1.59h-.05l0,0a.05.05,0,0,1,0,0v0a.75.75,0,0,1,.22-.22h.05s0,0,.06,0,0,0,0,.06v0l0,.06-.07.06A.53.53,0,0,1,52.63,55.87Zm0-.85s0,0,0,0h0l0,0s0,0,0,0h0Zm.19.15h0s0,0,0,0h.05v0A0,0,0,0,1,52.84,55.17Zm0,0s0,0,0,0h-.05v0ZM53,56.57l-.09.07h-.06s0,0,0,0l0,0h0l0-.07v0l0-.07c.07,0,.1,0,.11,0v.15Zm.19.89a.37.37,0,0,1-.09.09H53s0-.08.06-.11.09,0,.1,0Zm0-2-.06,0c-.06,0-.1,0-.11,0s0,0,.06-.08l.13,0,.06,0C53.29,55.35,53.26,55.39,53.2,55.43Zm-.09-.68h0l0,0,0,0h0l0,0,0,0Zm.24-.08h0s0,0,0,0h.07Zm.18-.07h0a0,0,0,0,0,0,0h0l0,0-.05,0a0,0,0,0,1-.06,0l0,0,0,0v0a.49.49,0,0,1,.24-.23h0l0,0c0,.05,0,.14-.1.24l.06,0a.05.05,0,0,1,0,0h0a.09.09,0,0,1-.06,0Zm.39,1.25h0l0,.07a1.15,1.15,0,0,0-.2.16l-.08,0s0-.09,0-.12l0,0s0,0,0,0l.07-.09h0v-.05h0v0a.24.24,0,0,1,.12-.11s0,0,0,0h0v0a0,0,0,0,1,0,0h0l0,.06,0,0Zm-.17-.44h0s0,0,0,0h-.05l0,0,0,0h0s.07,0,.07,0h0ZM54,54,54,54h0l0,0s0-.06.08-.12l.06,0h0S54.09,54,54,54Zm-.08-.14H54a0,0,0,0,1,0,0h0A.06.06,0,0,1,53.94,53.87Zm.25.73h0S54.2,54.59,54.19,54.6Zm0-1,0,0h0s0,0,0,0h-.06Zm.16.67-.06,0h0s0,0,0,0h0s0,0,0,0l.06,0h0s0,0,0,0S54.32,54.24,54.31,54.25Zm0-.55-.05,0s0,0-.06,0l0,0,0,0v0a.49.49,0,0,1,.24-.23h0l0,0C54.55,53.47,54.48,53.59,54.35,53.7Zm.2.55a.24.24,0,0,1,.1-.1l.06,0,0,0,0,0a1.1,1.1,0,0,1-.1.08h0l-.05,0S54.53,54.27,54.55,54.25Zm.2-1h0Zm0-.3h.08s0,0,0,0l0,0h0Zm-.14,1.48,0,0h0s0,0,0,0l.06,0h0Zm0,1.36h0v0h0s0,0,0,0h0Zm0,.55,0,0h-.06s0,0,0,0h.11S54.67,56.37,54.66,56.37Zm0-1.59a0,0,0,0,1,0-.05h0l0,0s0,0,.06,0a.06.06,0,0,1,.06,0s0,0,0,.07a.27.27,0,0,1-.08.07Zm.14.07h0a0,0,0,0,1,0,0h0s0,0,0,0h.09S54.84,54.84,54.83,54.85Zm0-1.74,0,0s0-.06.08-.12L55,53h0l0,0s0,.06-.08.12l-.06,0Zm1.23-1.63s0,0,0,0l0,0h0s0,0,0,0h0l0,0h0Zm0,.22h0l-.06,0h-.1s0,0,0,0h.1Zm-.43.5s0,0,0,0h0s0,0,0,0h0Zm0-.05a.12.12,0,0,1,.08,0h0a0,0,0,0,1,0,0h0a.13.13,0,0,1-.08,0Zm.07.46h0s.08,0,.08,0,0,0,0,0l.07,0s-.06.06-.12.08h-.09a.05.05,0,0,1,0,0Zm.13-.29h0a.21.21,0,0,1,.1,0h0l0,0h-.08Zm.1-.3h-.08l.06,0L56,52h0Zm0-.2s-.07.13-.12.18l-.07,0s0,0,0,0,0,0,0,0h-.12l0,0h.07l0,0a.32.32,0,0,1,.18-.1Zm-.35.32h0v0h-.07s0,0,0,0Zm0,.11h0l0,0h-.09l0,0Zm.07,2,0,0,0,.06-.07.05-.07,0,0,0,0,0a.27.27,0,0,1,.09-.06Zm0-.47v0h0s0,0,0,0v0h0Zm0,1h0a0,0,0,0,1,0,0h0S55.65,54.74,55.64,54.75Zm-.08-2.17h-.07a.05.05,0,0,1,0,0Zm-.08,0h-.11a.15.15,0,0,1,.08,0Zm-.11.44s.06-.05.08-.05,0,0,.06,0l0,.08,0,0h-.06l0,0Zm0,.3h0l0,0h0l0,0h0Zm-.07.75a.07.07,0,0,1,0,.06h0a.07.07,0,0,1-.06,0h0l0,0,0,0h0Zm0,.91h0ZM55,56.23h0l0,0h0v0h0Zm0-1.33h-.06s0,0,0,0h0s0,0,.07,0h.06s0,0,0,0v0h0s0,0,0,0h-.06A.07.07,0,0,1,55,54.9Zm.07-.12h0s0,0,0,0h0s0,0,0,0h0v0Zm0-.41h0s0,0,0,0h0a0,0,0,0,1,0,0h0Zm-.08-.6-.06,0s-.07,0-.08,0l0,0c.07-.06.11-.07.13-.07h.08S55.07,53.72,55,53.77Zm.07-.25H55l0,0,0,0s0-.05.07-.05a.05.05,0,0,1,.07,0l0,.08Zm.09-.92-.09,0s0,0,0,0h.09s0,0,0,0Zm-.09.21h0a.28.28,0,0,1-.12,0h0l0,0h0A.15.15,0,0,1,55.08,52.81Zm-.17,2.63h0v0h0l0,0h0v0Zm.33,1.27a.82.82,0,0,1-.2.14.08.08,0,0,1-.11-.05l0,0,0,0a.89.89,0,0,1,.21-.16h0s0,0,0,.06,0,0,0,0Zm.09-1.32h0s0,0,0,0h0s0,0,0,0Zm0,.12s0,0,0,0h.07l0,0h-.05S55.36,55.52,55.36,55.51Zm.07.3h0s0,0,0,0Zm0-.14h-.07l0,0a.08.08,0,0,1,.09,0v0h0v0Zm.18.8-.09.07h0l-.06,0s0-.08.07-.12.11-.06.13,0l-.06,0Zm0-2.87s-.1.06-.13,0l0,0,0-.06s.1-.07.14,0h0Zm.1-.82,0,0h0s0,0,0,0h0l0,0H56a.33.33,0,0,1-.1.14l-.06,0s-.07,0-.08,0Zm0,.26s0,0,0,0h0a0,0,0,0,1,0,0Zm.09.13-.07,0h0l0,0h.09ZM56,53l-.08,0s0,0,0,0H56s0,0,0,0Zm0-.37,0,0h-.06l0,0,0-.05s.06,0,.08,0,0,0,.06,0Zm.09,1.57h0s0,0,0,0h0S56.11,54.15,56.1,54.15Zm0,0h0v0s0,0,0,0h0a.11.11,0,0,1,.1,0h0l0,0-.06,0ZM56.21,53h0a.15.15,0,0,1,.08,0h0c.12-.07.21-.1.26,0v0l0,.07-.05.05a.41.41,0,0,1-.1.11h-.05s0,0,0,0a.25.25,0,0,1,0-.07l0,0,0-.06h0Zm.08-1h0s0,0,0,0h0l0,0h0l0,0h0s0,0,0,0h0Zm.27-.39h0a.08.08,0,0,1,.06,0h0l0-.07c.05,0,.16-.07.19,0a0,0,0,0,1,0,0l0,.06,0,0a.62.62,0,0,1-.19.11h0s0,0,0,0h0s0,0,0,0l.05,0h0Zm.93-2.11,0-.06.06-.06.07,0,0,0,0,.07-.06,0-.07,0h0l0,0Zm.36-.41h0a.09.09,0,0,1,0,.07.13.13,0,0,1-.09,0h0l0,0h-.08a.12.12,0,0,1,0-.08c.05,0,.07,0,.09,0h0l0,0Zm.27-.45h.06l0,0,.11-.1.06,0,0,0h0l0,0,.06-.06.07,0,0,0,0,.06-.06.06h0l0,0a.81.81,0,0,1-.19.14l-.07,0-.05,0a.06.06,0,0,1,0-.09v0l0,0S58.11,48.59,58.12,48.57Zm.13-.35h.07s0,0,0,0l0,0h0a0,0,0,0,1,0,0h0s0,0,0,0h0Zm.19.14h0s0,0,0,0v0Zm0-.14h-.11a.15.15,0,0,1,.1,0h0Zm-.19,0,0,0v0h-.08l0,0h0Zm.44.18h0s.06,0,.11-.06.07,0,.07,0h0l0,0h-.06s0,0,0,0h-.1s0,0,0,0h0l.06,0Zm0-.32h.07s0,0,0,0l0,0h0s0,0,0,0h0Zm1.21-2.94a.3.3,0,0,1-.11,0h0l0,0h.09Zm-.12.85h0s0,0,0,0h.13l0,0h-.06Zm.06-.87h0a.08.08,0,0,1-.06,0h0l0,0h0l0,0h0Zm-.07.64h.09l0,0h0s0,0,0,0h0Zm0,.28,0,0,.1,0h0l0,0,0,0h0l.09,0h0l.07,0c.08,0,.12.05.12.08s0,0,0,0a.8.8,0,0,1-.3.07l-.05,0h0a.31.31,0,0,1-.13.06l-.07,0h-.09C59.63,46.12,59.73,46.07,59.78,46.05Zm1.72-4.72h.07s0,0,0,0h0s0,0,0,0a.24.24,0,0,1-.09.08l0,0h0l0,.06,0,0c-.08,0-.09,0-.1,0l0,0h0s0,0,0-.08v0h0l-.07,0c0-.06,0-.15.12-.26l0,0a.22.22,0,0,1,.13,0h0v0l-.06.07Zm.72-11.41a.53.53,0,0,1,.12-.14s0,0,.06-.06l.08,0h0l.08,0c0,.06,0,.16-.13.28l-.08,0h0s0,0,0,0h-.06s0,0,0-.05h0Zm.3,3,.09-.08.08-.08.08,0a.06.06,0,0,1,0,0s0,0,0,0v0l0,0,.09-.05,0,0H63l0,.06a.18.18,0,0,1-.09.1v0a.33.33,0,0,1-.14.07h-.08v0a.2.2,0,0,1,0-.1h0a.44.44,0,0,1-.15.08h0v0h0Zm.06-10.65h0v0h0a0,0,0,0,1,.06,0h0v0h-.07Zm.13.56,0,0h0s0,0,0,0h0a0,0,0,0,1,0,0h0ZM64.3,34.65l0-.06.11-.09.07,0h0s0,.11,0,.15h0s-.06.09-.09.11l0,0-.07,0s0-.08,0-.11S64.31,34.66,64.3,34.65Zm-.2,5.89h0a.08.08,0,0,1,.07,0s0,0,0,0v0l-.06.07-.06,0,0,.07s0,0,0,.06l-.06.05-.14.09-.16.11h0l0,0h0l0,0H63.5c0-.09.14-.16.21-.21s.09-.07.09-.08l0,0,.08-.06H64S64,40.6,64.1,40.54ZM64,40.21h0a.14.14,0,0,1,.1,0h0l-.06,0Zm.13.74h0s.06,0,0,0h0l-.09,0h0Zm0-.17h.09s0,0,0,0H64.1Zm-1.21,1.91a.28.28,0,0,1-.13.11c-.1,0-.16,0-.11-.11l.05-.06h-.07l0,0h.08l0,0h.06s0,0,0,0a0,0,0,0,1,0,0h0v0s0,0,0,.05l0,0Zm-.36,0h0l0,0h-.08a.23.23,0,0,1,.13-.05h0s0,0,0,0a.12.12,0,0,1-.08,0Zm.1,1.88,0,.07-.08,0-.05,0-.08,0a.09.09,0,0,1,0-.09l-.06.07-.06,0s0,0,0,0h0s0-.06,0-.08a0,0,0,0,0,0,0l.05,0c.06,0,.09,0,.09,0h0s0,0,0,0l.1-.1h.06a.07.07,0,0,1,0,.1.36.36,0,0,1-.09.08A.22.22,0,0,1,62.63,44.52Zm-.52,1.14h0l0,0h0s0,0,0,0h-.07Zm0-.56v0h.06v0H62.1Zm.06-.27a.12.12,0,0,1-.08,0h0l0,0h.08Zm-.28-.09,0,0a.44.44,0,0,1-.2.15h0s0-.07,0-.12a.49.49,0,0,1,.16-.12h0a.07.07,0,0,1,0-.06h0l-.12,0s-.07,0,0,0h0l0,0h.07s0,0,0,0a.16.16,0,0,1,.07-.07l.06,0,0,0,0,.07-.07,0h.09s0,0,0,0h0Zm-.12,1.82,0,0h-.1s0,0,0,0h0l0,0v0l-.07.06h-.06a.08.08,0,0,1-.05,0l0,0,0-.07,0,0h0v0l0,0h0l.1,0h0l.06,0v.06l0,0h0Zm0,.63h0s0,0,0,0h0Zm-.28.33h0a0,0,0,0,1,0,0v0Zm-.18-.79h0l0,0h0s0,0,0,0h.06a.19.19,0,0,1-.12,0h0A.06.06,0,0,1,61.3,46.73Zm-.12,1a.37.37,0,0,1-.13.11c-.09,0-.16,0-.1-.11a.38.38,0,0,1,.13-.13h.06s0,0,0,0a0,0,0,0,1,0,0h0v0l0,0v0ZM61,48h0s0,0,0,0l0,0h0s0,0,0,0h0l0,0H61s0,0,0,0h0Zm0-.13h-.07l0,0h0l0,0h0s.06,0,0,0h0Zm-.26-.3s0,0,0,0h0a.19.19,0,0,1,.1,0h0S60.72,47.54,60.69,47.55Zm0,.11a0,0,0,0,1,0,0h-.06l0,0h0Zm-.79,2.74s-.07.05-.1,0,0,0,0,0v0l0-.07.08,0h0l0,0H60s0,0,0,0h0l0,.07,0,0v0Zm-.2-.53h0l0,.07a1,1,0,0,0-.2.15l-.07,0s0-.09,0-.12l0,0h0l.07-.09v-.06l0,0h0a.24.24,0,0,1,.12-.11s0,0,0,0h0v0a.06.06,0,0,1,.05,0h0l0,.05,0,0Zm-.09,1.59-.06,0h0s0,0,0,0,0,0,.11,0h0s0,0,0,0,0,0,0,0Zm0,.06h0S59.68,51.53,59.69,51.52Zm-.1,0h-.07l0,0h.05Zm-.05-.87a.05.05,0,0,1-.07,0l.05-.08c.06,0,.1,0,.12,0h0l0,0Zm-.16-2.74s0,0,0,0h0L59.3,48c-.09.07-.11,0-.07-.05a.34.34,0,0,1,.09-.08h0v0Zm.21.64h.09l0,0h0l-.06,0h0Zm0-.8s-.06,0-.07,0h0l.05,0h0s0,0,0,0h-.06Zm.49-1.46h0l0,0a0,0,0,0,1,0,.05l0,0h.06v0h0l-.06,0h0a.58.58,0,0,1-.17.14l0,0s0-.06,0-.09l0-.08h0l-.09,0s0,0,0,0h0s0,0,0,0h0s0,0,.05,0h0s0,0,0,0h0c.06,0,.08,0,.09,0h0Zm.36,0h0a.11.11,0,0,1,.06,0h0v0h-.15l0,0a.19.19,0,0,1-.09,0,.14.14,0,0,1-.11,0h-.09c0-.06.13-.09.19-.1l.07,0v0S60.39,46.32,60.42,46.31Zm.19.72s0,0,0,0a0,0,0,0,1,0,0h-.05s0,.08-.11.11h-.15a.08.08,0,0,1-.07-.05h0s0,0-.06,0,0,0,.05,0h0l.1,0h0l.12,0h.05l0,0h.07Zm0,1.07s0,0,0,0h0Zm0,.8h0l0,0h0l-.07,0h0l0,0h0a.12.12,0,0,1,.08,0h0s0,0,0,0h0Zm0,.35s0,0,0,0l0,0h0Zm-.45.46a.12.12,0,0,1,.08,0h0s0,0,0,0a.05.05,0,0,1-.05,0h0Zm0,.07h0l0,0h0s0,0,0,0h.06Zm0,.39.11,0s.09,0,.07,0l0,0h-.16Zm.17-.33h0a.08.08,0,0,1,.06,0h0Zm0-1.76h-.09l.11,0h0Zm0-.15,0,0-.08,0s0-.05,0-.09a.36.36,0,0,1,.15-.1h0s0,0,0,0A.34.34,0,0,1,60.19,47.93Zm-.27-.35h-.09l0,0H60Zm0,.76v0l0,0h-.09l0,0h.07Zm0-.87h-.05s0-.06,0-.08h0l0,0a.32.32,0,0,1,.12-.14l.07,0h0l0,0h.07a.09.09,0,0,1,0,.12A.46.46,0,0,1,59.92,47.47Zm.22-.6h0s0,0,0,0h0s0,0,0,0h0a0,0,0,0,1,0,0h0Zm0,.76h0l0,0h0s0,0,0,0h0l0,0h.08s0,0,0,0Zm0-.13h0s0,0,0,0h0l0,0h.08s.07,0,0,0h0Zm-.09.3h.07l0,0H60S60,47.8,60,47.8Zm.2-.39h0s0,0,.06,0h0s0,0,0,0H60.3A.07.07,0,0,1,60.24,47.41Zm.06,1.74,0,0h0l.08,0h0s0,0,0,0h0l0,0H60.3s0,0,0,0Zm.14.56h0l0,0h-.06Zm0-1.09h0v0h0a.27.27,0,0,1,.12,0h0l0,0h0l0,0Zm.07-.17,0,0h0Zm0-.76h0s0,0,0,0h0Zm.1-.35,0,0h-.06s0,0,0,0h-.09s0,0,0,0h.05a.3.3,0,0,1,.12-.06h.06Zm0-.12a.05.05,0,0,1,0,0h.06l0,0h0Zm-.81-.82h.05l0,0h0a.13.13,0,0,1-.09,0h0l0,0h0Zm.08,2.6,0,0a.25.25,0,0,1,.14,0h0l0,0s0,0-.06.06h0a.44.44,0,0,1-.16.06.59.59,0,0,0-.14.06h-.13s-.06,0-.05-.06l0,0,.06,0A.62.62,0,0,0,59.88,49Zm.09.84h-.08l.07,0Zm-.23-.61,0,0h-.06s0,0,0,0h.07Zm0,0h0l.06,0h0s0,0,0,0h0l0,0h0Zm0-.33h0Zm-.1-.33h.06s0,.06,0,.07h0l0,.05,0,0c-.05,0-.06,0,0-.08A.18.18,0,0,1,59.61,48.6Zm-.09.61h.1a.26.26,0,0,1-.14.06h0l0,0h0s0,0,0,0h0Zm0,.16h0s0,0,0,0h0s0,0,0,0h0A.07.07,0,0,1,59.5,49.37Zm0,.49h0l0,0s0,0,0,0h0l0,0h0Zm-.11-1.38s0,0,0,0h-.05s0,0,0,0h0l.05,0h.06Zm-.16,1.84h.09s0,0,0,0h-.08s0,0,0,0h0S59.27,50.34,59.28,50.32Zm-.08.24h-.07s0,0,0,0h-.07a.32.32,0,0,1,.13-.05h0s0,0,0,0h0s0,0,0,0l0,0h0Zm-.14.69h0v0l0,0,0,0h.08s0,0,0,.05h0Zm0,.41h0s0,0,0,0h0ZM59,50.52H59s0,0,0,0h0l0,0h0s0,0,0,0h0A0,0,0,0,1,59,50.52Zm0-.64H59s0,0,0,0h0v0h0Zm.08.68h0l0,0s0,0,0,0h.06S59.11,50.56,59.11,50.56Zm0-1.05.06,0h0l0,0h-.06Zm.09.86s0,0,0,0h0l0,0h0s0,0,0,0h0A.07.07,0,0,1,59.16,50.37Zm0-.67c-.05,0,0-.07,0-.09l.06-.07s.09,0,.12,0h0l0,.06a.26.26,0,0,1-.1.07H59.2Zm.08-.34.09,0h0s0,0,0,0l-.06,0s0,0,0,0h0Zm0-.11h0s0,0,0,0l.09,0h0Zm0,.7h.07s0,0,0,0l0,0h-.08Zm.08-1.18s-.06.06-.09.09l0,0-.08,0s0,0,0-.09a.34.34,0,0,1,.15-.09h0S59.4,48.75,59.39,48.77Zm-.15-.16a.08.08,0,0,1,0,0h.07s0,0,0,0h0l-.08,0Zm.13-.41-.07,0h0s.06,0,.09-.05h0s0,0,0,0Zm-.09,0a.15.15,0,0,1,.08,0h0s0,0,0,0h-.07s0,0,0,0Zm-.05.3h0l0,0h0s0,0,0,0h-.09s0,0,0,0Zm0,.1a.15.15,0,0,1,.09,0h0s0,0,0,0h0l0,0Zm0,.19h0l0,0h0l-.12,0h0l0,0h.09s0,0,0,0A.12.12,0,0,1,59.23,48.75Zm-.08-.89h0l0,0H59l0,0h0S59.15,47.85,59.15,47.86Zm-.09.52s0,0,0,0H59Zm0,.91,0,0h-.06a.24.24,0,0,1,.09,0ZM59,50.71h0s0,0,0,0h0a.16.16,0,0,1-.09,0h0Zm.08.46h.08s0,0-.07,0H59S59,51.19,59,51.17Zm-.06.58h0l.1,0h.1s0,0,0,0l.09,0h0s0,0,0,0h-.11l-.09,0h0l-.06,0h0s0,0,0,0h0Zm.23-.34h0s0,0,0,0h-.12l0,0h0s0-.08.07-.17a.27.27,0,0,1,.1-.06.07.07,0,0,1,.1.09l0,0A.51.51,0,0,1,59.2,51.41Zm.13,0,.06,0h0a0,0,0,0,1,0,0h0l-.07,0h0Zm.07-.55h0v0h.07s0,0,0,0H59.4Zm.37-1.22h0a.14.14,0,0,1,.09,0h0l0,0Zm.3.65a.27.27,0,0,1,.1-.06s.08,0,.09,0a.08.08,0,0,1,0,.08l0,0a.42.42,0,0,1-.16.12C60,50.53,59.91,50.46,60.07,50.32Zm.18-.78h0l.09,0h0a.05.05,0,0,1,0,0Zm0,.69h0Zm.09.22h0A0,0,0,0,1,60.38,50.45Zm0-.45h0l.1,0h0l0,0h0A.16.16,0,0,1,60.36,50Zm.21.14h0a.19.19,0,0,1-.08,0h0S60.53,50.15,60.57,50.14Zm0-.24h0v0h0s-.06,0-.09,0h0l.06,0s0,0,0,0h0Zm0-1.07h0a0,0,0,0,1,0,0v0l0,0a.07.07,0,0,1,.06,0,0,0,0,0,1,.06,0s0,0,0,.07A.27.27,0,0,1,60.55,48.83Zm.17-1.55h0s0,0,.06,0h0s0,0,0,0h-.12Zm.09-.49h0l-.06,0c-.11,0-.17,0-.19,0a.73.73,0,0,1-.22,0l0,0a.07.07,0,0,1,0-.06l0,0,.09,0h.15l.05,0a.25.25,0,0,1,.12,0h.07s0,0,0,0h0Zm-.19-.44s0,0,0,0h.08l0,0h-.05Zm.27-.1a.27.27,0,0,1,.1-.06s.08,0,.09,0a.08.08,0,0,1,0,.08l0,0a.51.51,0,0,1-.16.11C60.79,46.46,60.73,46.39,60.89,46.25Zm.67-3.84h.06s0,0,0,0a.11.11,0,0,1-.07,0,.06.06,0,0,1-.06,0h0s-.06,0,0,0l0,0h.11ZM62.29,41v0h.06s0,.07-.11.15h-.13a.29.29,0,0,1,0-.09s0,0,0-.06l.06-.06S62.29,41,62.29,41Zm0-1.27s0-.09.08-.14.1-.05.13,0l-.07.08h0l-.06.06Zm0,3.83h0c-.06,0-.09,0-.07,0h0l.08,0h.12l0,0h0Zm0,.41h0l-.08,0h0a.12.12,0,0,1,.08,0Zm0-1.16,0,0h.09s0,0,0,0h0l-.06,0h0S62.23,42.82,62.24,42.81Zm.07.45.07,0h-.07Zm0,.1h0s0,0,0,0h0l-.09,0h0Zm.07.47.09,0h0l-.07,0h-.08Zm0-.67h-.05l0,0h0s0,0,0,0h0Zm0-1.17h0l-.08,0h0l.06,0h.05s.06,0,0,0Zm0-.2h-.08s0,0,0,0h.09Zm0-.34h-.07l.08,0s0,0,0,0Zm-.2.28h0s-.06,0-.06,0h0s0,0,0,0h0Zm-.06.55s0,0,0,0l-.07,0H62s0,0,0,0h.1ZM62,43.43h0l0,0h0l0,0h0s0,0,0,0H62Zm0,0h0s-.07,0-.08,0h0S62,43.45,62,43.44Zm-.2,1a.15.15,0,0,1,.08,0h0v0h-.11Zm.1-1.57a.31.31,0,0,1-.11.09l-.07.06-.08,0a.06.06,0,0,1,0-.07s.06-.06.1-.09a.16.16,0,0,0,.08-.06l.08,0A.06.06,0,0,1,61.94,42.89Zm0-.9h0s0,0,0,0H62s0,0,0,0Zm-.2,4h-.08s0,0,0,0l0,0h0Zm-.17-.62.05-.06s0,0,0,0,0-.08.21-.09l0,0s0,.07-.11.1A.48.48,0,0,1,61.55,45.41Zm-.45.81s0,0,0,0h0v0h.07l0,0h0Zm-.21-.54h0s0,0,0,0h0s0,0,0,0l0,0h0Zm0,.31,0,0h0s0,0,0,0,0,0,0,0h0Zm0-.19c0-.06.15-.09.23-.1l.09,0,.06,0h.09c0,.08-.13.12-.22.13h-.08a.09.09,0,0,0-.1,0Zm.4-.11s0,0,0,0h0l-.06,0h0Zm-.23.27h0v0h.07s0,0,0,0h0ZM61,46l0,0h0s0,0,0,0h.1l-.05,0H61Zm0,.12h0l0,0h0Zm.17.54h.07v0h-.14S61.21,46.67,61.24,46.66Zm0-.44,0,0v0l0,0h0a.39.39,0,0,1,.23,0h0c0,.05,0,.09-.09.12A.41.41,0,0,1,61.26,46.22Zm.15-.16a.21.21,0,0,1,.1,0h0a0,0,0,0,1,0,0h0l-.08,0Zm.11-.2h0ZM61.34,44l0,0h0s.1,0,.08,0H61.4l-.06,0h-.05Zm-.05-.08h-.08s0,0,0,0h.1s0,0,0,0l0,0Zm0-.92s0-.07.08-.1.11,0,.13,0a0,0,0,0,1,0,0l0,0L61.4,43h-.07v0h0Zm.34.23h0l0,0s0,0,0,0h0l0,0h0l0,0Zm0-.87h0l.05,0h0s0,0,0,0h-.07Zm0,1.76-.06,0h0s0,0,0,0h0Zm-.08-.35h0l0,0h-.11a.25.25,0,0,1,.11,0Zm-.13.5h0s0,0,0,0h0Zm-.17-.16h.14v0H61.3Zm.13.59,0,0h.09l-.12,0h0Zm.13-.25h.09s0,0,0,0h0l-.09,0S61.53,44.46,61.56,44.44Zm.07-.28h0l0,0h.09Zm.07-.36h0s0,0,0,0h.1s0,0,0,0,0,0,0,0H61.7Zm0-.28h0l.1,0h0A.27.27,0,0,1,61.71,43.52Zm.06-1.43,0,0h0l-.06,0h-.05a0,0,0,0,1,0,0h.06l.08,0h0Zm-.41,0h-.13s0-.07,0-.1,0,0,0-.06l.06-.06c.06,0,.08,0,.08,0v0h.06S61.48,42,61.36,42.09Zm0,.15h.05l0,0h-.09Zm0,.82h0s0,0,0,0h-.08s0,0,0,0l0,0Zm-.06.57h.06v0c.05,0,.09,0,.1,0s0,.06,0,.08l0,0a.35.35,0,0,1-.14.07h-.06S61.21,43.66,61.24,43.63Zm-.06,1.31h0l.08,0s0,0,0,0h0a.1.1,0,0,1-.06,0h0s0,0,0,0Zm0,.58,0,0,.13,0,0,0c.06,0,.09,0,.09,0l0,0a.06.06,0,0,1,.06,0l-.05.07h0s0,.06-.08.1h0l0,0a.19.19,0,0,1-.17,0h0l-.07,0,0,0Zm-.07.16H61v0s0,0,.05,0h0S61.14,45.65,61.11,45.68ZM61,45.56l-.06,0-.07,0h0a.09.09,0,0,1,0-.07.29.29,0,0,1,.08-.08H61l0,0Zm0-.74,0,0h0Zm-.06.33h0a.07.07,0,0,1,0,.09.52.52,0,0,1-.13.13l-.07,0s-.05,0,0-.11l0,0a.39.39,0,0,1,.11-.08Zm-.2.34-.05,0s0,0,0,0h.05S60.75,45.48,60.74,45.49Zm0,.26h.06s.05,0,.05,0h-.06s0,0,0-.05h0Zm.3,1.7,0,0h.09a0,0,0,0,1,0,0h0v0l-.05,0h0s0,0-.06,0,0,0,0,0S61,47.47,61,47.45Zm.22-.3,0,0-.06,0h0s.07,0,.09-.06h0l0,0,.08-.06s0,0,.06,0l0,.07,0,0h0Zm.57-1.59s0,0,.05,0h0l0,0h0Zm.12-.07H62s0,0,0,0h0s-.06,0,0,0Zm.05-1a.05.05,0,0,1,0,0h0Zm0,1.27h0s0,0,0,0l0,0s0,0,0,0Zm.07-1.6-.08,0h0l0,0,.08,0h0Zm0-1.31h0s0,0,0,0h.1l0,0Zm.06,1.72s0,0,0,0l.05,0h.07s0,0,0,0h0a.23.23,0,0,1-.13.06s-.07,0,0,0Zm.4-.9h-.07s0,0,0,0h.06s0,0,0,0h0s0,0,0,0h0Zm0-2.12s0,0,0,0h0a.24.24,0,0,1,.1,0h0l0,0h0l-.08,0h0Zm0,.94h0l.08,0h0s0,0,0,0l0,0h0l-.06,0h0a0,0,0,0,0,0,0,0,0,0,0,1,0,0Zm.1-.3a.06.06,0,0,1,0-.07.22.22,0,0,1,.1-.09l.08-.06.08,0a0,0,0,0,1,0,.07.22.22,0,0,1-.1.09l-.07.06Zm.08-.93h.05l-.08,0h0A.1.1,0,0,1,62.65,41.22Zm0-.41.07,0h0s0,0,0,0h-.09Zm.13-.23s0,0,0,0h0l0,0h0l.08,0h0l-.07,0h-.08Zm.14,1.78s0,0,0,0H63l.08,0h0s0,0,0,0l0,0h0a.08.08,0,0,1-.06,0h-.06Zm.53-6.4a.31.31,0,0,1-.14.16c-.06,0-.12.05-.14,0s0-.08.07-.14.14-.1.18-.07h0Zm.16,5.49h.06s0,0,0,0h-.08Zm0,.33h.07a.1.1,0,0,1,.06,0v0l-.07,0h0a.24.24,0,0,1-.13,0h-.05C63.42,41.85,63.56,41.8,63.63,41.78Zm-.53.1,0,0H63s0,0,0,0h.07Zm-.09.29h.09s0,0,0,0a.12.12,0,0,1-.08,0h0s0,0,0,0Zm.08-.24h.07l0,0Zm0-.69h-.09a.2.2,0,0,1,.08,0h.06Zm0-.62-.06,0H63a.13.13,0,0,1,0-.09v0l0-.05c.07,0,.1,0,.1,0l0,0a.06.06,0,0,1,.06,0l-.06.08h0S63.19,40.58,63.13,40.62Zm0-1.61.06,0,.07,0h0s0,.05,0,.07v0l-.06.08a.11.11,0,0,1-.07,0h0Zm0-.2s0-.09.08-.14.1-.05.13,0l-.07.09h0l-.06.07Zm.12,2a.19.19,0,0,1,.09,0h0a.38.38,0,0,1-.1,0h0Zm0,1h0a0,0,0,0,1,0,0h0a.28.28,0,0,1,.11,0h0l0,0,0,0h0l-.07,0Zm0,1.12a.23.23,0,0,1,.13,0h0s0,0,0,0a.19.19,0,0,1-.09,0h-.06Zm.09-3h0s0-.07,0-.12a.64.64,0,0,1,.16-.13h0l0,0,0,0A.44.44,0,0,1,63.37,39.94Zm.17-.93h0l-.06,0h0l0,0h.06Zm0,1.74a.14.14,0,0,1,.1,0h0l0,0h-.08Zm0-2.76-.08.06-.07,0s0,0,0-.07a.2.2,0,0,1,.1-.08l.08-.07.08,0a.06.06,0,0,1,0,.08A.39.39,0,0,1,63.54,38Zm-.22-1.35h-.06c-.06,0,0,0,0-.06v0l.06,0h.16l.05,0C63.47,36.59,63.36,36.63,63.32,36.64Zm-.14.3s0,.07-.11.16h-.13a.44.44,0,0,1,0-.1A.43.43,0,0,1,63,37L63,36.9c.06,0,.09,0,.09,0a0,0,0,0,0,0,0ZM63,43.71h0l.1,0h0a.27.27,0,0,1-.12.05h0Zm0-.84.05,0a.1.1,0,0,1,.12,0,.06.06,0,0,1,0,.07s0,0-.07.08L63,43l0,0A.07.07,0,0,1,63,42.87Zm.16-.8h-.06a.11.11,0,0,1,.06-.11s.09,0,.1,0v0Zm.1,1.47,0,0h0a.3.3,0,0,1,.08-.08h.06a.09.09,0,0,1,0,.1s-.05.06-.09.09H63.3a.05.05,0,0,1,0-.08h-.06l0,0Zm.12.12.09,0h.06v0l-.06,0-.09,0h0Zm.12-.8-.08,0a.13.13,0,0,1,0-.08h0a.59.59,0,0,1,.2-.17l0,0a0,0,0,0,0,0,0l0,.06a.36.36,0,0,1-.12.09Zm.15-.37h-.07a.09.09,0,0,1,0,0v0l0-.05c.13-.1.17-.07.19-.06v0l0,.05-.11.09Zm.17-.76h0l-.08,0h0a0,0,0,0,1,0,0h0a.27.27,0,0,1,.1,0h0l0,0Zm0-.42h-.07s0,0,0,0h0l0,0h.06s0,0,0,0A.09.09,0,0,1,63.85,41.31ZM64,40l0,0H63.9v0h-.1s0,0,0,0h.06a.22.22,0,0,1,.11-.05S64,40,64,40Zm-.19-1.68-.06,0,0,0s0,0,0,0,0,0,0,0v0a.26.26,0,0,1,.12-.09l0,0s0,0,.07,0a.11.11,0,0,1,0,.11.2.2,0,0,1-.08.08Zm0-1v0l.06,0h0s0,0,0,0Zm.11,1.2.06-.08,0,0h.07s0,.08-.12.15h-.06S63.92,38.54,63.91,38.53ZM64.06,37H64s0,0,0,0h0L64,37a.18.18,0,0,1,.1,0h0Zm.07-.46,0-.05a.12.12,0,0,0,0,0l.1-.08.05,0h0a.06.06,0,0,1,.07,0s0,0,0,0v0l0,0h0a.22.22,0,0,1-.09.1l0,0-.09,0h0S64.11,36.6,64.13,36.53Zm.19.34.06,0h0s.08,0,.09,0h-.16Zm0-1.71s0,.11-.09.17l-.1.05a.06.06,0,0,1-.07,0,.23.23,0,0,1-.12.06h0s0-.1,0-.17a.48.48,0,0,1,.17-.12h0s0,0,0,.05S64.34,35.14,64.35,35.16Zm-.26-.5h0l-.06.06H64s0-.09.08-.14.1-.05.13,0Zm-.12.78a.53.53,0,0,1-.14.17l0,0-.08,0a.07.07,0,0,1,0-.08v0l0-.06.09-.07.07,0H64Zm-.25,2h0l0,0h-.16s0,0,0,0h.14Zm-.14-1.91h0s-.06.09-.09.12l0,0-.07,0s0-.08,0-.11,0,0,0,0l0-.06.11-.09.07,0h0S63.61,35.51,63.58,35.56Zm-.12-.84,0,.06s-.05,0-.06.07h0s0,0,.06,0h0v0a.71.71,0,0,1-.15.15c-.06,0-.1,0-.12,0h0l0,0a.08.08,0,0,1-.09-.07S63,35,63,35v0h0c0-.11.16-.2.27-.27a.66.66,0,0,0,.18-.14l.09,0s0,.09-.06.14S63.45,34.69,63.46,34.72Zm-.86,4.81.11,0s0,0,0,0H62.6Zm0,1h.07l0,0,0,.07-.07,0-.06,0h0a.06.06,0,0,1,0-.06Zm0,.91h0l0,0h0l-.12,0h-.06l0,0h0l0,0h.06s0,0,0,0A.15.15,0,0,1,62.6,41.4Zm-.09-.18s0,0,0,0h0l0,0v0s0,0,0,0h0l0,0s0,0,0-.06l0,0c.05,0,.13-.08.15,0l-.05,0Zm0-3.25c-.12,0-.14,0-.14,0s0,0,0,0h0l.07,0s.11,0,.13,0v0Zm-.07-.65a.34.34,0,0,1-.09.08l0,0-.08,0s0,0,0-.06a.19.19,0,0,1,.1-.08l0,0h.07A.08.08,0,0,1,62.42,37.32Zm-.27,0-.06,0-.07,0c0-.06,0-.14.11-.26l.06,0a.16.16,0,0,1,.13,0h0v0A.43.43,0,0,1,62.15,37.37Zm-.09,2.2,0,0h0c.05,0,.09,0,.1,0s0,.06,0,.08l0,0a.59.59,0,0,1-.14.07H62S62,39.59,62.06,39.57Zm-.06.52h0s0,0,0,0h-.08s0,0,0,0l0,0Zm0,1.4.07,0h.12v0l-.05,0-.1,0h0s0,0,0,0h0l-.06,0H61.9s-.06,0-.06,0h0S61.9,41.51,62,41.49Zm-.11.43h0s0,0,0,0h0Zm0,.18h0s.06,0,0,0h0l-.08,0h0Zm-.05-1.23,0,0h0l0,0h0a.35.35,0,0,1,.11,0h0Zm-.1,1h-.1l0,0h.07Zm-.47.57h0l0,0h-.06s0,0,0,0h.07Zm-.07,2.72H61.1s-.05,0,0,0h.1Zm-.06-.94H61l.06,0h0a.16.16,0,0,1,.09,0h0Zm0-.42s-.06.06-.09.09l0,0-.08,0s0-.05,0-.09a.34.34,0,0,1,.15-.09h0A0,0,0,0,1,61.1,43.78Zm-.15.4h0v0h-.13l0,0h0Zm-.13.11,0,0h.08s0,0,0,0h0a.39.39,0,0,1-.13.06s-.07,0-.05,0l0,0Zm0,0-.08,0h-.06s0,0,0,0h0l.06,0h.1Zm-.07,1.61h.08s0,0,0,0,0,0,0,.06l0,0,0,0a0,0,0,0,0,0,0v0h0l0,0h-.11l0,0s-.12.06-.15.07l-.08,0h0s0,0,0-.05l0,0h0l0,0,0,0h0s0,0,0,0h.09s0,0,0-.07a.21.21,0,0,1-.08,0l0,0h0l.06,0A.4.4,0,0,1,60.7,45.91Zm-.41-.06.05,0h.07s0,0,0,0h-.07Zm.18-.11.05,0a.07.07,0,0,1,0,0h0a.11.11,0,0,1-.07,0h0l0,0v0h0Zm0-.4h0s0,0,0,0h0Zm0-.69,0,0h0v0l.06,0h0Zm.07-.37h-.07a.2.2,0,0,1,.07,0h0Zm-.06.22s0,0,0,.08l0,0a.45.45,0,0,1-.14.07h-.06s0-.11.07-.14h.06C60.46,44.48,60.5,44.48,60.52,44.5Zm-.22.31h0l0,0h-.11l0,0h.08Zm-.1.67h0l0,0a.37.37,0,0,1-.1.07H60c-.06,0,0-.06,0-.08l.06-.08S60.17,45.44,60.2,45.48ZM59.71,47h0s0,0,0,0h-.11S59.69,47.05,59.71,47Zm-.12-1.26h-.05l0,0,0,0h0s0,0,0,0S59.61,45.77,59.59,45.78ZM59.54,47h-.12s0,0,.06,0h0S59.56,47,59.54,47Zm-.12.88h0l0,0h0a.1.1,0,0,1,.07,0h0l-.07,0h-.07S59.41,47.92,59.42,47.91ZM59.35,47l0,0h-.07a.13.13,0,0,1,0-.08.28.28,0,0,1,.1-.06h0l0,0Zm-.06.48,0,0h-.07l0,0h.08Zm-.07-.58s0,0,0-.06l0,0h-.08l0,0,.07,0h.09a0,0,0,0,0,0,0l0,.07h0s0,0,0,0h-.13v0h0l0,0h0Zm.1-.23h0l-.11,0h-.07a.09.09,0,0,1,0,0,.19.19,0,0,1,.09,0s.11,0,.12,0Zm-.09.53h0s0,0,0,0h-.12A.16.16,0,0,1,59.23,47.17Zm0,.32.06,0,0,0h0s0,0,.06,0v0l0,0a.81.81,0,0,1-.19.14l-.07,0H59c-.06,0,0-.05,0-.08a.09.09,0,0,0,0,0l.05-.06,0,0A1.13,1.13,0,0,1,59.21,47.49ZM59,48.76s0,0,0,0h-.11v0Zm-.11-.19h0l.1,0h0A.09.09,0,0,1,58.89,48.57Zm0-.24h-.08s.06,0,.09-.05h0s0,0,0,0Zm-.32,3.81h0v0h.08l0,0h0Zm0-.2h0s0,0,0,0Zm0-.07Zm.07-.07h0Zm0-.14h-.1s0,0,0,0l.07,0h0s0,0,0,0a.37.37,0,0,1,.1-.07h0l0,0,0,.06A.16.16,0,0,1,58.65,51.66Zm-.22-2.84h0a.17.17,0,0,1,0,.05l-.05.07c-.09.07-.11,0-.07-.05A.34.34,0,0,1,58.43,48.82Zm-.07-.11h0a.21.21,0,0,1,.1,0h0l-.06,0Zm.1.37h0l0,0h-.08l.1,0Zm0,.28h0v.05l-.07,0h0l0,0c-.07,0-.12,0-.12,0s0-.05,0-.07A.32.32,0,0,1,58.43,49.36Zm.12,0h0s0,0,0,0h0s0,0,0,0h0Zm0,.09h0s0,0,0,0h0s0,0,0,0h.06Zm-.06,1.21h0l0,0h0s0,0,0,0l0,0Zm-.05-.11-.11.07h-.06c-.05,0,0-.06,0-.08l.07-.08s.09,0,.11,0h0Zm-.19.78h0S58.3,51.3,58.29,51.31Zm0-1.61s0,0,0,0h0Zm0,1.41h0l0,0h0a.15.15,0,0,1-.07,0h0l.1,0h.06Zm-.09.5h0l0,0h0a0,0,0,0,1,0,0h0a0,0,0,0,1,0,0h0v0h0Zm0-1h-.08v0h.08s0,0,0,0Zm0-.15h0l0,0h0l0,0h0S58.15,50.5,58.14,50.5Zm0-.51H58a.1.1,0,0,1,.08,0h0A0,0,0,0,1,58.12,50Zm-.07,1.8.07,0h0v0l0,0h0S58,51.8,58.05,51.79Zm.1.12s0,0,0,0h-.07l0,0h0S58.16,51.9,58.15,51.91Zm-.09.13,0,0h.08a.24.24,0,0,1-.12,0h0Zm.13-.25h.09s0,0,0,0h0a.19.19,0,0,1-.09,0S58.16,51.8,58.19,51.79Zm.06-.38h0l-.06,0h0s0,0,0,0h0a.19.19,0,0,1,.09,0h.1Zm.16-.47s0,0,0-.06a.24.24,0,0,1,.09-.08h.1s0,0,0,0h-.07s0,0,0,0l0,.07C58.47,51,58.42,51,58.41,50.94Zm.26-.15h0v0h0a.11.11,0,0,1-.08,0h0S58.65,50.79,58.67,50.79Zm0,.72h.09s0,0,0,0h-.08s0,0,0,0h0Zm-.06,0h0l0,0,.08,0h0l0,0Zm.13-.15h0l-.12,0h0l0,0h.12s0,0,0,0Zm0-.4c-.07.05-.12.05-.14,0l0-.06a.21.21,0,0,1,.09,0s0,0,.06,0a0,0,0,0,1,0,.06Zm-.06-2h0s0,0,0,0h0l0,0h-.12l.11,0,.08,0,0,0h.08a.1.1,0,0,1-.05,0l-.1,0h.18A.38.38,0,0,1,58.66,48.92Zm-.15-.37h0l0,0h0s0,0,0,0h-.1Zm.27.08h-.05s0,0,0,0h.11s0,0,0,0h0Zm-.16-.5,0,0h-.09l0,0h.08S58.63,48.13,58.62,48.13Zm-.54.84s0,0,0,0l0,0h0s0,0,0,0a.15.15,0,0,1,.09-.05Zm-.22,2.79h0a0,0,0,0,1,0,0l.06,0H58s0,0,0,0l-.05,0h-.08ZM57.54,51h-.08s0,0,0,0h.07s0,0,0,0Zm0,.6h0a.09.09,0,0,1-.1,0h0a0,0,0,0,1,0,0h.06s0,0,0,0Zm-.19-.75v0a.5.5,0,0,1,.08-.12h0s0-.08,0-.11h0l.06-.08c.05,0,.15-.07.19,0a0,0,0,0,1,0,.05l0,.06h0a.16.16,0,0,1-.07.17A.32.32,0,0,1,57.36,50.85Zm-.15,1.49,0,0h0a0,0,0,0,1,.05,0v0Zm0,1.2v0h-.06s0,0,0,0h0Zm0-1.3h-.08a.14.14,0,0,1,.07,0h.08S57.27,52.23,57.24,52.24Zm-.11-.49h0l0,0h0l0,0s.06,0,0,0h0S57.15,51.76,57.13,51.75Zm.19-.32,0,0h0s0,0,0,0l.06,0h0Zm0-1.25h-.08s0,0,0,0h0a.35.35,0,0,1,.11,0v0s0,0,0,0Zm.12.22h.08s0,0,0,0h0l0,0h0Zm.09-.13h0a.06.06,0,0,1,.07,0h0l-.06,0Zm.13,0,0,0h0S57.64,50.3,57.65,50.3Zm.08.06s0,0,0-.06h.06s0,0,0,0h-.06Zm0-.22h.06s0,0,0,0h-.06Zm0,.87,0,0,0,0h.08s0,0,0,.05h0a.16.16,0,0,1-.11,0h0Zm.18-1.48h0s0,0,0,0l0,0h0s0,0,0,0h0a0,0,0,0,1,0,0h0Zm0,.72h0l0,0h0s0,0,0,0h.05Zm-.05.2s0,0,0,0a.06.06,0,0,1,0,0h0s0,0,0,0h-.08Zm-.06.71h0s0,0,0,0h0Zm0,.33,0,0,.09,0h0v0h-.13S57.83,51.5,57.85,51.49ZM58,50.27h-.08l.06,0h0l0,0s0,0,0,0S58,50.27,58,50.27Zm0-1.06h0l0,0h-.08a.17.17,0,0,1,.11,0Zm-.26.75h-.09s0,0,0,0h-.06s0,0,0,0h.06s.06,0,.09,0S57.74,49.94,57.72,50Zm-.24-.36.06,0h0l-.08,0h0Zm0,.77h0l0,0h0s0,0,0,0h0s0,0,0,0Zm0-.57h0l-.12,0h-.06l0,0h0l0,0h.06s0,0,0,0h.09Zm-.16,1.72h-.09l0,0h0S57.26,51.5,57.25,51.52Zm-.1-.09-.06,0h0a0,0,0,0,1,0,0,.11.11,0,0,1,.08,0h0S57.16,51.43,57.15,51.43Zm-.07,1.24h0v0h0Zm0,.73h0s0,0-.07,0h0s0,0,.05,0Zm0-2.27H57l.05,0h.07s0,0,0,0Zm0,1.21h0v0h-.1Zm0-.12h0v0h-.13s0,0,0,0h0a.32.32,0,0,1,.13,0h0Zm-.23.6h-.08a.15.15,0,0,1,.08,0h0s0,0,0,0Zm0,1.32h0s0,0,0,0h-.06a0,0,0,0,1,0,0h0v0h0l0,0h.05Zm0-2.45h.05s0,0,0,0h-.09l0,0Zm0,.17h0s.07,0,.09,0h0l0,0h0A.13.13,0,0,1,56.78,51.86Zm0,.45h0l-.07,0h-.08s0,0,.07,0Zm-.07-.66h0s0,0,0,0h0l0,0h0s0,0,0,0Zm-.08.2h0a0,0,0,0,1,0,0h.11l0,0h0l0,0h0l-.09,0h0Zm.09.66h0l0,0,.08,0h0l0,0-.08,0Zm.13.85h0s0,0,0,0h0Zm-.07-.56h0l0,0h0Zm0,1.28a.08.08,0,0,1,.08,0s0,0,0,.07h-.07s0,0,0,0Zm.07-3.28h-.07a.08.08,0,0,1,.08,0h0Zm-.07.09h0s-.07.13-.12.17l-.07,0h0s0,0,0-.07l0,0A.32.32,0,0,1,56.83,50.89Zm-.13.24a.18.18,0,0,1,.11-.05h0s0,0,0,0H56.7Zm-.14,1.35h0l-.08,0h0a.19.19,0,0,1,.08,0h0Zm0,.86,0,.07-.07.05-.07,0,0,0,0-.05a.27.27,0,0,1,.09-.06h.08Zm-.16-1.2h.05l-.05,0h-.1ZM56.3,52s.07,0,.09,0h0a.12.12,0,0,1-.08,0Zm0,.62h.09l0,0a.12.12,0,0,1-.08,0h0S56.29,52.61,56.32,52.6Zm.07.21h.09s0,0,0,0h0l-.08,0S56.36,52.83,56.39,52.81Zm.16-.53h-.06l0,0h0l0,0s0,0,0,0S56.55,52.27,56.55,52.28Zm0-.58h0s0,0,0,0l-.05,0h0s0,0,0,0Zm0-.72,0,0h-.08s0,0,0,0h0l0,0h0S56.47,51,56.46,51Zm-.19,4.39h-.08l0,0h0s0,0,0,0h0a.1.1,0,0,1,.07,0h0Zm.27.21s0,0-.07.06a.07.07,0,0,1-.06,0l0,0-.1,0a.32.32,0,0,1,.11-.14l.07,0,0,0Zm0-.92h0s0,0,0,0h0l.05,0h0Zm.11-.07h0s0,0,0,0h0Zm.06,0h0l0,0h0Zm.11.45h0s0,0,0,0h0S56.85,55.08,56.83,55.09Zm-.37-.67-.22,0h-.06s0,0,0,0,0-.09.1-.13l.07,0h.17l0,0a0,0,0,0,0,0,0l0-.06.07,0a.18.18,0,0,1,.2,0l0,0h0s0,0,0,.05h0l0,0A1.15,1.15,0,0,1,56.46,54.42Zm.43,0h0l0,0h0s0,0,0,0h0Zm.07.07h0Zm0-.1v0h0s0,0,.06,0h0Zm.21.16,0,.07s-.08,0-.09,0a.07.07,0,0,1,0-.08.3.3,0,0,1,.08-.08h.06S57.15,54.56,57.14,54.58Zm.08-.61v0h-.08s0,0,0,0h.11Zm0-.28h0l0,0v0h0v0Zm.07.26h0Zm0-1.37h0s0,0,0,0h0a0,0,0,0,1,.06,0h0S57.33,52.57,57.33,52.58Zm.14,1.92h0s0,0,0,0,0,0,0,0h0Zm0-2.62h-.11l.06,0h0s.07,0,.09,0,0,0,0,0Zm.06,0s0,0,0-.06a.15.15,0,0,1,.08-.08h.06a0,0,0,0,0,0,0l0,.07S57.53,51.88,57.52,51.86Zm.12.31h0Zm0-.11h0s0,0,0,0h0l0,0s0,0,0,0h0Zm.17.51h0v0h-.14s0,0,0,0h0s.1,0,.13,0v0Zm0-.42h.06v0h0Zm.13.63h0l0,0h-.08s0,0,0,0H58Zm0-.27h0v0a.6.6,0,0,1,.34-.14l.06,0v0l0,0s0,.07-.07.1l0,0C58.09,52.57,58,52.54,58,52.51Zm.29.5h0v0h0s0,0,0,0Zm.21-.44c-.08.08-.13.09-.14.09h0s0-.07.07-.1.11-.06.13,0,0,0,0,0Zm0-.5h-.07s0,0,0,0h0v0h0s0,0,0,0h0s.07,0,.07,0Zm0-.26.08,0h0s0,0,0,0h0s-.05,0-.06,0h0Zm.2.77a.27.27,0,0,1-.15,0l0,0s0,0,0,0l.1,0h.06l.08,0S58.72,52.56,58.67,52.58Zm.11-.75h-.11s0,0,0,0l0,0,.08,0h0s0,0,0,0Zm.06-.5h0s-.07,0-.08,0h0s0,0,.08,0h0S58.85,51.32,58.84,51.33Zm0-1.95s0,0,0,0a.15.15,0,0,1,.09,0h0s0,0,0,0l-.06,0ZM58.9,51s0,0,0,0H59s0,0,0,0h0l0,0ZM59,51h0s0,0,0,0H59s0,0,0,0Zm.39,1.07-.11,0h0a.31.31,0,0,1-.15.06H59s-.07,0-.06,0h0l0,0S59,52,59.25,52h.07v0s0,0,.06.05Zm.08-.08h0l0,0h0l0,0h.05s0,0,0,0Zm0-.06h0l0,0h.06A.15.15,0,0,1,59.41,52Zm0-.26h.06Zm.27-.12s0,0,0,0h-.07l-.1,0h-.11s0,0,0,0h0a.2.2,0,0,1,.1,0h0l0,0h.12Zm0-.83h-.08s0,0,0,0l.06,0h0l.08,0s0,0,0,0a.09.09,0,0,1-.06,0Zm.1.65h0s0,0,0,0l0,0h0s0,0,0,0Zm.2-.54-.05,0h0s0,0,0,0h0l0,0s0,0,0,0h0a.32.32,0,0,1,.13-.05h0S60,50.84,60,50.85Zm.06-.28.05,0h.08s0,0,0,0h0l-.09,0Zm.14.18h0s0,0,0,0h.06Zm.08-.29h0s0,0,0,0h-.05l0,0h0Zm.13.14v0s0,0,0,0h-.06l.07,0Zm.07-.32h-.07l0,0h0Zm0,0h0s0,0,.06,0l.07,0h0a.19.19,0,0,1-.08,0Zm.17,0h-.08l0,0h0Zm0-.7h0l.08,0h0s0,0,0,0Zm.1-1-.07,0h0l.09,0h0s0,0,0,0h0Zm.08.93h-.06s0,0,0,0h0s0,0,0,0Zm0-1.6a.19.19,0,0,1-.08,0h-.09l0,0h.13Zm0-.08,0,0h0s0,0,0,0,0,0,0,0h0l0,0h0s0,0,0,0h0Zm0-.41h0s0,0,0,0h0s0,0,0,0H60.8Zm.06,1.41h0l0,0h0s0,0,0,0h0l0,0h0l-.07,0Zm.07.11v0H61v0a0,0,0,0,1,0,0h-.07Zm.08.24h0a0,0,0,0,1,0,0h0s0,0,0,0,0,0,0,0Zm.07-.11h0s0,0,0,0Zm.05-.83h0s0,0,0,0a.34.34,0,0,1,.1,0h0v0Zm0-.41h0l0,0h.13s0,0-.08,0S61.14,47.82,61.13,47.81Zm.2,1,0,0h0Zm0-.62h-.06s0,0,0,0h.06Zm.07.75,0,0h0l0,0h-.06s0,0,0,0h0a.2.2,0,0,1,.12,0h0Zm.11-1.07h0s0,0,0,0a.17.17,0,0,1-.07.08h-.06l0,0a.09.09,0,0,1,0-.09l.05,0c.06,0,.1,0,.12,0s0,0,0,0h0Zm0-.16-.07,0h0s0,0,0,0h0l0,0h.08s.06,0,0,0Zm.08-.36,0,0h-.07s0,0,0,0l.07,0h0Zm.09,0h-.06l0,0,.06,0h0v0l0,0Zm.3.37-.12.09-.05,0-.08,0a.1.1,0,0,1,0-.08h0a.46.46,0,0,1,.19-.17l0,0a0,0,0,0,0,0,0Zm-.14-.2h0S61.81,47.55,61.83,47.53Zm.28-.84,0,.05h0a.53.53,0,0,1-.13.11c-.1,0-.16,0-.11-.11a.45.45,0,0,1,.14-.13H62s0,0,0,0a0,0,0,0,1,0,0h0Zm-.22-.22h0l0,0h0ZM62,46l0,0s0,.08-.19.1h-.06a0,0,0,0,1,0-.06l0,0h0l0,0h-.08a.6.6,0,0,1,.21-.21c.09-.06.09-.07.09-.08l0,0a.24.24,0,0,1,.09-.06h0a.43.43,0,0,1,.14-.14h0s.06,0,.07,0a0,0,0,0,1,0,0v0l-.06.07,0,0a.11.11,0,0,0,0,.07s0,0,0,.06l-.06,0-.14.09Zm.33-.66h0S62.35,45.38,62.36,45.37Zm0,.85h0l0,0v0a.47.47,0,0,1,.15-.12c.05,0,.09,0,.11,0v0l0,.05A.51.51,0,0,1,62.31,46.22Zm.11.09h0Zm-.21.13h0s.07,0,.06,0h0l0,0h-.08Zm0,.66h0Zm.09-.05a.28.28,0,0,1-.12.05h0s0,0,.06,0l.08,0h0Zm0-.09a.23.23,0,0,1-.07.08h-.06l0,0a.07.07,0,0,1,0-.09l.05,0c.06,0,.1,0,.12,0S62.37,46.93,62.35,47Zm0-.29h-.05s0,0,0,0h0s0,0,0,0h0l0,0h-.06Zm.07,0h0s0,0,0,0h0l0,0h.09A.28.28,0,0,1,62.41,46.69Zm.24-.47h0l0,0h0a.12.12,0,0,1-.1,0s0,0,0-.05h.14S62.66,46.2,62.65,46.22Zm.08-.31c0,.06-.12.08-.19.1h0l-.06,0s0,0,0-.06,0,0,0,0l.05,0h.08s0,0,0,0h0Zm-.23-.24,0,0h0l0,0h0Zm.2-.46v0l0,0H62.6a.24.24,0,0,1-.1,0s0,0,0,0a.43.43,0,0,1-.19,0h-.08s0,0,0-.05h0a.15.15,0,0,1,.07,0,.38.38,0,0,1,.15,0v0s0-.07.18-.09l0,0S62.69,45.19,62.7,45.21Zm0-.24h0v0s0,0,0,0l-.06,0h.06l-.06,0-.16,0h-.07s0-.07,0-.1l0,0a.59.59,0,0,1,.21,0l0,0h0s0,0,0,0h0Zm0-1.11a.44.44,0,0,1-.2.15h0s0-.07,0-.12l0,0h0l0,0h.08l0,0h0l0,0Zm.06-.47,0,0H62.7s0,0,0,0,0,0,0,0l0-.06c.13-.1.17-.07.19-.06s0,0,0,0l0,0A.25.25,0,0,1,62.81,43.39Zm.1.52h0l.08,0h.11l0,0H63C62.92,43.94,62.89,43.93,62.91,43.91Zm.23.2a.25.25,0,0,1-.1.08l-.1,0a.1.1,0,0,1,0-.11l0,0a.2.2,0,0,1,.09-.05s.06,0,.08,0Zm0-.73H63l.06,0h0l.08,0s0,0,0,0Zm0-.29h0v0h.13v0h-.12Zm.25,1.44h0l-.07,0h0l0,0h-.08l0,0h0v0h0l.1,0h0S63.36,44.53,63.37,44.53Zm.09-.34h0a.14.14,0,0,1-.1,0h0s0,0,0,0h0s0,0,0-.06a.19.19,0,0,1,.09,0c.06,0,.07,0,.07,0Zm0-.12h0l0,0h-.11s0,0,0,0h0s.1,0,.13,0v0Zm.09-.3h0a.37.37,0,0,1-.15.18s-.1.06-.12,0a0,0,0,0,0,0,0h0s0,0,0,0h0a0,0,0,0,1,0,0,.53.53,0,0,1,.14-.11s0,0,0,0h0l.07,0,0,0h.08Zm.06-.61h0l0,0h-.08a.12.12,0,0,1,.05-.08s.07,0,.09,0h0l0,0h.07s0,0,0,.07A.13.13,0,0,1,63.6,43.16Zm.2.09v0l0,0h0s0,0,0,0l.06,0Zm0-.38h-.06a.34.34,0,0,1,.13-.05h0s0,0,0,0Zm.1-.34a.11.11,0,0,1-.07,0h0s-.05,0,0,0l0,0h0l.06,0h0A0,0,0,0,1,63.92,42.53Zm.25-.39h0l0,0h0s0,0,0,0l0,0S64.18,42.13,64.17,42.14Zm0-1,0,0h0l-.11.07h0l0,0v0l0,0a.1.1,0,0,1,0-.08s.09,0,.1,0v0s.06,0,.07,0v0ZM64.26,40h-.09l0,0h0S64.27,40,64.26,40Zm-.08-.47h-.06l-.1.1,0,0h0v0h-.07a0,0,0,0,1,0,0H64c-.07,0-.09,0,0-.13a.63.63,0,0,1,.24-.18l0,0,0,0h.06a.09.09,0,0,1,0,.1A.38.38,0,0,1,64.18,39.56Zm.17,2.08h-.09l0,0h.07Zm.11-.41h0l-.1,0h0a0,0,0,0,1,0,0h0l.09,0Zm-.08-1.1s0,0,0,0h.11a.08.08,0,0,1,0,0h-.09Zm.12.74h0s0,0,0,0a.15.15,0,0,1,.09,0h0s0,0,0,0Zm0-1h-.08s.06,0,.09-.05h0s0,0,0,0S64.56,39.82,64.54,39.83Zm.26-.47h0l-.05,0h-.06l0,0h0S64.8,39.35,64.8,39.36Zm0-.31a.07.07,0,0,1,.09,0l0,0a.25.25,0,0,1-.11.08l-.09,0s0-.07,0-.11l0,0A.25.25,0,0,1,64.78,39.05Zm.27-2.29-.06,0h0l0,0h0Zm-.06.05h0s0,0,0,0h.09A.27.27,0,0,1,65,36.81Zm.07-1.25a.12.12,0,0,0,0-.05l.1-.09h.07s0,0,.07,0,0,0,0,0v0l0,0h0a.3.3,0,0,1-.09.1h0l-.09.05h0s-.09,0-.07-.06Zm-.1.33H65s0,0,0,0H65ZM64.88,37s.08,0,.1,0v0a.36.36,0,0,1-.09.09h-.06S64.84,37,64.88,37Zm-.18-.34,0,0h0s.09,0,.07,0l0,0h0l-.06,0h0Zm-.07,1.68a.39.39,0,0,1-.11.08l0,0h-.07v0s0,0,0,0h0v0l0-.06c.13-.1.17-.07.19-.06a0,0,0,0,0,0,0Zm0-.74h0a.08.08,0,0,1-.06,0h0l.08,0S64.66,37.56,64.65,37.58Zm-.09-7v0h0l-.07.08c-.07,0-.12,0-.09,0l0-.05S64.54,30.52,64.56,30.54Zm-.7-1.71a.2.2,0,0,1,.07-.06.36.36,0,0,1,.13-.11.09.09,0,0,1,.06,0,.13.13,0,0,1,0-.06l0,0a.66.66,0,0,1,.21-.13h.06l.08.09v0a.51.51,0,0,1-.23.16l-.08,0,0,0a.5.5,0,0,1-.15.14.13.13,0,0,1-.12,0h0s0,0,0-.05h0s0,0,0,0Zm.3.22,0,.07-.08.07-.07,0a.07.07,0,0,1,0-.1.3.3,0,0,1,.1-.09h0a0,0,0,0,1,.05,0,0,0,0,0,1,0,0S64.15,29.05,64.16,29.05Zm-.29,1.7.14-.1a.72.72,0,0,0,.19-.14l.08,0s0,.09,0,.14,0,0,0,0l0,.06a.14.14,0,0,0,0,.08h0a0,0,0,0,1,.06,0h0v0a.71.71,0,0,1-.15.15c-.06,0-.1.05-.12,0s0,0,0,0l0,0,0,0c-.06,0-.08,0-.09-.07a.05.05,0,0,0,0,0l-.08,0s0,0,0,0h-.07a.25.25,0,0,1,0-.08v0l0,0c.1-.1.16-.11.2-.11Zm-.5-6.12,0,0,.15-.11.07-.05.07,0s0,0,0,0a.06.06,0,0,1,.07,0l0,.07h0v0s0,0,0,.06l0,0c-.15.11-.27.15-.31.1S63.35,24.67,63.37,24.63Zm0,4.27a.76.76,0,0,1,.09-.09l.08-.07.08,0a.06.06,0,0,1,0,.05h0v0l0,0,.09-.05,0,0h.05l0,.06a.18.18,0,0,1-.09.09v0a.24.24,0,0,1-.14.07h-.08v0a.2.2,0,0,1,0-.1h0a.56.56,0,0,1-.15.08h0v0h0ZM63,22.83h0s0,0,0,0h0Zm0,6.92.06-.06a.36.36,0,0,1,.13-.11l.06,0a.09.09,0,0,1,0-.05l0,0a.57.57,0,0,1,.21-.14h.06l.08.09v0a.44.44,0,0,1-.23.16l-.07,0,0,0a.43.43,0,0,1-.15.15.17.17,0,0,1-.12,0h0a.14.14,0,0,1,0-.06h0Zm0,1.92h0a.08.08,0,0,1,0,.09h0l0,.06a.25.25,0,0,1-.14.08s0,0,0,0h-.07a.22.22,0,0,1,0-.08v0l0,0c.1-.1.16-.11.2-.11Zm-.1-9.23h0l0,0h-.08S62.86,22.46,62.89,22.44Zm-.21-1.39a.06.06,0,0,1,.07,0h0l0,.05,0,0a.47.47,0,0,1-.13.11h0l-.05,0s0,0,0,0a.26.26,0,0,1,.13-.15Zm-.15.68h-.05l0,0h.08S62.55,21.72,62.53,21.73Zm0,1.23v0h-.05s0,0,0,0h.08Zm0-2.72,0,0h0Zm-.07.4h-.05S62.44,20.64,62.46,20.64Zm-.1,2.84h0s0,0,0,0h0s.11,0,.14,0v0a.51.51,0,0,1-.21.18h-.06c0-.06,0-.07,0-.08l-.08,0,.06-.08h0A.23.23,0,0,1,62.36,23.48Zm-.15-3.32h.09l0,0h0s0,0,0,0h0Zm0-.1h0Zm0,.23h0l-.08,0h0s0,0,0,0h.1Zm0-.56h.06s0,0,0,0h-.07Zm-.07.21h0s0,0,0,0h-.07S62.15,20,62.19,19.94Zm0-.1H62.1v0h0l.08,0S62.18,19.82,62.17,19.84Zm-.2-.33h0s0,0,0,0h.08s.06,0,.06,0l0,0h0l-.11,0h0Zm0,.28h.13l0,0h0l-.09,0h0Zm0,1.31.07,0,.07,0h.06l0,0s0,0,0,.09l0,0a.3.3,0,0,1-.19.09h-.09s0-.07,0-.09h0Zm-.13,2.7s0,0-.06,0h0l0,0h.09v0l0,0Zm0,.21s0,.1-.15.2h0s-.07,0-.08,0l0,0,0-.06a.58.58,0,0,1,.21-.13h0l-.05,0Zm-1,.21h.06s0,0,0,0a0,0,0,0,0,0,0h0s0,0,0,0h0Zm-.25-3.64,0,0a.05.05,0,0,1,0,0h0s0,0,0,0l0,0h.05Zm0,.22h0Zm-.21-1.56h0l0,0h0s0,0,0,0Zm-.05-.14h0l0,0h0v0H60.3Zm.06-.16-.09,0h0a.15.15,0,0,1,.08,0h0Zm-.13,3.71s0,0,0,0h-.05s0,0,0,0h0l.06,0s0,0,0,0h0Zm-.32-1.12,0,0,0-.05a.56.56,0,0,1,.07-.13l.05,0,0,0s0,0,.05,0l.07,0h0l0,.06,0,.05-.07.07A.44.44,0,0,1,59.91,21.53Zm.12,0H60v0a.08.08,0,0,1,.07,0Zm-.32-.22a.3.3,0,0,1,.08-.08l.06,0h0s0,0,0,.06l-.08.08-.07,0h0S59.7,21.36,59.71,21.34Zm0-1v0h0a0,0,0,0,1,0,0h0s0,0,0,0h0v0h-.08Zm.16-.07-.08,0v0a.43.43,0,0,0,0-.05h0l-.07,0h0a0,0,0,0,1,0,0l.08,0h0v0l0,0a.62.62,0,0,1,.24-.15h.06s0,.09-.08.13l0,.05-.07.07h0S59.87,20.26,59.84,20.29Zm-.19.31-.09,0h-.05a.2.2,0,0,1,.13,0h0s0,0,0,0h0Zm-.2-.63s0,0,0,0h0l.1,0h0A.19.19,0,0,1,59.45,20Zm0,.53v0h-.05a0,0,0,0,1,0,0h.06Zm-.11-.35h0a0,0,0,0,1,0,0s0,0,0,0a.07.07,0,0,1,.06,0h0s0,0,0,0h0Zm-.1-.06h0s0,0,0,0a.18.18,0,0,1-.09,0v0l0,0-.06,0s0-.06.06-.12l0,0,0,0,.07,0h.06l0,0h0Zm0,.08h0l-.05,0h0s0,0,0,0l0,0h0A0,0,0,0,1,59.22,20.17Zm-.33-1h0s0,0,0,0h0Zm-.09-.31h0l0,0h0Zm0,.59h0l0,0h0a.05.05,0,0,1,0,0h0Zm0-.81h-.13a0,0,0,0,1,0,0h.12a0,0,0,0,1,0,0Zm-1.26-1.34,0,0,.08,0h0v0h-.1s0,0,0,0h0Zm-.53-1.5-.08,0h0s0,0,0,0l.08,0h0Zm-.51-.37h0l0,0,0,0s.08,0,.06,0h0l0,0Zm.05.62s-.06,0,0,0ZM56.42,14h0l0,0h0Zm-.48,1.12,0,0H56l0,0h-.07l0,0h0Zm0-.51h0l-.07,0h-.11l0,0h0s0,0,.1,0h0v0h0s.06,0,.1,0h0s0,0,0,0A.11.11,0,0,1,56,14.57Zm-.56-1,0,0h.1l0,0h-.15S55.37,13.56,55.39,13.55Zm0-1.59,0,0s0,0,0,0h0l0,0h0S55.37,12,55.38,12Zm.31-.35h0Zm.07,1.21h0s0,0,0,0h0l-.11,0h0A.23.23,0,0,1,55.76,12.82Zm.63.36h0a.16.16,0,0,1-.08,0h-.05l.07,0Zm0-.19h.07l0,0h0Zm0,.61h0s0,0,0,0Zm0-.46v0h0l-.09,0s0,0,0,0l.08,0Zm-.14.24h0l0,0,0,0h-.07l0,0h0Zm-.29.37,0,0s0,0,0,0l-.06.07c-.07,0-.1,0-.06-.08a.2.2,0,0,1,.09-.09H56l0,.05,0,0,.07,0h.12l0,0h-.06l-.09,0h0Zm0,.54s0,0,0,0h0Zm.07-.94,0,0h.1l0,0h-.11Zm.21-.34h0l0,0h0l-.09,0h0l-.06,0h0s0,0,0,0h0L56,13h.18Zm-.26-.7h0l0,0h0s0,0,0,0h.08s0,0,0,0Zm-.06.57s0,0,0,0a.07.07,0,0,1-.06,0s0,0,0,0h0l0,0h0S55.82,12.87,55.83,12.88Zm-.07.91H55.7a0,0,0,0,1,0,0l0,0h0s0,0,0,0S55.78,13.78,55.76,13.79Zm0,.6,0,0h0Zm-.24-1.57h0s0,0,0,0h0Zm0,1h.06s0,0,0,0l-.06,0-.09,0h0v0Zm0-.24,0,0h0s0,0,0,0l0,0h0S55.57,13.55,55.58,13.54Zm.08-.38h-.08s0,0,0,0l0,0,.09,0h0s0,0,0,0h-.05Zm0-.95s0,0-.08,0h0s0,0,0,0l0,0h.09S55.67,12.2,55.66,12.21Zm0,.39s0,0,0,0h0a.26.26,0,0,1-.11,0h0l0,0,0,0h.08Zm-.27,2h0s0,0,0,0h-.09Zm0-.21h0s0,0,0,0h0l0,0h.05Zm0-.26h.07l0,0S55.42,14.17,55.43,14.15Zm0-.09s-.06,0-.07,0l.05-.08c.07-.05.1,0,.12,0h0l0,.06Zm.07-.14h0l0,0h.06l0,0h0Zm.05.9,0,0s0,0,0,0h-.08Zm.08-1.21h0v0l0,0h0s0,0,0,0h0l0,0h.07l0,0Zm0,1,0,0h0s0,0,0,0h0Zm.34-.27h0l.05,0s0,0,0,0l0,0h0Zm.21.63h0a0,0,0,0,1,0,0Zm0-.69h0Zm0,.22h0s0,0,0,0l0,0h-.08Zm-.11.89s0,0,0,0l0,0h0s-.05,0,0,0h.06Zm0-.68h0v0h0s0,0,0,0h-.07Zm.08.79.08,0h0l-.08,0h0Zm0,.23s0,0,.05,0h.06s0,0,0,0h-.12Zm.11-1.81h-.15s0,0,.06,0l0,0h.06l0,0h0Zm0-.58h0s0,0,0,0h0Zm.06-.05h0l.08,0h.08l0,0h0l0,0h0s0,0,0,0h0l-.09,0h0Zm.33.21a.12.12,0,0,1,.08-.05h.1v0h0s0,0,0,0h0a.37.37,0,0,1-.15,0h0Zm.11.17h.09l0,0h0a.07.07,0,0,1-.05,0h0S56.79,13.68,56.81,13.67Zm.09.16H57l0,0H56.9Zm.13.08a.2.2,0,0,1-.07,0h0l.07,0h0Zm0,.9s0,0,0,0h0Zm-.12.07.11,0h0s0,0,0,0h0l0,0h0c-.05,0-.06,0-.06,0h0Zm.13.21h0l-.07,0h0A.14.14,0,0,1,57.06,15.09Zm0-1.54s0,0,0-.05l.08,0h0v0h0ZM57,13.12h0a.17.17,0,0,1,.12-.06h0s0,0,0,0h0Zm0,.62s0,0,0,0h0s-.05,0,0,0l0,0Zm-.1,0s0,0,0,0h-.1s-.07,0-.06,0h0a.32.32,0,0,1,.13,0Zm-.06,1.48h0a.08.08,0,0,1-.06,0h0a.08.08,0,0,1,.06,0ZM56.7,15h0l.07,0h0s0,0,0,0h0l-.09,0s0,0,0,0h0Zm0-.15s0,0,0,0h-.1l0,0Zm-.16-.62h0a0,0,0,0,1,0-.05l0,0h0l0,0h0l0,0A.09.09,0,0,1,56.54,14.21Zm0,.74h0l0,0h0S56.57,15,56.57,15Zm0-1.39h-.06l.07,0h0Zm-.15.31h0s0,0,0,0l0,0h0s0,0,0,0Zm0,.78h0Zm0,.89,0,0h.05s0,0,0,0h0a.1.1,0,0,1-.07,0h0S56.46,15.55,56.47,15.54Zm.23.44h-.05Zm0-.38-.05,0v0l.07,0h0Zm.08.73h0l0,0h0Zm0,.07s0,0,0,0h-.09l0,0h.06Zm0-.71h-.05v0h0l0,0h.1A.14.14,0,0,1,56.78,15.69Zm.1-.71h0s0,0,.05,0l.08,0h0s0,0,0,0l0,0h0Zm.07.43H57s0,0,0,0H57S56.94,15.42,57,15.41Zm0,.87H57l-.08,0h0S56.93,16.3,57,16.28Zm0-1h.1A.14.14,0,0,1,57,15.33Zm.09-.31h0l0,0h.06s0,0,0,0h0l0,0Zm.06-1.41h0a0,0,0,0,1,0,0h.06A.19.19,0,0,1,57.14,13.61Zm0,0s.05,0,.07,0h.07l-.1,0h0Zm.14-.09h.13l0,0h-.13Zm0-.39s0,0,0,0,0,0,.11-.05h0s0,0,0,0v0h0l-.06,0h-.05Zm.68.38,0,0,0,0v0h0a.08.08,0,0,1-.08,0h0l0,0h0ZM58,15.2h0a.1.1,0,0,1,.07,0h0a0,0,0,0,1,0,0h0l-.09,0s0,0,0,0h0Zm.28-1h0v0l.05,0h0s0,.05,0,.08a.16.16,0,0,1-.07.07h0s0-.07,0-.09v0Zm.22,1.23h0l0,0h-.07a.17.17,0,0,1,.11-.06h0Zm0,.32h0s0,0,0,0h-.08l0,0h-.1v0l.05,0h0l0,0h0Zm.17-1.09h0l-.07,0h0Zm0,0h0l0,0h0v0h-.05Zm0,1.89h0v0h0a.15.15,0,0,1,.08,0h0s0,0,0,0h0s-.07,0-.11.06h0Zm-.24.57s-.11,0-.09,0a.16.16,0,0,1,.07-.07s.1,0,.11,0,0,0,0,0A.19.19,0,0,1,58.44,17Zm.07.15h0l-.09,0h0l0,0h0S58.53,17.15,58.51,17.18ZM58.06,16h.08l-.08,0h0l0,0Zm.07-.37a.21.21,0,0,1,.1-.06s0,0,0,0h0l-.08,0h-.06S58.11,15.62,58.13,15.61Zm.15-.26.08,0h0l-.06,0Zm.22.57h0l0,0h.07l0,0h0S58.49,15.93,58.5,15.92Zm0,.13h.07s0,0,0,0h-.09Zm.09-.25h0s0,0,0,0h0l.07,0h0A.2.2,0,0,1,58.64,15.8Zm.11-.36,0,0h-.13l0,0h.13Zm-.14-.15h0s0,0,0,0l0,0h.06Zm-.17-.07h-.07v0h0s0,0,0,0,0,0,0,0Zm-.19-.74,0,0h0v0h0l0,0h0c-.06,0-.07,0,0,0l0,0Zm0,.25h0l-.07,0h0v0h.08Zm-.06.42h.09s0,0,0,0h-.11Zm0,.22h0a.09.09,0,0,1-.06,0h0s0,0,0,0l0,0Zm-.09.12h0l-.06,0v0l.07,0Zm0-1.47L58,14h0l.06,0h.06Zm0,.65,0,0H58s0,0,0,0h.05S58.12,14.66,58.11,14.67Zm-.1,1h.09l0,0H58v0Zm0-.33h0l0,0h0v0H58s0,0,0,0Zm-.13,1.3h0l0,0h0a0,0,0,0,1-.05,0h0l0,0,.09,0v0Zm-.27.25h-.07s0,0,0,0h0s0,0,0,0h0Zm-.19-2.49h0l0,0h0a.2.2,0,0,1-.07,0Zm0,.61a.09.09,0,0,1-.06,0h0s0,0,0,0l0,0h.06Zm0-.37h0a0,0,0,0,1,0,0h0A0,0,0,0,1,57.39,14.65Zm0,.1.1,0h0l0,0h-.08Zm.2.87h0a.07.07,0,0,1-.06,0h0a.07.07,0,0,1,.06,0Zm0-.31h0s0,0,0,0h0l-.09,0s0,0,0,0l0,0h0a.09.09,0,0,1,.07,0Zm0-1.15h0l.05,0h0s0,0,0,0l0,0Zm-.09,1.05h0l0,0h0s0,0,0,0h0Zm0,.51.08,0h0v0l-.08,0h0Zm.06.61s0,0,0,0h-.07A.05.05,0,0,1,57.52,16.33Zm0,.11h0s.09,0,.11,0h0l0,0Zm.07-.2h0s0,0,0,0h0s0,0,0,0h0v0s0,0,0,0h0s0,0,0,0h-.08Zm0-2.18h0l0,0h.08A.2.2,0,0,1,57.64,14.06Zm0-.48h-.08l0,0h0l0,0h0l.1,0h0v0h0l-.07,0h0Zm.19.45h0l0,0h-.08s0,0,0,0h.1Zm.09.34s0,0,0,0,0,0,0,0h0s0,0,0,0h.07Zm0-.69,0,0h0s.06,0,0,0h-.09Zm-.09,2h0a0,0,0,0,1,0,0h0Zm0-.38h-.07s0,0,.05-.05h.09s0,0,0,0l0,0h0Zm-.06-.15s0,0,0,0h0l.06,0H57.7Zm.15-.9a.14.14,0,0,1-.07,0h0l.06,0h0Zm-.08,2.27h.14l-.07,0Zm.11-.07h0c-.05,0-.07,0-.05,0h.11Zm-.06-1h0l.08,0h0Zm.08-2.11h-.1l0,0h.08Zm-.1.06.06,0h0v0l0,0H57.8Zm0,0h0l0,0a.29.29,0,0,1-.1,0h0l.07,0,0,0h.06Zm-.12,0h0l-.09,0h0s.05,0,.08,0h0Zm-.07.35h.09a.38.38,0,0,1-.15,0h0Zm0,.57h0a.15.15,0,0,1-.1.05H57.4l.08,0Zm-.07-.92h0s0,0,0,0h0a0,0,0,0,1,0,0Zm0,.67h0s0,0,0,0h0l0,0h0c-.06,0-.08,0-.05,0h.11Zm-.25,2.76h0c.06,0,.06,0,.06,0h0l-.08,0h0s0,0,0,0Zm0-.68h0Zm.08.52h.09s0,0,0,0,0,0-.05,0h-.08S57.33,16.73,57.35,16.72Zm.12.63h0s.06,0,.06,0h0l0,0h-.06S57.43,17.37,57.47,17.35Zm0-.1h.08Zm.06-.47h0s0,0,0,0h0Zm0,.26v0h.12l0,0,0,0h-.08Zm.14.71h0l-.1,0s0,0,0,0l0,0h.06Zm0-.58h0S57.75,17.18,57.75,17.17Zm0,0v0h0l0,0h0s.07,0,0,0h-.13Zm.09.51h0S57.79,17.66,57.82,17.65Zm0,0h.06s0,0,0,0l0,0Zm.07-1.53h0a0,0,0,0,1,0,0h0a.15.15,0,0,1,.08,0h0s0,0,0,0h0Zm.12.09H58l0,0S58,16.2,58,16.21Zm0,.26h0l0,0h0s0,0,0,0h-.06A.09.09,0,0,1,58,16.47Zm0,.84H58v0h0s0,0,0,0Zm0-.19h0l0,0h0s0,0,0,0h0A.21.21,0,0,1,58,17.12Zm.06-.47h0l0,0,0,0h0s0,0,0,0h0l0,0Zm0,1h0a.1.1,0,0,1,.07,0h0l0,0h-.07Zm.13.92h0s0,0,0,0l0,0h0Zm0-1s0,0,0,0h0s.05,0,.05,0h0a0,0,0,0,0,0,0h0l0,0h-.12Zm.06.54,0,0,.1-.06h0s0,0,.05,0,0,0,0,0l0,0,0,0h0s0,0,0,0a.07.07,0,0,1-.06,0h0l0,0c-.05,0-.06,0-.07,0S58.29,18.1,58.31,18.06Zm.21,0h0l-.07,0a.11.11,0,0,1-.08,0h0a.19.19,0,0,1,.1,0h0l0,0Zm-.08.51h.07s0,0,0,0a.33.33,0,0,1-.12.05s-.07,0-.06,0Zm.05-.45h0l0,0h.05Zm.07-.29,0,0h0v0h-.05l0,0h0s0,0,0,0h0l.07,0,.06,0v0Zm0-1.07h0a.06.06,0,0,1,0,0h.06a.09.09,0,0,1,.06,0h0l0,0h0l-.07,0A0,0,0,0,1,58.56,16.8Zm0,.07h.14a.11.11,0,0,1-.07,0h-.07Zm.16,1.05h0l0,0h0a.09.09,0,0,1,.05,0Zm-.11.08h0l-.06,0S58.61,18,58.64,18Zm0,.78h0S58.65,18.79,58.68,18.78Zm.17-1.56h.09a0,0,0,0,1,0,0h-.07Zm.22-1.3,0,0s0,0,0,0h0Zm.69,1.55h.07l0,0h0Zm-.06,0h0l0,0h0s.07,0,.06,0h0Zm.18-.32H60l-.06,0S59.84,17.14,59.88,17.11Zm0-.49h0s0,0,0,0h0c.05,0,.07,0,.07,0h0l-.06,0Zm.45,1.61h0l0,0h0l0,0h-.11l0,0,.07,0Zm0-.38,0,0c.08,0,.12-.06.14,0a.21.21,0,0,1,0,.13l0,0c-.05,0-.1,0-.12,0S60.31,17.9,60.36,17.85Zm0-.79,0,0h.06a0,0,0,0,1,0,0h-.08ZM61,19.69s0,0,0,0h0c.05,0,.05,0,.05,0h0s0,0,0,0H61Zm-.34-1.82h-.07l0,0h0Zm.08,0h0s0,0,0,0,0,0,0,0h-.07S60.71,17.85,60.72,17.85Zm0,.4h.05s0,0,0,0h-.09Zm0,.09h0s0,0,0,0h0A0,0,0,0,1,60.72,18.34Zm0,.32h.09l0,0h-.09S60.67,18.67,60.69,18.66Zm.1-.17h.05s0,0,0,0l0,0h-.07s0,0,0,0Zm0,0h0l0,0c.05,0,.07,0,.05,0h0l0,0C60.76,18.48,60.76,18.46,60.77,18.45Zm.06.31s0,0,0,0h0l0,0s0,0,0,0h-.07Zm-.06-.13h0l0,0h.08l0,0Zm-.05.12s0,0,0,0h-.06s0,0,0,0Zm0,.12h0a0,0,0,0,1,0,0s0,0,0,0h-.07Zm.09.11h-.06S60.75,19,60.77,19Zm0,.15h.06s0,0,0,0l0,0h0Zm.05-.16h0s0,0,0,0h.08v0h0Zm.15.49,0,0h0s0,0,0,0h0l0,0h0a.2.2,0,0,1-.1,0h0A.15.15,0,0,1,61,19.46Zm-.07-.25H61l0,0a.11.11,0,0,1-.06,0Zm.07.32h0l0,0H61s0,0,0,0,0,0,0,0Zm0,.3h0Zm-.08-.11h0s0,0,0,0h0l-.06,0S60.85,19.73,60.89,19.72Zm0,.35H61l0,0h0l-.07,0h0s0,0,0,0h0ZM61,20l-.05,0h0A.2.2,0,0,1,61,20h0Zm.12-.53H61l0,0h0Zm0-.18h0a0,0,0,0,1,0,0h.07s0,0,0,0Zm0-1.34h0S61.07,18,61.06,18Zm-.1.15.06,0h0l0,0h-.06S61,18.14,61,18.14Zm0,.92,0,0h0s0,0,0,0H61Zm-.07.08H61s0,0,0,0H61s0,0,0,0h0Zm0-.05h0Zm0-.43h0a0,0,0,0,1,0,0Zm0-.43a.16.16,0,0,1-.09,0h0s0,0,0,0,.07,0,.08,0Zm-.09-.1h0l-.08,0h0l.05,0h.07Zm0-.6a.19.19,0,0,1-.1,0h0l0,0h.06Zm-.1.06h-.15l0,0h.08l0,0Zm-.22.92h-.23l.11,0h.19s0,0,0,0h0A.15.15,0,0,1,60.45,18.51Zm.08.2,0,0h0s0,0,0,0h-.07l0,0s0,0,0,0h.05A0,0,0,0,1,60.53,18.71Zm-.27-.24H60.2v0l0,0h0s0,0,0,0h0Zm.06.12h0S60.33,18.58,60.32,18.59Zm.19-.31h0l0,0,0,0h-.07l0,0h0l0,0h0s0,0,0,0h.08Zm0-.54h0l0,0s0,0,0,0Zm-.34.27h0l.06,0h0s0,0,0,0l0,0h-.06Zm.09-.23h0s0,0,0,0Zm0-.12a.34.34,0,0,1-.1,0h0l0,0h.07Zm-.11.06h.09v0h-.12s0,0,0,0Zm0,.77h0s0,0,.06,0h0a0,0,0,0,1,0,0h-.08s0,0,0,0h0Zm0,2-.09,0H60v0h0a.5.5,0,0,1,.13,0h0s0,0,0,0h0Zm-.05.42H60a0,0,0,0,1,0,0h0Zm0-1.11s0,0,0-.05h0l0-.06s.11-.06.12,0,0,0,0,.06,0,.05-.08.08Zm-.31-.31h-.05s0,0,0,0h0l0,0-.06,0h-.07s0-.06.11-.15l.06,0h0a0,0,0,0,1,0,.05h0s0,0,0,0h0l0,0Zm-.11.19h0a.1.1,0,0,1-.07,0v0h0S59.66,19.66,59.66,19.67Zm-.43-.28h0l0,0h0Zm-.2.4s0,0,0,0h0l0,0s0,0,0,0H59Zm.06-.68H59l0,0h0a.16.16,0,0,1,.1,0h0Zm.31-2.78s0,0,0,0a.13.13,0,0,1,.08,0h0s0,0,0,0,0,0,0,0h-.07s0,0,0,0h0Zm.19,2h0s0,0,0,0h0l0,0h0v0a0,0,0,0,1,.06,0h0Zm.17.8s0,0,0,0h0c-.05,0-.05,0-.05,0h0Zm0-.39h0s.05,0,.06,0,0,0,0,0h0s-.06,0-.07,0Zm0,.52h0s0,0,0,0h.05l0,0h0Zm0-.67-.06,0a0,0,0,0,1,0,0h0l0,0Zm0-.15h-.11a.07.07,0,0,1-.05,0v0h0s0,0,0,0h.06s0,0,0,0h0a0,0,0,0,1,0,0h0Zm-.21.54.09,0h-.09Zm.07-.24h0s0,0,0,0h0Zm-.14-.27a0,0,0,0,1,.06,0h0v0h0a0,0,0,0,1,0,0h0Zm0,0,0,0h0v0h0s0,0,0,0h0l-.08,0h0Zm0-.78h0a.07.07,0,0,1,.06,0h0s0,0,0,0l0,0h-.08Zm.24.92h-.08s0,0,.07-.05h0s0,0,0,0Zm-.08-.69h0v0h0a.16.16,0,0,1-.09,0h0l0,0Zm0-.52h0l0,0h-.09s0,0,0,0h.12Zm-.12.16h0l-.09,0h0l0,0h0S59.35,17.5,59.34,17.53Zm-.08.88h0a0,0,0,0,1,0,0Zm0,.41h0s0,0,0,0h0Zm0-.57h-.1s0,0,0,0h-.21v0h0l.11,0h.07s0,0,0,0h0l.07,0h0s0,0,0,0Zm-.11.21h.07s0,0,0,0h0S59.14,18.47,59.15,18.46Zm0,0h0ZM59,18.21h0s-.06,0-.09,0h0l0,0h0A.09.09,0,0,1,59,18.21Zm-.07-.65h0l0,0h0l0,0h0Zm0,.89H59a0,0,0,0,1,0,0v0h0s0,0,0,0Zm-.06-.06H59s0,0,0,0h-.11Zm.21-.52h.05l-.06,0S59.09,17.88,59.12,17.87Zm0,0s0,0,0,0h0Zm0,.17h0s0,0,0,0h0s0,0,0,0h0a.06.06,0,0,1-.05,0v0h0ZM59.2,17h-.05l.05,0h0Zm0-.25h0v0h0l-.06,0s-.07,0,0,0h0l0,0h0l.07,0h0l0,0ZM59,18h.06v0H59S59,18,59,18Zm0-.49,0,0h0v0H59v0Zm0-.1,0,0h-.07l0,0H59Zm0,.49h0l-.07,0H58.8a.17.17,0,0,1,.11,0Zm0,1.19,0,0h0s0,0,0,0l0,0H58.9ZM59,19s0,0,0-.05l.07,0h0s0,0,0,0H59Zm.11-.28-.09,0h0s0,0,0,0h0l.07,0h0Zm.13.91h-.07l0,0h0Zm0,.06h-.07l0,0h0A0,0,0,0,1,59.19,19.69Zm0-1h0l0,0h.08s0,0,0,0Zm.14.52h-.07l.06,0h0Zm0-.17h-.06l0,0,0,0h0Zm0-.41a0,0,0,0,1,0,0l0,0h.11a0,0,0,0,1,0,0h-.06Zm.07.27,0,0h0s0,0,0,0l0,0h-.06Zm0-.08s0,0,0-.05h.07v0h-.1Zm0,.88h.07s0,0,0,0h0l0,0h0Zm.32-.66h0l0,0h0l.08,0h0l0,0Zm.05-.37v0h.08s0,0,0,0h0s0,0-.06,0Zm.09.14h0Zm0-.26h-.2a0,0,0,0,1-.06,0h0s0,0,0,0h0l.11,0H60l.07,0h0s0,0,0,0v0H60Zm-.19-.39h0s0,0,0,0h-.09S59.78,18.21,59.79,18.21Zm0-.31h.06s0,0,0,0l0,0h0Zm.13.53s0,0,0,0h0v0H60s0,0,0,0h0s0,0,0,0h0l-.05,0h0Zm0-.15h0a.07.07,0,0,1,0,0h.08l0,0Zm0-1.05s0,0,0,0h0v0Zm0,1.11,0,0h0l0,0h0Zm0,.09h0v0a.08.08,0,0,1-.08,0h0s0,0,0,0v0a.08.08,0,0,1,.07,0Zm.16.31h0Zm.08-.11,0,0h0s0,0,0,0h0v0H60.1Zm0,.77h0l0,0h-.06l0,0Zm0-.27h0a.14.14,0,0,1,.08,0h0s0,0,0,0l0,0h-.08Zm-.07.49.05,0,0,0a0,0,0,0,1,0,0,.06.06,0,0,1,0,0h0s0,0,0,0h0a0,0,0,0,1,0,0H60Zm.15-.43s0,0,0,0h0Zm0-.28h-.07l0,0h0Zm-.09,0h0a.08.08,0,0,1,.06,0Zm0-.14s0,0,0,0h.05s0,0,0,0h-.06Zm0-.32H60l0,0h0a0,0,0,0,1,.06,0Zm0-.52-.1,0s0,0,0,0l0,0s.08,0,.09,0Zm0-.57H60l0,0H60Zm-.15.58h0s0,0,0,0l0,0h-.07A.05.05,0,0,1,59.87,17.9Zm-.09-.16h0s0,0,0,0h-.07l0,0Zm-.07.16h0a.07.07,0,0,1,0,0h-.06l0,0Zm-.07-.18,0,0s0,0-.06,0,0,0,0,0h.07Zm-.07-1.93,0,0h-.13l0,0h.13Zm-.15.2,0,0h.06l0,0h0Zm0,1.32h.07a.19.19,0,0,1-.1,0h0Zm-.07-.95h-.09s0,0,0,0h0c.06,0,.06,0,.06,0Zm-.12,0h0s0,0,0,0h0a.15.15,0,0,1,.08,0h0s0,0,0,0Zm0,.31h0l0,0h0s-.07,0,0,0h.11ZM59,16.43l0,0a0,0,0,0,1,0,0H59l0,0h0Zm0,1s0,0,0,0h0a0,0,0,0,1,0,0H59s0,0,0,0Zm0-1.19s0,0,0,0h0l0,0s0,0,0,0Zm-.11,1.25h0a0,0,0,0,1,0,0H58.8s0,0,0,0,0,0,0,0Zm.05,2.29s0,0,0,0h0s0,0,0,0Zm0,.17a.18.18,0,0,1,.1,0h0a0,0,0,0,1,0,0h0a.15.15,0,0,1-.11,0h0Zm.33.06h0s0,0,0,0l0,0h.06a.08.08,0,0,1,0,0Zm.09-.91h0s0,0,0,0h0Zm.24.73h0a.1.1,0,0,1,.07,0h0l0,0Zm0,.15.06,0h0a.2.2,0,0,1-.07,0h0ZM60,21.14h0a0,0,0,0,1,0,0h0S60,21.14,60,21.14Zm.22-2.32h0s0,0,0,0l0,0h0a.05.05,0,0,1,0,0Zm.27.16h0a.09.09,0,0,1,.06,0h0l-.08,0s-.05,0,0,0Zm.09.93a.18.18,0,0,1-.11,0h0a.21.21,0,0,1,.08-.05h0s0,0,0,0h0Zm0,.2v0h-.08s0,0,0,0h.08Zm0-.62h0l0,0h0Zm-.13.68a.1.1,0,0,1,.07,0h0l0,0h0Zm.17-.86h-.06l0,0,0,0h0v0Zm0,2a.55.55,0,0,1,.13-.14h0s.06,0,.08,0l0,0,0,.06c-.1.08-.18.13-.24.07Zm.21-.93v-.05s0-.09.1-.17h0s.09,0,.11,0v0a.08.08,0,0,0,0,0l0,.05A.32.32,0,0,1,60.85,20.42Zm.42-2h.08l0,0-.07,0h0Zm0-.33,0,0h.08l-.09,0S61.24,18.14,61.25,18.13Zm.3,1.25h0l0,0h0Zm0-1.12h0Zm.05,1h0a0,0,0,0,1,0,0h0l0,0h0Zm0-.06h0s0,0,0,0h0s0,0,0,0A0,0,0,0,1,61.56,19.22Zm.09.24h.05s0,0,0,0h0s0,0,0,0l0,0h0Zm0-.45h0l0,0h.05l0,0h-.05Zm.21.8,0,0h0l0,0,0,0h0l0,0h-.11v0h.26Zm-.1,1.44h0s0,0-.06,0h0l0,0s0,0,0,0h0S61.79,21.23,61.77,21.25Zm0,2.19a0,0,0,0,1,0,0h0s0,0,0,0h.05Zm-.14-2.31s0,0-.07,0h0l0,0h0a.07.07,0,0,1,0,0Zm0-.67s0,0,0,0h0s0,0,0,0h.09v0h0l-.08,0Zm.07-.39h0s0,0,0,0h0l-.06,0S61.67,20.08,61.71,20.07Zm0-.17h0l0,0h-.05Zm.08,0h.07s0,0,0,0l0,0h0Zm-.05.32h0Zm.06.18s0,0,0,0h0Zm.07-.23-.12,0h0a.14.14,0,0,1,.08,0h0s0,0,0,0h0Zm-.29,2.49h0v0a0,0,0,0,0,0,0s0,0,0,0h-.07s0-.05,0-.07h.08Zm-.44.22v0l.07-.07h0l0,0v0l.06-.08s.09,0,.12,0h0v0a.27.27,0,0,1-.09.1.28.28,0,0,1-.11.07h0A0,0,0,0,1,61.12,22.85Zm.07-4,0,0h0s0,0,0,0l0,0h-.12s0,0,0,0h0v0a0,0,0,0,1,0,0h0Zm0,.3v0h.09s.07,0,.07,0l0,0h0a.21.21,0,0,1-.11,0Zm.31.65h0l0,0s0,0,0,0h0l0,0h.06l0,0Zm-.07.43h0a.45.45,0,0,1-.11,0h0a.21.21,0,0,1,.08-.05h0S61.4,20.24,61.39,20.25Zm0,.21v0h0s0,0,0,0,0,0,0,0l0,0h.05Zm-.14-.92h0s0,0,0,0h0l0,0h0a.19.19,0,0,1,.08,0s.06,0,.05,0h0l0,0h0Zm.11-.2-.07,0s-.06,0,0,0l0,0h.08Zm-.18.25h0l0,0h0s0,0,0,0Zm.06,1.61h0a.05.05,0,0,1,0,0h0s0,0,0,0h.08Zm0-.57h-.08a.06.06,0,0,1,0,0l0,0Zm.17,3.08a0,0,0,0,1,0,0h-.05v0h0Zm-.1.34h.09l0,0a.57.57,0,0,1-.11.1s0,0-.06.06h-.07S61.14,24.15,61.28,24.05Zm.07-1.8-.05,0-.07,0s0-.06,0-.1v0l.09-.08h0l0-.07a.16.16,0,0,1,.07-.07h0s0,0,0,.05l.07,0,0,0s0,0,0,0,0,.05,0,.09l0,0,0,.05A.61.61,0,0,1,61.35,22.25Zm.13-.4h0s0,0,0,0,0,0,0,0h0s0,0,0,0h0Zm0,1.25a.06.06,0,0,1,0,0h0s0,0,0,0h0Zm0-3.75h-.07a.1.1,0,0,1,.07,0h0s0,0,0,0Zm-.05-.26a.08.08,0,0,1,0,0h0a.08.08,0,0,1,.06,0Zm0-.13h-.08v0h.07Zm-.13,0h0l.09,0h0s0,0,0,0Zm0-.29h0c.06,0,.05,0,.05,0l0,0h-.07S61.22,18.66,61.24,18.65Zm0-.51h-.09l.05,0h0s0,0,0,0S61.22,18.13,61.21,18.14Zm-.07,2.09.07,0s0,.09-.08.19l0,0c-.05,0-.05,0-.06,0h0s0,0,0,0a.17.17,0,0,1,.06-.06,0,0,0,0,0,0,0h0l.05-.08Zm-.13.22.07,0h0l0,0H61S61,20.46,61,20.45Zm.1,4.78h0l0-.08.07,0,.07,0h.06l0,0a.06.06,0,0,1,0,.08l0,0a.33.33,0,0,1-.2.09h-.09S61.09,25.25,61.11,25.23Zm.27-.65-.08,0,.06-.09h0l.09-.06h.05s0,0,0,0,0,0,0,0,.11,0,.14,0v.05a.51.51,0,0,1-.21.18h-.06C61.43,24.6,61.42,24.59,61.38,24.58Zm.55-5.16s0,0,0,0h0l-.09,0h-.07l0,0a.4.4,0,0,1,.12,0Zm-.1-.22h0a.11.11,0,0,1-.07,0s-.06,0,0,0,0,0,0,0h.08Zm-.12-.47h.06l0,0h0Zm-.12.07,0,0c.05,0,.07,0,.06,0h0l0,0c-.07,0-.06,0-.06,0Zm0,.05h.08s0,0,0,0l0,0h-.08S61.57,18.86,61.58,18.85Zm0-.64h0l0,0h0s0,0,0,0h0Zm-.11,0,0,0h0s0,0,0,0h-.09Zm0,.13h0v0Zm0,.62h0s0,0,0,0h0a.1.1,0,0,1-.07,0h0s0,0,0,0Zm0-.43h0c-.05,0,0,0,0,0h0l0,0h0S61.41,18.49,61.41,18.5Zm0-.56h0l0,0h-.08l0,0h0l.09,0Zm-.12-.14.07,0h0s0,0,0,0h-.11S61.22,17.81,61.26,17.8Zm-.07.13,0,0h0s0,0,0,0,0,0,0,0h0Zm0,.12s0,0,0,0h0l0,0h0Zm-.09-.33h0l0,0H61l0,0h.08Zm0,0H61s0,0,0,0h0l0,0S61.08,17.66,61.08,17.67Zm0-.2,0,0,0,0h-.12s0,0,0,0h0a.31.31,0,0,1,.13,0h0Zm-.19-.13a0,0,0,0,0,0,0h0l.09,0h0l-.07,0h-.09Zm0,0h-.07l0,0S60.83,17.32,60.82,17.33Zm-.22-.43a.18.18,0,0,1,.11,0h0a.29.29,0,0,1-.08,0s-.06,0-.06,0h0Zm0,.15,0,0h0s0,0,0,0h0a.1.1,0,0,1-.07,0h0A.05.05,0,0,1,60.59,17.05Zm-.06.13s0,0,0,0h-.07a0,0,0,0,1,0,0h.08ZM60.34,17s0,0,0,0h.09a.18.18,0,0,1-.09,0h0S60.34,17,60.34,17Zm0,.59s0,0-.08,0h0v0h-.08s0,0,0,0,0,0,.08-.05h.08S60.34,17.58,60.33,17.59Zm0-.22h0l0,0h-.1l0,0h.08Zm-.08,0h0s-.07,0-.09,0,0,0,0,0h0l0,0h0S60.23,17.35,60.21,17.37Zm-.07-.9h0Zm0,.25h0s0,0,0,0h0s0,0,0,0A0,0,0,0,1,60.18,16.72Zm0,.22h0a.2.2,0,0,1-.08,0h-.06l0,0ZM60,15.66h.09l0,0h-.09s0,0,0,0h0l0,0h0Zm-.1-.06h0Zm0,.47h0l-.08,0h0Zm-.13-.7,0,0h0s0,0,.05,0h0l-.07,0s0,0,0,0Zm0,2.11h0s0,0,0,0h0l-.1,0s0,0,0,0h0l0,0Zm-.08-2.13h0l0,0h0v0h0l0,0h0a.08.08,0,0,1-.07,0h0l0,0h.11Zm-.21-.28h.06l0,0h0s.06,0,.06,0h0s0,0,0,0h0l-.14,0h-.1l.07,0h0Zm-.12-.38.07,0h0a.11.11,0,0,1-.07,0h0S59.24,14.7,59.27,14.69Zm0,1s0,0,0,0l0,0h-.08s0,0,0,0h.05Zm-.09-1.06h0v0h0a.11.11,0,0,1-.06,0Zm0,.54h0v0h-.06s0,0,0,0h0Zm-.09.37h0l0,0h0s0,0,0,0h0l-.06,0h0ZM59,14.18H59l-.06,0h0s0,0,0,0Zm0,.07H59s-.05,0-.08,0h0Zm0,2.89h0l-.1,0s0,0,0,0h.11S58.93,17.12,58.91,17.14Zm0-.09,0,.05a.11.11,0,0,1-.06,0h0l0,0s0-.05.08-.06h.06Zm0-2.68h0l-.06,0h0s0,0,0,0h.08Zm-.16,0h.12v0h-.07C58.66,14.4,58.65,14.4,58.68,14.37Zm0,.33h0v0h0l-.15,0h-.09l.07,0h.1l0,0Zm-.21-.11h0a.09.09,0,0,1,.06,0h0l0,0Zm.17-.21h0l0,0h-.09s0,0,0,0Zm-.18,0h0l0,0h.08A.12.12,0,0,1,58.46,14.4Zm0-.6s0,0,0,0h-.1l0,0Zm-.13-.18h.08a0,0,0,0,1,0,0h0l-.09,0s0,0,0,0l0,0Zm-.14-.11h0l.05,0h0l0,0s0,0,0,0l-.06,0-.06,0h0S58.23,13.52,58.24,13.51Zm0,.1,0,0v0h0s0,0,0,.05l-.05,0,.05,0,0,.06-.12.09,0,0c-.07,0-.07-.07,0-.14s0,0,0,0H58s0,0,.08-.05h.06l0,0s0,0,0,0h0Zm0-.32h0l-.09,0h0s0,0,0,0h0s0,0,.08,0A.18.18,0,0,1,58.18,13.29Zm-.19,0h.07l0,0H58Zm-.1,0h0l0,0h-.08Zm-.13-.08h.06l0,0H57.7Zm-.11.11h.08l0,0h0l0,0S57.65,13.26,57.65,13.26Zm0,.14h0a.3.3,0,0,1-.08,0h0l.08,0Zm-.16,0a.15.15,0,0,1,.08,0h0v0l0,0h0l-.09,0S57.48,13.4,57.53,13.38Zm-.05,0h0l0,0h0l0,0h-.08l.06,0h.07Zm0-.16h-.07s0,0,.05,0S57.45,13.18,57.44,13.19Zm-.09-.32h0l0,0s0,0,0,0Zm-.08.09a.16.16,0,0,1,.09,0h0l-.07,0a.19.19,0,0,1-.1,0h0S57.22,13,57.27,13Zm-.06.57h0a.13.13,0,0,1-.08,0h-.05l.08,0Zm-.07-.46s0,0,0,0h0a.15.15,0,0,1-.08,0h0l.06,0Zm0-.07,0,0H57A.1.1,0,0,1,57,13h.08ZM57,12.94h0l0,0h0a0,0,0,0,1,.05,0h0l0,0H57Zm0,.1h0l0,0h0l0,0-.07,0h-.09s0-.12.09-.16l0,0,.08,0,0,0A.11.11,0,0,1,56.94,13Zm-.15-.85a.32.32,0,0,1,.13,0h0v0l-.06,0h-.08Zm0,0h0s0,0,0,0h0l0,0s0,0,0,0Zm0,.4h.1s0,0,0,0h0l-.05,0h0S56.76,12.63,56.78,12.62Zm-.07-.51h0l0,0s0,0,0,0h0l0,0s0,0,0,0Zm0,.57h0s0,0,0,0h0s0,0,0,0Zm0,1.09,0,0h.12l0,0h-.17Zm0-.77h0v0h0l0,0h-.07l.06,0s0,0,.06,0Zm-.08-.49h.05l0,0h-.06l0,0c-.06,0-.09,0-.07,0h0s0,0,.08,0h.06Zm-.15-1.1h0l.1,0h0a.34.34,0,0,1-.1,0h0Zm0,.92h0l0,0h0a.2.2,0,0,1,0,.07l0,0h0s0,0,0,0h.06a.3.3,0,0,1-.06.11.76.76,0,0,1-.16.11l-.06,0h-.07a.19.19,0,0,1,0-.1h0s0,0,0,0h.08v0s-.07,0-.07,0v0l-.1,0h0l0,0h.11a.34.34,0,0,1,.16-.12h0a0,0,0,0,1,0,0h0Zm0-.22h0s0,0,0,0h0s0,0,0,0h0Zm-.15-.64h0Zm-.14-.5h.06s0,0,0,0h-.06s-.05,0,0,0Zm0,.14,0,0h.08s0,0,0,0a0,0,0,0,0,0,0H56s0,0,0,0ZM56,13h0s0,0,0,0H56Zm0-1.22h0l0,0s0,0,0,0h0l0,0S56,11.74,55.94,11.75Zm0-.3h-.08s-.06,0,0,0l0,0h.09S55.92,11.44,55.91,11.45Zm0-.63h0a.19.19,0,0,1-.1,0h0a.13.13,0,0,1,.09,0Zm-.12-.19h0s0,0,0,0l-.05,0h0s0,0,0,0A.15.15,0,0,1,55.79,10.63Zm-.18.43h0l.09,0h0a.34.34,0,0,1-.1,0h0S55.6,11.06,55.61,11.06Zm-.07.39h.08v0l0,0h0Zm0,1h.06s0,0,0,0h-.1Zm-.12-1.86h.07s0,0,0,0h-.07Zm0,.21.06,0h0s.06,0,0,0h0l-.09,0h0Zm0,.18.09,0h0a.38.38,0,0,1-.1,0h0Zm0,2.3h0s0,0,0,0h0s0,0,0,0l0,0h-.11s-.06,0,0,0h0l0,0h.11ZM55,11.54s0,0,0,0h0a.12.12,0,0,1,.1,0h0l0,0H55Zm.16.78h0s0,0,0,0a.11.11,0,0,1-.07,0h0s-.05,0,0,0l0,0h.08ZM55,13.65l0,0h.07s0,0,0,0h0l0,0H55S55,13.66,55,13.65Zm0-.55.06,0h0v0l0,0h0S55,13.11,55,13.1Zm.11.93h0l0,0h0s0,0,0,0Zm0-1.35H55a.34.34,0,0,1,.13-.05h0s0,0,0,0Zm.09-2.17h0s0,0,0,0h0s-.06,0-.06,0h0Zm0,.55s0,0,0,0,0,0-.06,0H55s0,0,0,0h0l0,0Zm-.23-1v0L55,10h.09s0,0,0,.07v0l-.07.08,0,0-.07,0,0,0Zm-.06,1.2,0,0h0s0,0,0,0h-.08Zm-.1-.71a.14.14,0,0,1,.1,0h0l0,0h-.08Zm0,1.72s.05-.07.1-.11l.05,0H55s0,0,0,0l0,.06-.07.05-.09.06h0S54.71,12.31,54.73,12.28Zm-.1,1.32h0l.07,0,0,0h.08l0,0h-.08c-.06,0-.09,0-.07,0h0Zm0-.11s0,0,0,0a.15.15,0,0,1,.09-.05h.06v0s0,0-.07,0l-.08,0Zm.15-.91h0s0,0,0,0h.1s0,0,0,0H54.8Zm-.11.18-.09.05h-.06a.23.23,0,0,1,.13,0h0S54.7,12.75,54.69,12.76Zm-.17.59,0,0s0,0,0,0h-.09a.05.05,0,0,1,0,0Zm.15-1.73h0l0,0,0,0h0l-.08,0h0a0,0,0,0,1,0,0h0a.24.24,0,0,1,.1,0Zm-.16-1a.13.13,0,0,1,.09,0h0a.19.19,0,0,1-.1,0h0Zm0,2.21v0h-.14v0h0l0,0h0l.06,0Zm-.21.36h0v0l.06,0h0c.05,0,.07,0,.08,0s0,0,0,0l-.06,0h0a0,0,0,0,1-.05,0h0Zm.05-1.49h.08l0,0h0Zm0-.69h.06l-.05,0h-.09A.2.2,0,0,1,54.39,11Zm-.1.67h.07l0,0h0S54.27,11.7,54.29,11.69Zm0,.29h.09s0,0,0,0l-.08,0h0s-.05,0,0,0Zm0,.14h.09l0,0h0s0,0,0,0h-.06s0,0,0,0h.06Zm-.19-1.74h0l0,0h0l.08,0h0s0,0-.07,0h-.06Zm0,2.08h.08s0,0,0,0h0l-.06,0h0s-.05,0,0,0l0,0Zm0-.05,0,0h-.07l0,0H54S54,12.41,54,12.41Zm-.22.05h0l0,0h-.08l0,0h0a.32.32,0,0,1,.14,0h0s0,0,0,0a.12.12,0,0,1-.08.05Zm-.18-.64h-.08a.09.09,0,0,1,.06,0h0l.06,0h0v0l0,.07,0,0v0l-.07,0S53.6,11.85,53.61,11.82Zm0,.78h0a.08.08,0,0,1-.06,0h0s0,0,0,0l0,0h.09S53.64,12.59,53.63,12.6Zm-.07-1h.08l0,0h0A0,0,0,0,1,53.56,11.61Zm.15-.29s0,0,0,0h0a.24.24,0,0,1,.1,0h0l0,0h0l-.08,0h0Zm.13-.08h0l-.12,0h-.06l0,0h0l0,0s0,0,.06,0,0,0,0,0a.14.14,0,0,1,.09,0h0Zm-.11,1h0l.08,0h0v0l0,0h0l-.05,0H53.7a0,0,0,0,1,0,0Zm.13-1.19a.1.1,0,0,1,0,0H54l-.08,0Zm.12-.48h0s0,0,0,0h-.09l.07,0Zm-.12-1.25.11,0s0,0,0,0h-.12ZM53.6,10v0l0,0s.1-.06.13,0v.06a.29.29,0,0,1-.12.09s0,0,0,0l0,0-.06.07s-.06,0-.07,0S53.58,10,53.6,10Zm-.1,1.32h0l.08,0s0,0,0,0l0,0H53.5Zm-.14.28h0s0,0,0,0h0S53.36,11.56,53.36,11.55Zm0,.56-.07,0h-.07l0,0h.1S53.38,12.1,53.37,12.11Zm-.19-2.19.08,0h0s0,0,0,0h-.08s0,0,0,0ZM53,10.7a.35.35,0,0,1,.11,0h0l0,0h0l0,0h0Zm0,.76a.22.22,0,0,1,.08-.09.27.27,0,0,1,.16,0l0,0,.07,0h.12v0l0,0-.1,0h0l-.06,0h0a.49.49,0,0,1-.13.14H53s0,0,0,0l0,0h-.07s0-.08,0-.1h0Zm.18.45h0s.06,0,0,0h0l-.08,0a0,0,0,0,1,0,0h0Zm0-.17h0S53.07,11.75,53.08,11.74Zm.1.06h0s0,0,0,0h.05s0,0,0,0Zm-.15.08v0l0,0h0l-.06,0h0s0,0,0,0h.06l.08,0Zm-.14-.22h0s-.06,0-.06,0h0Zm-.32-1.8h0l0,0h-.05a0,0,0,0,1,0,0Zm-.29,1.52s0,0,0,0h-.06s0,0,0,0ZM51.93,9a.8.8,0,0,1,.23-.16h.05c0,.06,0,.15-.19.29l0,0s0,0,0-.06,0,0,0,0Zm.18,2.37a.05.05,0,0,1,0,0h0ZM52,11h0s0,0,0,0,.07,0,.1,0h0s0,0,0,0h0l0,0Zm.12,0h-.05s0,0,0,0h.05Zm-.81-.26a.8.8,0,0,1,.18-.12l0,0h0l0,.06a.46.46,0,0,1-.16.11.07.07,0,0,1-.09,0ZM48.87,7.37l0,0L49,7.25l.06,0a.06.06,0,0,1,0,0,.06.06,0,0,1,0,.06l0,0a.36.36,0,0,1-.12.09l-.05,0h-.07v0A.07.07,0,0,1,48.87,7.37ZM47.71,8l0,0,.08,0h0s0,.07,0,.08h0l0,.07-.12.05h0l0,0C47.61,8.09,47.68,8.05,47.71,8Zm-1.9-2.88,0,0A.54.54,0,0,1,46,5l.07,0,.07,0h.13l0,.08h0a.09.09,0,0,1,0,.06l0,0c-.14.11-.27.15-.31.1A.16.16,0,0,1,45.81,5.15Zm-2.24-1.8.06-.08h0l0,0a0,0,0,0,0,0,0l.07-.07a.09.09,0,0,1,.11,0h0v0l-.09.1a.33.33,0,0,1-.12.06h0s0,0,0-.07ZM40.85,2.7A.24.24,0,0,1,41,2.56l0,0a.07.07,0,0,1,.08,0h0l0,.05,0,0-.13.1,0,0,0,0ZM38.63,4.62s0,0,0,0l.1-.08h0s0,0,0-.07a.1.1,0,0,1,.06-.07h0s0,0,0,.06l.07,0,0,0s0,0,0,0,0,.05,0,.09a.14.14,0,0,0,0,0l0,.05a.61.61,0,0,1-.12.09l0,0-.07,0C38.62,4.7,38.63,4.65,38.63,4.62ZM37.2,2.69a.2.2,0,0,1,0-.1l0,0a.53.53,0,0,1,.25-.15h0a.28.28,0,0,1-.07.13l0,0-.08.07h0s0,0,0,0l-.08,0Zm-6.72,1s0-.07.08-.13l.07,0,0,0,0,.07-.09.07-.06,0ZM28.65,2.06s.05-.06.1-.1l.06,0h0a.07.07,0,0,1,0,.06.24.24,0,0,1-.1.1l-.06,0S28.64,2.08,28.65,2.06Zm-3.36.71.05,0h.07s0,.1-.09.17l-.07,0a0,0,0,0,1,0-.05h0S25.22,2.83,25.29,2.77ZM24.81,4.2l.08-.06s.06,0,.06,0h0l0-.06c.05,0,.07,0,.07,0s0,0,0,.07v0l0,.06,0,0h-.09a.08.08,0,0,1-.09,0ZM23.5,3.52a.43.43,0,0,1,.12-.11l.06,0,.05.06,0,.06,0,0a.29.29,0,0,1-.14.08h0A.16.16,0,0,1,23.5,3.52Zm.28,1s0,0,0,.07,0,0,0,.06-.13,0-.12,0l0,0,.08,0h.09Zm-.3.33.06,0,.07,0a.11.11,0,0,1-.06.11c-.05,0-.12.07-.14,0ZM21,5.28l.11-.07h.09c0,.06-.09.14-.12.17l0,0c-.05,0-.06,0-.06,0v0Zm-.17,1.58s.1-.06.14,0v0l0,.07c-.1.07-.13.05-.14,0s0,0,0,0h0ZM19,6.74c.06,0,.1,0,.11,0S19,7,19,7l0,0c-.12.06-.16.05-.18,0s0-.09,0-.17h0a.22.22,0,0,1,.1-.08l0,0a0,0,0,0,0,0,0Zm-.18-1.42.06,0h0s0,0,0,.07a.21.21,0,0,1-.11.08l0,0S18.73,5.36,18.78,5.32ZM17.61,8.77h0s.09,0,.12,0h0l0,.07h0a.22.22,0,0,1-.07.07h-.06l0,0Zm-1.52.47c.07-.06.12-.07.14,0s0,0,0,.06v0l0,.05c-.05,0-.11.06-.14,0a.07.07,0,0,1,0-.09Zm-1.22.14.07,0h0A.28.28,0,0,1,15,9.26l.07,0h0s0,.06-.07.12h0v0a.36.36,0,0,1-.24.23l0,0h0v0C14.76,9.55,14.76,9.48,14.87,9.38Zm-3.66,2.7,0,0s0,0,.05,0v0a.1.1,0,0,0,0,.05l0,.07,0,0a.38.38,0,0,1-.13.13h-.06a.14.14,0,0,0,0-.07S11,12.22,11.21,12.08ZM10.66,14l.08,0v0l.07,0h0a.07.07,0,0,1,0,.06l-.07.07h0s-.07,0-.08,0ZM4.3,20.4a.29.29,0,0,1,.1-.06h0s0,.06-.11.16H4.25A.21.21,0,0,1,4.3,20.4ZM2,30.74H2a.24.24,0,0,1-.09.09H1.86s-.08,0-.09,0l0-.07,0,0h0l0-.05A.2.2,0,0,1,2,30.65H2s.08-.05.11,0,0,0,0,0v0Zm1,7.08L3,37.89l-.06,0s0,0,0-.06l0-.07.07,0a0,0,0,0,1,0,0S3.06,37.79,3,37.82Zm.23-16a.12.12,0,0,1-.08.05h0s0,0,0-.05a.34.34,0,0,1,.09-.08l0,0h.08A.24.24,0,0,1,3.27,21.79Zm.61,15.62,0,0,0,.05s-.07,0-.08,0a.19.19,0,0,1-.09,0h0a.08.08,0,0,1,0-.09s0,0,0,0l0-.05.11-.07h0l0,0,0,0S3.9,37.37,3.88,37.41Zm0-1.58v0l-.07,0s0,0,.05-.11l.07,0h0S3.86,35.82,3.84,35.83ZM4.32,41a.66.66,0,0,1-.19.15h0c0-.07.07-.18.1-.22l.06,0a.1.1,0,0,1,.08,0V41Zm2.15,5.41,0-.07s0,0,0,0a.33.33,0,0,1,.14-.15h0s0,0,0,0,0,.1,0,.15l0,0a.2.2,0,0,1-.09.05v0l-.06,0a0,0,0,0,1-.06,0Zm.35,4.11a.85.85,0,0,1-.17.16l-.14.06,0,0a.25.25,0,0,1,.06-.13l0,0,0,0c.06,0,.15-.1.2,0l0,0Zm.5.94a.49.49,0,0,1-.18.12h0c-.06,0-.06,0,0-.08v-.08a.42.42,0,0,1,.15-.12c.06,0,.11,0,.13,0S7.36,51.35,7.32,51.41Zm.35-.2a.08.08,0,0,0,0,0l-.08,0,0,0a.07.07,0,0,1,0-.08l0,0A.84.84,0,0,1,7.74,51h0S7.72,51.16,7.67,51.21Zm1.11.46,0,0H8.69a.31.31,0,0,1,.09-.17.7.7,0,0,1,.16-.1H9s0,.08,0,.11,0,0,0,0l0,.06Zm.4,1.7L9,53.52l-.07,0h0s0,0,0-.06v0H9l0,0a.29.29,0,0,1,.14-.13c.07,0,.13,0,.15,0s0,0,0,0Zm1.07-.91c-.06,0-.07,0-.09,0v0a.57.57,0,0,1,.21-.19h0a0,0,0,0,0,0,0l0,.06,0,0-.09.09Zm.26,2.39-.11.07h-.06c-.07,0,0-.12.07-.17l.05,0s0,0,.06,0v0h0Zm.52-.1,0,0,0-.07.15-.1,0,0h.05a.07.07,0,0,1,0,0v0a.19.19,0,0,1,.16,0l0,.07,0,0h0l0,0a.53.53,0,0,1-.17.12s-.08,0-.11,0l0,0a.27.27,0,0,1-.14,0Zm.31,1,0,0-.07,0,0,0v0l-.09.08s0,0,0,0a0,0,0,0,0,0,0h0v-.05a.31.31,0,0,0,0-.1.37.37,0,0,1,.09-.16s0,0,0-.09a.45.45,0,0,1,.17-.17h.09l0,0,0,0s0,0,0,.05h.07s0,0,0,0,0,0,0,0l-.06.09s-.09,0-.19.14S11.37,55.69,11.34,55.74Zm.34.25-.09.07h-.06s0-.08.11-.15h0l0,0Zm.52.41a.63.63,0,0,1-.12.11l-.06,0h0s.05-.11.08-.13l0,0,.07,0h0S12.2,56.39,12.2,56.4Zm.5.75a.56.56,0,0,1-.18.16c-.07,0-.12,0-.13,0l0-.07.08-.07.05,0,.08,0h.06Zm.45.09,0,0c-.05,0-.08.06-.1.06l-.1.05s0-.05,0-.09a.52.52,0,0,1,.13-.13l.07,0v0A.06.06,0,0,1,13.15,57.24Zm0-2.67,0,0s0,0,0,0l0-.06L13,54.3h0l0,0,0,0,0,0a.12.12,0,0,1,0-.12A29.89,29.89,0,0,1,9.8,50.66l0,0-.1,0H9.58a.31.31,0,0,1,.09-.17l.06,0-.7-1,0,0H9s-.08.11-.13.11h0l0,0s0,0,0-.08l.06-.05c.07-.06.1-.07.12-.06l-.47-.74h0a.33.33,0,0,1-.15.1h0v0l0,0h0c-.07.05-.17.11-.21.1h0s0-.14.09-.24.08-.15.07-.16l0-.06.08,0c-.35-.58-.68-1.18-1-1.78l0,0h0l0,0h0s0,0,0,0a0,0,0,0,1,0,0l-.06,0s0-.11.09-.16h0l.06,0h0a26.73,26.73,0,0,1-1.35-3H6v0A29,29,0,0,1,42.38,5.91s.08,0,.09,0l0,0a29.07,29.07,0,0,1,9.82,5.66h.08s.06,0,0,0h0l-.06,0,.62.55h0l0,0h0c.34.32.68.65,1,1l.08-.05,0,0s0,0,.06,0h0v.06l0,0,0,.05a3.07,3.07,0,0,0,.25.26h0l.1,0h0a.19.19,0,0,1-.09,0l.22.23h.08s0,0,0,0h0l0,0h0l.09.1.08,0v0h0v0h0l.12.13h0q.11-.07.15,0v0h0s0,0,0,0a.15.15,0,0,1,0,.08l0,0c.16.17.31.35.46.53h0l.1,0h0v0h0l-.07,0h0l.36.44h0s0,0,0,0h0l.08.1,0,0,.13-.1.07,0c0,.05,0,.1,0,.18l0,0h-.07l.1.14.06,0h0a.07.07,0,0,1,0,.07c.22.28.44.56.65.85h0s0,0,0,0c.17.23.34.45.5.69h0l.35.54,0,0h0l0,0h0l0,0s.07,0,.07,0h0l-.05,0h0c.18.27.35.54.52.82h0l.06.11s.05,0,.06,0h-.05l0,.05s0,0,0,0h.06l.08,0v0h0v0h-.17l.1.18h0l0,0,0,0h0s0,0,0,0h0l.08.15h.05s0,0,0,0l0,0h0l0,0a.35.35,0,0,1,.09-.06h0l.06,0h0a.16.16,0,0,1-.09.13l0,0c0,.06.07.12.1.19l.08,0h0l-.07,0c.09.16.17.32.25.49l0,0h0l0,0a.15.15,0,0,1,.08,0h0a.19.19,0,0,1-.08,0h0l0,0h0s0,0,0,0h0l.27.53h0c.38.79.73,1.59,1,2.41L60.4,23h0l0-.06a.14.14,0,0,1,.07-.08h0s0,0,0,.05l.07,0,0,0h0s0,.05,0,.09l0,.05,0,0a.26.26,0,0,1-.12.09l-.05,0,0,0a28.75,28.75,0,0,1,1.87,10.23c0,.79,0,1.56-.1,2.33a1.24,1.24,0,0,1,.18-.14.66.66,0,0,0,.18-.14l.09,0s0,.09-.06.14,0,0,0,0l0,.06s-.05,0-.06.08h0s0,0,.06,0h0v0a.71.71,0,0,1-.15.15s-.1.05-.12,0,0,0,0,0v0l0,0c-.06,0-.08,0-.09-.07h0a29.51,29.51,0,0,1-1,5.59h0c0,.06,0,.12-.05.17h.07s.06,0,0,0h0l-.08,0h0c0,.1,0,.19-.08.28h0c0,.1-.07.19-.1.29h.08l0,0h0c-.05.13-.09.27-.14.4h0l0,0h0l-.24.7h.07s0,0,0,0l0,0H60.4c-.1.27-.21.54-.32.81h0l-.21.52,0,0h0l0,0h0c-.15.34-.3.68-.46,1h.07s0,0,0,0h0l-.07,0h0c-.17.36-.35.7-.53,1h.07a0,0,0,0,1,0,0s0,.06-.08.09h-.06l-.16.29h0s0,0,0,0h0c-.27.48-.56,1-.85,1.43h0c-.19.29-.38.59-.58.88h0l0,0h0l-.61.87h0l-.34.44h0v0h0l-.21.27h0q-.78,1-1.65,1.89h0l0,0h0c-.6.62-1.22,1.22-1.87,1.8h0l0,.05h-.05a27,27,0,0,1-2.75,2.14h.06s0,.11-.17.19h0s0-.06,0-.08v0c-.45.3-.91.59-1.38.86v0l-.09.07h-.06A26.78,26.78,0,0,1,45,60a.65.65,0,0,1-.15.1l0,0h0c-.36.16-.73.31-1.1.45v0l-.06,0s0,0,0,0a28.14,28.14,0,0,1-4.39,1.31s0,0,0,0l0,.08s-.08,0-.1,0,0,0,0,0v0l0-.06h0a29.89,29.89,0,0,1-4.26.55l0,0c-.08.05-.15.07-.17,0a.06.06,0,0,1,0-.06c-.47,0-.94,0-1.42,0s-1,0-1.53,0c-.06,0-.13.08-.17.07h0s0,0,0-.08l-1.06-.08,0,0a.31.31,0,0,1-.14.09h0c0-.05,0-.1.07-.14-.74-.07-1.48-.18-2.21-.31l0,0,0,0v0h-.1s0,0,0,0v0a.19.19,0,0,1-.07.06l-.06,0h0s-.07,0-.09,0l0,0h0l-.05,0h0v0l0,0h0l.06-.07h0a28.87,28.87,0,0,1-3.58-.91.16.16,0,0,1-.07.09h0l-.06,0h0l-.06,0s0-.07.06-.11h0v0l.06-.07a29,29,0,0,1-7.31-3.61h0v0a28.74,28.74,0,0,1-3.54-2.86h0ZM16,57.47l0-.07,0,0c.12-.08.24-.17.33-.1l0,.07a.13.13,0,0,0,0,.06.74.74,0,0,1-.1.11l-.06,0h0l-.08,0S16.06,57.5,16,57.47Zm-2.66-1.3,0,0a1.26,1.26,0,0,1,.19-.14l.08-.05h.06c0,.05,0,.1,0,.15l0,.06c-.06.05-.09.06-.12.06h0l-.07,0a0,0,0,0,1-.05,0h0l0,0h0A0,0,0,0,1,13.36,56.17Zm.06,1.95,0,0-.07,0s0-.07,0-.09v0L13.4,58s.06,0,.08,0v0h0S13.45,58.09,13.42,58.12Zm.05-1.07a.14.14,0,0,1,0-.11.64.64,0,0,1,.2-.16h0l0,0a.14.14,0,0,1,0,.07h0l0,.07-.16.07-.07,0Zm.07,1.1s0,0,0-.08v0l0,0a.27.27,0,0,1,.09-.06l.06,0h.06a.39.39,0,0,1-.19.22Zm.23.41a.26.26,0,0,1-.17.08h0a.13.13,0,0,1,0-.09.4.4,0,0,1,.17-.09h.06A.21.21,0,0,1,13.77,58.56Zm1.9.35,0,0a.26.26,0,0,1-.1.07.13.13,0,0,1-.12,0h0v0l0,0s0-.08,0-.14a.66.66,0,0,1,.27-.17h0l0,0S15.7,58.86,15.67,58.91Zm.27.77h0l0,.05c-.06,0-.09,0-.1,0s0,0,0-.05h0l-.06,0a.52.52,0,0,1,.15-.14s.09,0,.12,0v0A.26.26,0,0,1,15.94,59.68Zm.37-1.58h0v0l0,0h0l0,0a.61.61,0,0,1-.29.18h-.07s0-.09.06-.13h0a.35.35,0,0,1,.24-.16h.08a.09.09,0,0,1,0-.06.57.57,0,0,1,.27-.17h0l0,0s0,.12-.05.17l0,0a.26.26,0,0,1-.1.07C16.37,58.13,16.33,58.12,16.31,58.1Zm.06,1.57c0-.05,0-.09.08-.12h.07a.07.07,0,0,1,0,.06.38.38,0,0,1-.09.08Zm.46.49-.08.05a.62.62,0,0,1-.21.13h0c-.05,0,0-.08,0-.11a.08.08,0,0,0,0,0l.06-.07.09-.06a.34.34,0,0,1,.16-.07h0a.11.11,0,0,1,0,0,0,0,0,0,0,0,0Zm.42-1.41a.16.16,0,0,1,.09-.12l.05,0,0,0s0,0,0,0a.38.38,0,0,1-.09.09Zm.47.48-.08.06a.62.62,0,0,1-.21.13h0s0-.08,0-.12a0,0,0,0,0,0,0l.06-.08a.26.26,0,0,0,.09,0,.48.48,0,0,1,.16-.08h0a.09.09,0,0,1,0,.05,0,0,0,0,0,0,0Zm1.46,1.58h0a.22.22,0,0,1-.07.07h0l0,0h-.1s0,0,0-.06a.31.31,0,0,1,.12-.14s.1-.06.14,0,0,0,0,0Zm2.69-.38a.7.7,0,0,1-.19.15h-.05c-.05-.06.07-.18.11-.21l.05,0c.05,0,.07,0,.08,0l0,0Zm.58,2.31h-.06c-.05,0-.05,0,0-.06v0l0,0c.07-.07.11-.08.14-.08h.09v0A.35.35,0,0,1,22.45,62.74Z"/><polygon class="cls-1" points="59.72 19.45 59.73 19.45 59.72 19.45 59.72 19.45"/><polygon class="cls-1" points="60.54 47.06 60.55 47.06 60.55 47.06 60.54 47.06 60.54 47.06"/></svg>