<svg id="Layer_1" data-name="Layer 1" xmlns="http://www.w3.org/2000/svg" viewBox="0 0 66.15 66.9"><defs><style>.cls-1{fill:#b35643;}</style></defs><title>fafa-bar-on</title><polygon class="cls-1" points="58.29 48.34 58.3 48.33 58.29 48.34 58.29 48.34"/><polygon class="cls-1" points="58.85 14.19 58.85 14.19 58.85 14.19 58.85 14.19"/><path class="cls-1" d="M59,16.66h0Z"/><path class="cls-1" d="M8.25,48.72h.06l.07,0,0-.07Z"/><polygon class="cls-1" points="63.92 24.47 63.9 24.45 63.92 24.47 63.92 24.47"/><path class="cls-1" d="M62.31,44.56l0,0h0s0,0,0,0l0,0h0Z"/><polygon class="cls-1" points="61.42 21.86 61.43 21.85 61.42 21.86 61.42 21.86"/><polygon class="cls-1" points="55.66 52.62 55.66 52.65 55.66 52.62 55.66 52.62"/><polygon class="cls-1" points="59.28 45.97 59.28 45.96 59.28 45.97 59.28 45.97"/><path class="cls-1" d="M60.34,18.29h0Z"/><polygon class="cls-1" points="57.48 16.21 57.48 16.21 57.48 16.21 57.48 16.21"/><path class="cls-1" d="M22.93,63.85a.09.09,0,0,1,.13,0,0,0,0,0,1,0,0v0a.54.54,0,0,1-.14.13h0a32.06,32.06,0,0,0,8.52,1.61.39.39,0,0,1,.1-.08c.06,0,.12,0,.14,0a.07.07,0,0,1,0,.05l0,0h0q.72,0,1.44,0a32.11,32.11,0,0,0,14.59-3.5.06.06,0,0,1,0-.06l0,0s.1-.05.12,0,0,0,0,0a32.08,32.08,0,0,0,3.77-2.29.68.68,0,0,1,.21-.2l.05,0,0,0a32.55,32.55,0,0,0,4.71-4.14c-.05,0-.07,0-.05-.08l0,0c.09-.06.15-.08.19-.06l.14-.15h0l-.07,0s.05-.13.1-.18L57,55a.1.1,0,0,1,.1,0c.18-.21.36-.41.53-.62h0l0,0h0l.19-.23h0l.21-.25h0c.47-.57.91-1.16,1.34-1.77h0q.45-.63.87-1.29h0l.4-.62h0s0,0,0,0h0c.12-.19.22-.38.33-.57h0s0,0,0,0h0l.33-.56h0l.4-.77h-.05a.13.13,0,0,1,0-.07.18.18,0,0,1-.11,0h0l0,0h.15c.43-.85.82-1.71,1.18-2.59l-.15,0h-.07s0,0,0-.06h0l.05,0H63a.05.05,0,0,0,0,0h0a.3.3,0,0,0,0-.08h0l0,0v0l.07-.07c0-.09.07-.17.1-.26s0,0,0,0h0s0,0,0,0h0l-.06.05L63,45h0l-.05,0-.16.11h0l0,0h0l0,0h-.09a.63.63,0,0,1,.21-.22c.09,0,.09-.06.09-.08l0,0a.16.16,0,0,1,.08-.06H63a.3.3,0,0,1,.13-.14h0s0,0,.06,0a0,0,0,0,1,0,0v0l.06,0c.17-.44.32-.89.46-1.34l-.06,0s0-.07,0-.11l0,0s0,0,.07,0c.11-.35.21-.71.31-1.06h-.08c0-.06.06-.12.13-.17a31.23,31.23,0,0,0,.7-3.25.38.38,0,0,1-.09.1l0,0c-.06,0-.08,0-.08-.05h0a.07.07,0,0,1,0-.06.6.6,0,0,1,.23-.18,33.17,33.17,0,0,0,.37-4.38h0s0,0,0,0h-.11v0l.1,0h0l.06,0c0-.16,0-.32,0-.48,0-1,0-2-.14-2.9v0h0s-.06.08-.09.11l0,0-.07,0s0-.08,0-.11,0,0,0,0l0-.06.12-.09h0c-.07-.74-.16-1.48-.28-2.2l-.07.05-.07,0a.09.09,0,0,1,0-.1s0-.06.09-.09h0c0-.19-.06-.39-.1-.58h0l-.08,0h0s-.08,0-.08-.05l0,0,.14-.14c0-.19-.07-.38-.11-.57l0,0h0l0,.06a.23.23,0,0,1-.14.08h-.09a.19.19,0,0,1,0-.08v0l0,0c.1-.1.16-.11.2-.11h0c-.17-.76-.36-1.52-.58-2.26l0,0v0c-.06.08-.13,0-.12.08h0l0,0s0,0,0,0a.41.41,0,0,1,.09-.1c.06-.05.1-.06.13,0a31.46,31.46,0,0,0-1.56-4.2h0s0,0,0,0h0l0,0h-.11v0h.12s0,0,0,0l-.05,0h0s-.06,0-.08,0,0,0,0,0l0-.05.1-.08c0-.1-.09-.2-.13-.29h-.05l-.11,0h0s0,0,.12-.06h0c-.18-.39-.37-.76-.57-1.14h-.08l0,0h0c0-.1-.1-.2-.16-.3h0a1.17,1.17,0,0,1-.05-.11h-.07s0,0,0,0h0a33.25,33.25,0,0,0-2.36-3.71h0s0,0,0,0l0-.07h-.09s0,0,0,0h0l-.77-1h0l0,0-.26-.33h0l-.21-.25-.06,0h0s0,0,0,0l0,0c-.18-.22-.37-.45-.57-.66h0s0,0,0,0h0l-.3-.33,0,0h-.06l.07,0-.07-.06,0,0s-.11.06-.13,0a.08.08,0,0,1,0-.08l0,0,0,0c-.47-.5-1-1-1.44-1.45h0l-.13-.13s0,0,0,0h-.1s0,0,0,0h0l0,0a32.17,32.17,0,0,0-46.35,2.6h0v0a.11.11,0,0,1,0,.09l0,0c-.1.08-.14,0-.16,0A32.13,32.13,0,0,0,4.54,48.45a.31.31,0,0,1,.14-.14h.06s0,0,0,.08a0,0,0,0,0,0,0l0,.08,0,0,0,0c.33.62.67,1.22,1,1.81l0,0,.06,0h.07l0,.06a.23.23,0,0,1-.11.07A32.45,32.45,0,0,0,22.76,64,.41.41,0,0,1,22.93,63.85Zm40-18.33s0,0,0,0h0a0,0,0,0,1,0,0h0S62.91,45.53,62.92,45.52Zm-.12-.34h.1s0,0,0,0l0,0h-.06S62.79,45.19,62.8,45.18ZM22.89,61.8s0,0-.06,0,0,0,0,0h0l0-.07c.05,0,.15-.1.19-.06v0l-.1.09s0,0,0,0Zm.23.28h0l-.05,0h0l-.05,0s0-.06.06-.1l0,0v0s0-.05.08-.08h.06S23.17,62.06,23.12,62.08Zm.26-.46a.3.3,0,0,1-.15.19l-.06,0c-.05,0,0,0,0-.06v0l0-.05a.19.19,0,0,1,.13-.08l.1,0Zm.15,1.49h0c-.05,0-.08,0-.1,0l.05,0h0l-.06,0h0v0l0-.06s0,0,0,0l.05-.07c.07,0,.13,0,.15,0a.07.07,0,0,1,0,.06l0,0-.06.06A.12.12,0,0,1,23.53,63.11ZM24,63a.47.47,0,0,1-.14.12l-.08.06h-.1l0,0a.56.56,0,0,1,.22-.21c.05,0,.1,0,.12,0l0,0Zm.55-1.63a.5.5,0,0,1-.21.12l0,0s0-.08,0-.11v0l0,0c.12-.09.17-.06.19,0h0l0,0A.19.19,0,0,1,24.5,61.37Zm.4,2.1h0s.06,0,.08,0v0s0,0,0,0l0,0-.06.07h0c-.06,0-.12.06-.18,0l0-.05,0,0,.1-.1h0l0,0-.06,0c-.06,0,0-.15.09-.25a.27.27,0,0,1,.23-.09h0s0,.08,0,.11v0l0,0-.07.07Zm.84-1.34.06-.05q.09,0,.12,0s0,.06,0,.11a.46.46,0,0,1-.12.12l-.06,0C25.63,62.28,25.71,62.18,25.74,62.13Zm.2.81-.11.09-.07,0s0,0,0,0a0,0,0,0,0,0,0l0-.07c.12-.08.17-.07.19,0a0,0,0,0,1,0,0Zm.2.91-.05,0s-.07,0-.08,0,.07-.16.12-.22l.07,0h0a.22.22,0,0,1,.11,0h0s0,.07,0,.12A.53.53,0,0,1,26.14,63.85ZM26,63.46c0-.08.07-.16.14-.21h.07s0,.08,0,.13a.33.33,0,0,1-.14.1Zm.59.13,0,.06,0,0,0,0s0,0,0,0l-.07.08s-.06,0-.07,0l0,0,0-.06a.38.38,0,0,1,.16-.1h0l0,0Zm.31-.87v0l-.06.08c-.07,0-.16.06-.2,0l0-.06,0,0a.37.37,0,0,1,.11-.1l.05,0a.17.17,0,0,1,.12.06h0l-.07.08Zm.61,1.75a1,1,0,0,1-.17.18l-.06,0s-.06,0-.07,0v.07l-.05.06h0l0,0a.19.19,0,0,1-.08,0h0c0-.08.06-.16.13-.22h0v-.06l0,0a.67.67,0,0,1,.23-.18h.05l.05.06Zm.28-.79a.49.49,0,0,1-.18,0l-.09,0-.06,0h0v-.05a.71.71,0,0,1,.28-.09c.06,0,.1,0,.11.06v0Zm.11-1.49a.27.27,0,0,1-.21.11h-.06s0,0,0-.07,0,0,0,0l0,0a.37.37,0,0,1,.16,0l.09,0Zm.41,2.59,0,0a.2.2,0,0,1-.09,0v0a.11.11,0,0,1-.06,0,0,0,0,0,1-.06,0v0l0-.06s0,0,0,0a.33.33,0,0,1,.14-.15h0l.05,0S28.31,64.73,28.29,64.78Zm.61.47,0,0h0s0,0,0,0h0l-.05,0s0-.1.08-.15h0l.06,0h.05l-.05,0ZM29,62.5h0s.07,0,.08,0v0l0,0a.09.09,0,0,0,0,0l-.07.06,0,0c-.07,0-.13,0-.19,0l0-.05s0,0,0,0a.47.47,0,0,1,.1-.11h0l-.05,0-.06,0c-.06,0,0-.15.09-.25a.34.34,0,0,1,.23-.1h0s0,.08,0,.1v0l0,.05-.07.06Zm0,1.46L29,64a0,0,0,0,1-.06,0v0l0-.07,0,0a.33.33,0,0,1,.14-.15h0s0,0,.05,0,0,.1,0,.15l0,0a.2.2,0,0,1-.09,0Zm.37.67a.36.36,0,0,1-.1.11l-.05.05-.06,0c-.06,0-.11,0-.08-.1l0,0a.92.92,0,0,1,.14-.11l0,0,.06,0,0,0Zm.37-.3-.05,0h0s0,0,0,0,0,0,0,0l-.06,0s0-.11.09-.15h0l.06,0a0,0,0,0,1,0,0l0,0Zm.79-.94,0,0c-.08.06-.15.07-.17,0s0-.12.08-.2l.06,0a.15.15,0,0,1,.1,0S30.61,63.34,30.58,63.39ZM31,64.73l0,0-.08,0,0,0a.07.07,0,0,1,0-.08l0,0a.84.84,0,0,1,.19-.12h0S31,64.68,31,64.73Zm.36-1a0,0,0,0,1,0,0l-.05.06h0l0,0-.08,0h0c0-.08.06-.16.13-.22l.06,0,0,0S31.32,63.74,31.31,63.76Zm.3,1.25h-.06s0-.06,0-.11a.38.38,0,0,1,.11-.11l0,0a.11.11,0,0,1,.08,0s0,0,0,0v0A.6.6,0,0,1,31.61,65Zm.64.27a.61.61,0,0,1-.27.22h-.05s0,0,0,0v0a.65.65,0,0,1-.15.12h0a.06.06,0,0,1,0-.06s0,0,0,0l0-.06a.57.57,0,0,1,.16-.11.07.07,0,0,1,.08,0,.51.51,0,0,1,.21-.16h0l0,0ZM32,63c0-.07.06-.16.13-.21l.06,0h0a.08.08,0,0,1,0,.08v0l0,.06h0l0,0A.11.11,0,0,1,32,63Zm.86,1.15h0l-.09,0a.08.08,0,0,1-.06,0h0c-.05,0-.08,0-.08,0l.06,0h0l-.07,0h0v0l.06,0s0,0,0,0l.08,0c.08,0,.13,0,.13.07A0,0,0,0,1,32.85,64.13Zm1,.88h0l0,0-.09,0h.05s.06,0,0,.07l0,0,0,0,0,0-.08,0h0c-.08,0-.14,0-.17-.08l0,0,0,0a.38.38,0,0,1,.14,0H33.5s0-.14.19-.18a.27.27,0,0,1,.25,0h0S33.9,65,33.87,65Zm-.38-2.12h0l0-.05.06,0s.06,0,.06,0,0,0,0,.07a.27.27,0,0,1-.08.07h0A0,0,0,0,1,33.49,62.89Zm.59.15v0l.09-.08h0l0,0c.16,0,.19,0,.2,0h0v0a.14.14,0,0,1-.11,0A.49.49,0,0,1,34.08,63Zm.5.57a.2.2,0,0,1-.08.08l0,0-.08,0a.06.06,0,0,1,0-.06.36.36,0,0,1,.11-.1l0,0h0S34.59,63.6,34.58,63.61Zm.32,2a.3.3,0,0,1-.16,0l0,0a.29.29,0,0,1,.22-.12l.07,0S35,65.54,34.9,65.56Zm-.2-.46a.06.06,0,0,1,0,0,0,0,0,0,0,0,0l.07,0c.14,0,.18,0,.18,0v0l-.05,0-.14,0Zm.34-.65,0,0c-.06-.08,0-.13.11-.16l.06,0c.07,0,.11,0,.11,0s0,.06-.06.09A.49.49,0,0,1,35,64.45Zm.35.91a.27.27,0,0,1-.07.06s-.06,0-.07,0l0-.08c.05,0,.1,0,.11,0h0Zm.51-.06h-.06l0,0-.08,0c-.08,0-.18,0-.18-.1l.07,0,0,0a.62.62,0,0,1,.14,0h0a.19.19,0,0,1,.09.11h0Zm0-.41a.08.08,0,0,1,0,.09.38.38,0,0,1-.09.09h0c-.06,0-.1,0-.07-.08l0,0a.25.25,0,0,1,.08,0h0l.08,0,0,0Zm.27-.08v0l0,.06-.09.07L36,65l0,0h0s.06-.08.09-.11h0s0,0,0,0l0-.07c.06,0,.08,0,.09,0A.06.06,0,0,1,36.2,64.81Zm.48.34,0,0s0,0,0,0l0,.06s-.07,0-.09,0a.1.1,0,0,1,0-.1.15.15,0,0,1,.08-.08h0s0,0,0,0v0h0Zm.6-2.38c-.06,0,0-.07,0-.09l0,0,0,0h.22s0,0,0,0a.05.05,0,0,1,0,0l-.06,0h.05l-.07.05h-.06l-.09,0Zm.41,2.1-.08,0h-.19l0,0a.14.14,0,0,1,.07-.09.5.5,0,0,1,.16,0h.05l0,0A.14.14,0,0,1,37.69,64.87Zm.72.12-.08.09,0,0s-.06,0-.08,0h0l0-.06a.49.49,0,0,1,.12-.08s0,0,.06,0h0Zm.57-2.7,0,0-.07,0,0,0-.07,0s0-.07,0-.1v0l0,0,.07,0,0,0a.08.08,0,0,1,.07,0A.11.11,0,0,1,39,62.29Zm.54,2.11s-.06,0-.08,0,0,0-.06,0l0-.08c.06,0,.1,0,.12,0h0Zm.4-1.35,0,0a.1.1,0,0,1,0-.07s0,0,0,0l.05,0a1.15,1.15,0,0,1,.22,0h.07l0,0s0,.08-.13.12A.57.57,0,0,1,39.92,63.05Zm.31.37.05-.06s.12-.08.16,0v0l0,0,0,0s.05,0,.06,0h0l0,0s-.06.05-.08.05,0,0-.07,0l0-.05,0,0s0,0,0-.06Zm.16-.66a.09.09,0,0,1,0-.07s0,0,0,0l.07,0h.1c.12,0,.2,0,.22,0l-.05.05a.26.26,0,0,0-.14.07l-.06,0s-.07,0-.07,0h0s-.11,0-.13,0Zm.09,1.71,0,0,0,.05c-.09.06-.15,0-.19,0v0l0,0,0,0,0,0c.05,0,.09-.06.12-.05a0,0,0,0,1,0,0l.05,0h0a.11.11,0,0,1,0,.08h0A.1.1,0,0,1,40.48,64.47Zm.28-.16a.31.31,0,0,1-.18.14h0c-.07,0,.06-.15.11-.19l.07,0,0,0Zm.19-.92c-.06,0-.11.06-.13,0l0,0a.18.18,0,0,1,.08-.07s0,0,0,0h0Zm0-.13,0,0,0,0s-.06,0-.07,0a.3.3,0,0,1-.15,0h0c0-.07,0-.16.15-.26l.07,0a.06.06,0,0,1,.06,0,0,0,0,0,1,0,0h0a.42.42,0,0,1,.14,0,.08.08,0,0,1,.07,0h.11a.08.08,0,0,1,0,.05l-.06.06h-.06A.17.17,0,0,1,41,63.26Zm.4.35a.35.35,0,0,1-.2.16h0a.43.43,0,0,0,0,0s0,0,0,0l0-.07c.09-.07.15-.08.18,0h0Zm.91-2a.31.31,0,0,1-.1,0l0,0h-.08s0,0,0-.07l0,0,0,0,.07-.07h.1s.05,0,.06,0h0l0,0,0,0ZM42.54,64a.25.25,0,0,1-.09.09l0,0a.08.08,0,0,1-.07,0h0l0-.06.12-.08s.05,0,.06,0h0Zm0-2.9a1.36,1.36,0,0,0-.14.1.38.38,0,0,1-.23.11h0c0-.08.06-.17.14-.23s.26-.13.31-.08a.43.43,0,0,1,0,.05Zm.31,2.9,0,0c-.05,0-.1,0-.11,0a.08.08,0,0,1,0-.07l0,0s.1,0,.12,0A.06.06,0,0,1,42.81,64Zm.39-3.08-.06.07s-.07.05-.09,0v0l0-.06.07-.06.06,0h0S43.21,60.93,43.2,60.94Zm.22,2.16a.2.2,0,0,1-.08.09l0,0a.08.08,0,0,1-.08,0h0l0-.06.12-.08a0,0,0,0,1,.06,0h0Zm.24-.64s0,0,0,0a.34.34,0,0,1-.15.09l0,0,0,0h0l0,0h0a.14.14,0,0,1,0-.14v0a.55.55,0,0,1,.19-.16c.06,0,.1,0,.13,0A.12.12,0,0,1,43.66,62.46Zm.1-1.73-.07.07c-.07,0-.1,0,0-.13a.27.27,0,0,1,.11-.14l.06,0h.07s0,.11-.07.17l-.1.07Zm.12.11h-.07l0,0,0,0a.27.27,0,0,1,.08-.07s0,0,.06,0h0l0,.07Zm.35.72h0a.56.56,0,0,1-.21.16h0s0-.09,0-.13l0,0,0,0,0,0h0l0,0,0,0s.07,0,.08,0l0,0ZM44,61.32l.08-.08h.09a.06.06,0,0,1,0,.07.38.38,0,0,1-.09.09H44A.07.07,0,0,1,44,61.32Zm.3-.7-.06,0h0l0-.07,0,0a.23.23,0,0,1,.11-.07h0v.05a.19.19,0,0,1-.09.09Zm.18.49,0,0-.06,0a0,0,0,0,1,0-.07.15.15,0,0,1,.06-.07h.06l0,0Zm.61,1.32c-.07,0-.12.06-.14,0v0l0,0,0,0h0a.07.07,0,0,1,0-.06l-.05,0,0,0a.43.43,0,0,1,.15-.25l.07,0,.06,0a.17.17,0,0,1,0,.14h0l0,.06h0l0,0,0,0s.05,0,.06,0h0Zm.08-.67a.26.26,0,0,1-.15,0l0,0a.08.08,0,0,1,.07,0,.19.19,0,0,1,.11,0h.06A.1.1,0,0,1,45.16,61.76Zm.05-.41c-.11.07-.15,0-.16,0s0-.09,0-.15l.1-.06h0s0,0,.05,0,0,0,0,.06Zm.44-1.23s-.08,0-.1,0l0,0h0l0,0h0s-.06,0-.07,0l.07,0a.11.11,0,0,1,.05-.07l.13,0,0,0a.05.05,0,0,1,.05,0h0l.06,0c0,.08-.08.14-.19.17Zm0,1.34a.43.43,0,0,1,.15-.25l.07,0,.06,0a.17.17,0,0,1,0,.14h0l0,.06s-.07,0-.08,0a.42.42,0,0,1-.15,0Zm.3,0c-.07.05-.12.05-.14,0l0-.05a.21.21,0,0,1,.08-.06s0,0,.06,0h0Zm.34-.82a.06.06,0,0,0-.05,0h-.07s0,0,0,0,0,0,0-.07l0,0s0,0,0,0l.06-.07h.1s0,0,.06,0,0,0,0,0v0s0,0,0,0l0,.06Zm.16-1.31.05,0h.08v.09a.07.07,0,0,0,0,.05l0,0a.57.57,0,0,1-.24.14h0v-.1S46.34,59.49,46.47,59.38Zm0-.05a.18.18,0,0,1,.09-.12l.06,0h0s0,0,0,.05l0,.07,0,0Zm-.06.8c.11-.08.26-.14.31-.08s0,0,0,0l0,.06-.15.11a.38.38,0,0,1-.23.11h0C46.2,60.28,46.28,60.19,46.36,60.13Zm.4.09-.06.08s-.1.05-.12,0,0,0,0,0l0-.05S46.73,60.19,46.76,60.22Zm-.31,1.14h.06S46.36,61.4,46.45,61.36Zm.44.3-.07.06a.36.36,0,0,1-.13.1h-.07s0,0-.06-.05v0a.56.56,0,0,1,.22-.21l0,0,.07,0s0,0,0,.06v0Zm.19-1.88h0s0,0,0-.07l0,0,0,0,.06-.07.07,0h0s0,0,.06,0v0l0,0s0,0,0,0l0,.05a.17.17,0,0,1-.1,0l-.05,0Zm.39.52a.34.34,0,0,1-.18.13h0c-.08.06-.11,0-.09,0s0,0,0-.08a.4.4,0,0,1,.16-.16h0s.07,0,.08,0a.06.06,0,0,1,0,0v.07Zm-.1-1a.45.45,0,0,1-.23.11h0c0-.08.06-.17.14-.23s.26-.14.31-.08,0,0,0,0l0,.06Zm.2.29h0s0,0,0,0,0,0,0,0,.1-.06.12,0v0l0,0,0,0Zm.22.26s-.06,0-.07,0l0,0h0c0-.05,0-.11.15-.2h0l.06-.07h0l.06,0c.06,0,.06,0,.09-.06l.09-.09.08,0h0a0,0,0,0,1,0,0v0l0,.05-.08.08a.6.6,0,0,1-.18.18H48a.39.39,0,0,1-.08.1S47.84,59.86,47.79,59.89Zm.48.47a.18.18,0,0,1-.09.08h-.07a.07.07,0,0,1,0-.08.36.36,0,0,1,.09-.08h.08A.06.06,0,0,1,48.27,60.36ZM48,59.87l-.07,0,0,0,0-.05a.21.21,0,0,1,.08-.06s0,0,.06,0h0l0,.07Zm.35.72v0a.6.6,0,0,1-.22.16h0c-.05,0,0-.09,0-.13l.05,0,0,0h0l0,0,0,0a.08.08,0,0,1,.09,0l0,0Zm.07-.93-.07,0,0,0,0-.06s0,0,0,0a.28.28,0,0,1,.11-.07h0l0,0v0a.25.25,0,0,1-.09.09Zm.35-.82-.07.08c-.07,0-.1,0,0-.14s.08-.11.11-.14l.06,0H49a.2.2,0,0,1-.08.18.21.21,0,0,1-.1.06Zm-.13-.78,0,0c-.05,0-.1.06-.11,0s0,0,0-.06l0,0s.1-.05.12,0A0,0,0,0,1,48.64,58.06Zm-.1,2.12-.06,0s0,0,0-.06a.17.17,0,0,1,.06-.07l.07,0,0,0,0,.07Zm.24,0a.37.37,0,0,1-.1.07h-.07s0-.05,0-.07a.46.46,0,0,1,.1-.1l.07,0,0,0Zm.1-1.2h0l-.08,0,0,0,0-.05h0l0,0a.21.21,0,0,1,.08-.06s0,0,.06,0h0v0h0S48.9,59,48.88,59Zm.36.69h0a.52.52,0,0,1-.22.17h0s0-.09,0-.13l0,0,0,0h0l0,0,0,0,0,0a.07.07,0,0,1,.09,0l0,0ZM49,59.44l.08-.08h.09a.06.06,0,0,1,0,.07.36.36,0,0,1-.09.08H49A.07.07,0,0,1,49,59.44Zm.31-.7-.07,0,0,0,0-.06a0,0,0,0,0,0,0,.17.17,0,0,1,.11-.07h0l0,0v0a.25.25,0,0,1-.09.09Zm0-.53s0,0,0-.07a.24.24,0,0,1,.08-.06h.05s0,0,0,.05h0l0,0s0,0-.06,0S49.36,58.22,49.35,58.21Zm.13,1,0,0-.06,0s0,0,0-.06,0,0,.06-.07l.07,0,0,0Zm.28.33s-.1.06-.14,0v0l0-.06s.1-.07.14,0h0Zm.54.48s0,0,0,0H50.2a1,1,0,0,1-.26,0h-.11l0,0,.1-.06,0,0h.11s0,0,.08,0a.81.81,0,0,1,.19,0l0,0Zm0-.33,0,0-.07.06c-.09,0-.16,0-.17-.08s0-.13.15-.17.14,0,.16,0h.08C50.42,59.62,50.35,59.67,50.3,59.7Zm-.15-.3a.2.2,0,0,1,.08-.08l0,0h.06a0,0,0,0,1,0,0v0l0,.09-.05,0-.06,0,0,0S50.13,59.44,50.15,59.4Zm.36-.43v0h0l.07,0s0,0,0,.06,0,0,0,0l-.06,0-.14,0h-.06a.11.11,0,0,1,0-.12l0,0,0,0,0-.07c.15-.11.26-.14.32-.07v0l0,.07a.11.11,0,0,0-.05,0Zm-.27-1.68s0,0,0-.07a.27.27,0,0,1,.08-.07h.05a.06.06,0,0,1,0,0v0l0,0s0,0-.06,0S50.25,57.3,50.24,57.29Zm.58,2s-.1.06-.12,0,0,0,0,0l0-.05a.11.11,0,0,1,.12,0Zm0-1-.07.05-.08,0s0,0,0-.08l.07-.07,0,0a.31.31,0,0,1,.15,0v0A.24.24,0,0,1,50.84,58.29Zm-.05-1.35h-.13c0-.05,0-.08,0-.11a.81.81,0,0,1,.2-.06h.06v0h0l.05,0A.38.38,0,0,1,50.79,56.94Zm.46,0h-.06l0,0,0,0a.22.22,0,0,1,.1-.07h.08S51.38,56.8,51.25,56.89Zm.3,2.92,0,0c-.1.08-.2,0-.15,0a.28.28,0,0,1,.08-.09h.08l0,0S51.57,59.78,51.55,59.81Zm0-2a.25.25,0,0,0,.08,0,.09.09,0,0,1,.07,0l.06,0s0,.11-.09.16a.37.37,0,0,1-.12.07s-.08,0-.09,0l0,0S51.49,57.9,51.54,57.83Zm.17.58s-.1.05-.12,0,0,0,0-.06l0-.05a.13.13,0,0,1,.12,0Zm.13-.11-.1,0c-.05,0-.05,0-.05,0h0s.09-.06.11-.06h0l.08,0v0Zm.17-.81-.09.07h-.07s0,0,0,0l0,0h0l0-.06h0l.06-.07c.07,0,.09,0,.1,0a.09.09,0,0,1,0,0v.1Zm-.1-1.31,0,0c0-.05.08-.06.13-.07l0,0h0S52,56.17,51.91,56.18Zm.17-.2,0,0,0-.05a.22.22,0,0,1,.1-.07h.07s0,.06-.11.16Zm.26-.44.07,0s0,0,0,0,0,.06-.12.09l-.08,0S52.22,55.58,52.34,55.54Zm-.06-.25h0l0,0h0s0,0,0,0h0A.08.08,0,0,1,52.28,55.29Zm.26,2.17-.11.13,0,.06-.06,0s-.09,0-.11,0,0-.09.14-.24l.07,0h.14Zm0-1.59h0l0,0a.06.06,0,0,1-.06,0v0a.75.75,0,0,1,.22-.22h0a.08.08,0,0,1,.07,0s0,0,0,.06v0l0,.06-.07.06A.53.53,0,0,1,52.52,55.87Zm0-.85s0,0,0,0h0l0,0s0,0,0,0h0Zm.18.15h0s0,0,0,0h0v0A0,0,0,0,1,52.73,55.17Zm0,0a0,0,0,0,1,0,0h-.05v0Zm.13,1.38-.08.07h-.07a.08.08,0,0,0,0,0l0,0h0l0-.07v0l.06-.07c.07,0,.09,0,.1,0a.07.07,0,0,1,0,0s0,0,0,0Zm.19.89s0,0-.09.09h-.06s0-.08.06-.11a.11.11,0,0,1,.1,0Zm0-2-.06,0c-.06,0-.1,0-.1,0s0,0,0-.08l.13,0,.06,0C53.18,55.35,53.16,55.39,53.09,55.43ZM53,54.75h0s0,0,0,0l0,0h0l0,0,0,0Zm.25-.08h0s0,0,0,0h.07A0,0,0,0,1,53.25,54.67Zm.17-.07h0s0,0,0,0l0,0a.07.07,0,0,1-.07,0v0l0,0,0,0a.59.59,0,0,1,.24-.23h0l0,0c0,.05,0,.14-.1.24a.09.09,0,0,1,.05,0l0,0h0a.09.09,0,0,1-.07,0Zm.39,1.25h0l0,.07a1.15,1.15,0,0,0-.2.16l-.07,0s0-.09,0-.12v0s0,0,0,0l.07-.09h0l0-.05h0v0a.24.24,0,0,1,.12-.11s0,0,.05,0h0s0,0,0,0a.06.06,0,0,1,.06,0h0l0,.06,0,0Zm-.16-.44h0l0,0h0a0,0,0,0,1,0,0s0,0,0,0h0s.07,0,.08,0h0Zm.27-1.4-.07,0h0l0,0s0-.06.08-.12l.07,0h0S54,54,53.92,54Zm-.08-.14h.06a0,0,0,0,1,0,0h0S53.84,53.88,53.84,53.87Zm.25.73H54a0,0,0,0,1,0,0h.06A0,0,0,0,1,54.09,54.6Zm0-1,0,0h0s0,0,0,0h-.05Zm.15.67-.05,0h0a0,0,0,0,1,0,0h0s0,0,0,0l.06,0h0s0,0,0,0S54.22,54.24,54.2,54.25Zm0-.55-.05,0-.06,0v0l0,0,0,0a.53.53,0,0,1,.24-.23h0l0,0C54.44,53.47,54.38,53.59,54.24,53.7Zm.2.55a.31.31,0,0,1,.1-.1l.07,0,0,0,0,0a.48.48,0,0,1-.1.08h0l-.06,0S54.43,54.27,54.44,54.25Zm.2-1s0,0,0,0h0Zm0-.3h.09a0,0,0,0,1,0,0l0,0h0Zm-.14,1.48,0,0h0s0,0,0,0l.06,0h0Zm0,1.36h0v0h0s0,0,0,0h0Zm0,.55,0,0h-.06s0,0,0,0h.11Zm0-1.59s0,0,0-.05h0l0,0,.06,0s.05,0,.06,0a.06.06,0,0,1,0,.07.27.27,0,0,1-.08.07Zm.15.07h0s0,0,0,0h0s0,0,0,0h.09S54.74,54.84,54.73,54.85Zm0-1.74,0,0s0-.06.08-.12l.07,0h0l0,0s0,.06-.07.12l-.07,0ZM56,51.48h0l.05,0h0l0,0h0Zm0,.22h0l-.07,0h-.09s0,0,0,0H56Zm-.43.5s0,0,0,0h0s0,0,0,0h0Zm0-.05a.19.19,0,0,1,.08,0h0s0,0,0,0h0a.16.16,0,0,1-.09,0Zm.07.46h0s.08,0,.09,0,0,0,0,0l.07,0s-.06.06-.12.08h-.08s0,0,0,0Zm.13-.29h0a.26.26,0,0,1,.1,0h0l0,0h-.09Zm.1-.3h-.08l.07,0,.08,0h0A.14.14,0,0,1,55.83,52Zm0-.2s-.07.13-.12.18l-.07,0s0,0,0,0,0,0,0,0h-.11l.05,0h.07l0,0c.1-.08.15-.1.19-.1Zm-.34.32h0v0h-.07s0,0,0,0Zm0,.11h0l0,0h-.09l0,0Zm.08,2v0l0,.06-.07.05-.06,0,0,0,0,0,.08-.06Zm0-.47,0,0h0l0,0v0H55.5Zm0,1h0a0,0,0,0,1,0,0h0S55.55,54.74,55.54,54.75Zm-.08-2.17h-.08l0,0Zm-.09,0s0,0,0,0h-.11l.08,0Zm-.1.44.07-.05a.05.05,0,0,1,.07,0l0,.08,0,0h-.06l0,0Zm0,.3h0l0,0h0l0,0h0Zm-.08.75s0,0,0,.06h0a.07.07,0,0,1-.06,0h0l0,0,0,0h0Zm0,.91h0Zm-.3,1.25h0l0,0h0v0h-.06Zm0-1.33h-.07a0,0,0,0,1,0,0h0a0,0,0,0,1,.06,0H55v0h0v0h-.06A.06.06,0,0,1,54.89,54.9Zm.06-.12h0a0,0,0,0,1,0,0h0v0Zm0-.41h-.05s0,0,0,0h0l0,0h0Zm-.09-.6,0,0s-.07,0-.08,0l0,0a.24.24,0,0,1,.14-.07H55A.32.32,0,0,1,54.9,53.77Zm.07-.25h-.06v0l0,0a.15.15,0,0,1,.08-.05,0,0,0,0,1,.06,0l0,.08Zm.09-.92-.08,0s0,0,0,0h.09s0,0,0,0Zm-.08.21h0a.25.25,0,0,1-.12,0h0l0,0h0A.17.17,0,0,1,55,52.81Zm-.17,2.63h-.05v0h0s0,0,0,0h0s0,0,0,0Zm.32,1.27a.67.67,0,0,1-.2.14.08.08,0,0,1-.11-.05l0,0,0,0a1.16,1.16,0,0,1,.21-.16h0v.06a.06.06,0,0,1,0,0Zm.1-1.32h0s0,0,0,0h0s0,0,0,0Zm0,.12a0,0,0,0,1,0,0h.06s0,0,0,0v0h0S55.25,55.52,55.25,55.51Zm.07.3h0a0,0,0,0,1,0,0Zm.06-.14h-.07a0,0,0,0,1,0,0,.07.07,0,0,1,.08,0v0h0s0,0,0,0Zm.17.8-.08.07h0l-.05,0s0-.08.06-.12.11-.06.13,0l-.05,0Zm0-2.87s-.1.06-.14,0v0l0-.06s.1-.07.14,0h0Zm.09-.82,0,0h0s0,0,0,0h0l0,0h.07s0,.08-.1.14l0,0c-.05,0-.07,0-.08,0Zm0,.26a0,0,0,0,1,0,0h0v0Zm.09.13-.06,0h-.06l0,0h.08Zm.1-.22-.09,0s0,0,0,0h.08Zm0-.37,0,0H55.8v0l0-.05.07,0a.05.05,0,0,1,.07,0ZM56,54.15h0s0,0,0,0h0A0,0,0,0,1,56,54.15Zm0,0h0v-.05h0a.1.1,0,0,1,.09,0h0s0,0,0,0l-.06,0ZM56.11,53h0a.15.15,0,0,1,.08,0h0c.12-.07.21-.1.25,0l0,0,0,.07a.16.16,0,0,0-.06.05.28.28,0,0,1-.1.11h0l0,0,0-.07,0,0,0-.06Zm.07-1h.07l0,0h0l0,0h0s0,0,0,0h0Zm.27-.39h0s0,0,0,0,0,0,0,0h0l0-.07c.05,0,.16-.07.19,0a.07.07,0,0,1,0,0l0,.06,0,0a.81.81,0,0,1-.2.11h0s0,0,0,0h0s0,0,0,0l.05,0h0Zm.93-2.11,0-.06.07-.06.07,0,0,0,0,.07-.07,0-.07,0h0l0,0Zm.36-.41h.06a.13.13,0,0,1,0,.07.13.13,0,0,1-.09,0h0l0,0h-.07a.09.09,0,0,1,0-.08s.07,0,.08,0h0l0,0Zm.28-.45h0l0,0,.11-.1.05,0v0h0v0l.07-.06.07,0,0,0,0,.06-.07.06h0l0,0a.81.81,0,0,1-.19.14l-.06,0,0,0c-.06,0-.05-.06,0-.09v0l0,0S58,48.59,58,48.57Zm.12-.35h.08s0,0,0,0l0,0h-.06s0,0,0,0h0Zm.19.14h0s0,0,0,0v0Zm0-.14h-.11a.2.2,0,0,1,.11,0h0Zm-.18,0,0,0v0h-.08s0,0,0,0h0Zm.43.18h0a.22.22,0,0,1,.12-.06s.06,0,.06,0h0l0,0h-.06s0,0,0,0h-.09s0,0,0,0h0l.05,0Zm0-.32h.08s0,0,0,0,0,0,0,0h-.06s0,0,0,0h0Zm1.21-2.94a.3.3,0,0,1-.11,0h0a.05.05,0,0,1,0,0h.08Zm-.12.85h0s0,0,0,0h.14l0,0h-.07Zm.06-.87h0s0,0-.05,0h0l0,0h0l0,0h0Zm-.07.64h.1l-.06,0h0s0,0,0,0h0Zm0,.28,0,0,.09,0h0l0,0L60,46h0L60,46h0l.07,0c.09,0,.12.05.13.08s0,0,0,0a.73.73,0,0,1-.29.07l-.06,0h0a.26.26,0,0,1-.13.06l-.07,0h-.08C59.53,46.12,59.63,46.07,59.68,46.05Zm1.72-4.72h.07s0,0,0,0h0s0,0,0,0a.34.34,0,0,1-.09.08l0,0h0s0,0,0,.06l0,0c-.07,0-.09,0-.09,0l-.05,0h0s0,0,0-.08a0,0,0,0,0,0,0v0h0l-.07,0c0-.06,0-.15.12-.26l0,0a.26.26,0,0,1,.14,0s0,0,0,0v0a.18.18,0,0,1-.05.07S61.39,41.33,61.4,41.33Zm.72-11.41a.49.49,0,0,1,.11-.14.34.34,0,0,0,.06-.06l.08,0h0l.08,0c0,.06,0,.16-.13.28l-.08,0h0s0,0,0,0h-.05a0,0,0,0,1,0-.05h0Zm.29,3,.1-.08a.59.59,0,0,1,.08-.08l.07,0a.13.13,0,0,1,0,0s0,0,0,0v0l0,0a.25.25,0,0,1,.08-.05l0,0h0l0,.06s0,.06-.08.1l0,0a.27.27,0,0,1-.13.07h-.08v0a.2.2,0,0,1,0-.1h0a.59.59,0,0,1-.16.08h0v0l0,0h0Zm.07-10.65h0v0h0a.06.06,0,0,1,.07,0h0v0h-.06Zm.13.56v0h0v0h0s0,0,0,0h0ZM64.2,34.65l0-.06.11-.09.06,0h0s0,.11,0,.15h0s-.06.09-.09.11l0,0-.07,0s0-.08,0-.11S64.21,34.66,64.2,34.65ZM64,40.54h0a.06.06,0,0,1,.06,0s0,0,0,0v0l-.06.07-.05,0s0,0,0,.07,0,0,0,.06l-.06.05-.14.09-.16.11h0l0,0h0l0,0h-.09a.6.6,0,0,1,.21-.21c.09-.06.09-.07.09-.08l0,0,.09-.06h.06A.3.3,0,0,1,64,40.54Zm-.09-.33h0a.14.14,0,0,1,.1,0h0l-.06,0ZM64,41h0s.06,0,0,0h0L64,41s0,0,0,0h0Zm0-.17h.08s0,0,0,0H64S64,40.78,64,40.78Zm-1.22,1.91a.34.34,0,0,1-.12.11c-.1,0-.17,0-.11-.11l0-.06h-.07l0,0h.07l0,0h.05s0,0,0,0a0,0,0,0,1,0,0h0v0l0,.05v0Zm-.36,0h0v0h-.09a.27.27,0,0,1,.13-.05h0s0,0,0,0l-.08,0Zm.1,1.88,0,.07-.08,0,0,0-.07,0s0-.05,0-.09l-.07.07-.05,0h-.07s0-.06,0-.08,0,0,0,0l0,0c.06,0,.1,0,.1,0h0v0a.57.57,0,0,1,.11-.1h.06a.09.09,0,0,1,0,.1.36.36,0,0,1-.09.08A.22.22,0,0,1,62.52,44.52ZM62,45.66h0l0,0h0Zm0-.56v0h0v0H62Zm.07-.27a.12.12,0,0,1-.08,0h0l0,0h.08Zm-.29-.09v0a.57.57,0,0,1-.2.15h-.05s0-.07,0-.12a.49.49,0,0,1,.16-.12h0s0,0,0-.06h0a.27.27,0,0,1-.12,0s-.06,0,0,0h.06l0,0h.07s0,0,0,0a.13.13,0,0,1,.06-.07l.06,0,0,0,0,.07-.06,0h.08s0,0,0,0h0Zm-.11,1.82,0,0h-.09a.05.05,0,0,1,0,0h0s0,0,0,0l0,0,0,0-.06.06h-.07s0,0,0,0l0,0,0-.07,0,0h0v0l0,0h0l.1,0h0l0,0,0,.06,0,0h0Zm0,.63h0l0,0h0s0,0,0,0Zm-.29.33h0s0,0,0,0v0Zm-.17-.79h0l0,0h0s0,0,0,0h.05a.19.19,0,0,1-.12,0h0S61.2,46.74,61.2,46.73Zm-.13,1a.36.36,0,0,1-.12.11c-.1,0-.17,0-.11-.11a.45.45,0,0,1,.14-.13H61s0,0,0,0a.06.06,0,0,1,0,0h0v0l0,0v0Zm-.2.3h0l0,0,0,0h0s0,0,0,0h0l0,0h.09s0,0,0,0h0Zm0-.13h-.07l0,0h0l0,0h0s.07,0,0,0h0Zm-.25-.3s0,0-.05,0h0a.19.19,0,0,1,.1,0h0S60.61,47.54,60.59,47.55Zm0,.11a0,0,0,0,1,0,0h-.05s0,0,0,0h0Zm-.78,2.74s-.08.05-.11,0,0,0,0,0v0l0-.07.08,0h0l0,0h.09s0,0,0,0h0l0,.07,0,0v0Zm-.2-.53h0l0,.07a.77.77,0,0,0-.19.15l-.08,0s0-.09,0-.12v0h0l.07-.09,0,0,0,0v0h0a.24.24,0,0,1,.12-.11s0,0,0,0h0a0,0,0,0,1,0,0,.06.06,0,0,1,0,0h0l0,.05,0,0Zm-.09,1.59-.07,0h0s0,0,0,0a.21.21,0,0,1,.11,0h0v0h0Zm.05.06h-.06Zm-.1,0h-.08l0,0h.05Zm-.06-.87s0,0-.06,0l0-.08c.06,0,.1,0,.12,0h0l0,0A.15.15,0,0,1,59.43,50.66Zm-.16-2.74s0,0,0,0h0l0,.07c-.1.07-.12,0-.07-.05l.08-.08h0v0Zm.21.64h.09l0,0h0l-.07,0h0Zm0-.8s-.07,0-.08,0h0l.05,0h0c.05,0,.05,0,0,0h-.05ZM60,46.3h0l0,0a.11.11,0,0,1,0,.05l0,0h.06v0h0l-.06,0h0s0,0,0,0a.44.44,0,0,1-.16.14l0,0s0-.06,0-.09l0-.08h0l-.1,0,0,0h0l0,0h0l.05,0h0l0,0h0c.06,0,.08,0,.09,0h0Zm.36,0h0s0,0,0,0h0v0h0s0,0,0,0h-.12l0,0a.14.14,0,0,1-.08,0,.13.13,0,0,1-.11,0H60c0-.06.14-.09.2-.1l.06,0v0S60.28,46.32,60.31,46.31Zm.19.72s0,0,0,0l0,0h-.05s0,.08-.11.11h-.15a.1.1,0,0,1-.07-.05h0s0,0-.06,0,0,0,.05,0h0l.11,0h0l.11,0h.06v0h.07Zm0,1.07s0,0,0,0h0Zm0,.8h0l0,0h0l-.06,0h0s0,0,0,0h0a.09.09,0,0,1,.07,0h0s0,0,0,0h0Zm0,.35s0,0,0,0,0,0,0,0h0Zm-.45.46a.16.16,0,0,1,.09,0h0s0,0,0,0a.06.06,0,0,1-.06,0h0Zm0,.07h0l0,0h-.05s0,0,0,0H60Zm0,.39.11,0s.08,0,.06,0,0,0,0,0H60Zm.17-.33h-.05s0,0,.05,0h0Zm0-1.76H60l.1,0h0Zm0-.15,0,0L60,48s0-.05,0-.09a.44.44,0,0,1,.15-.1h0s0,0,0,0A.24.24,0,0,1,60.08,47.93Zm-.27-.35h-.09l0,0h.13Zm0,.76v0l0,0H59.7l0,0h.07Zm0-.87h-.06s0-.06,0-.08h0s0,0,0,0a.37.37,0,0,1,.13-.14l.06,0h0l0,0H60a.1.1,0,0,1,0,.12A.64.64,0,0,1,59.82,47.47Zm.22-.6s0,0,0,0,0,0,0,0h0s0,0,0,0h0s0,0,0,0h0Zm0,.76h0l0,0h0s0,0,0,0h0l0,0H60s0,0,0,0h0Zm0-.13H60l0,0h.08s.06,0,0,0h0Zm-.09.3H60l0,0H59.9S59.92,47.8,59.93,47.8Zm.21-.39h0s0,0,.06,0h0s0,0,0,0h-.07S60.15,47.42,60.14,47.41Zm0,1.74,0,0h0l.08,0h0s0,0,0,0h0l0,0H60.2s0,0,0,0Zm.14.56h0v0h-.07Zm0-1.09h0s0,0,0,0h0s.1,0,.11,0h0s0,0,0,0h0l0,0Zm.08-.17-.06,0h.06Zm0-.76h0s0,0,0,0h0Zm.1-.35,0,0h-.06v0h-.1s0,0,0,0h.06a.32.32,0,0,1,.11-.06s.07,0,.06,0Zm0-.12s0,0,0,0h.06l0,0h0Zm-.8-.82h0v0h0a.2.2,0,0,1-.1,0h0l0,0h0Zm.08,2.6,0,0A.28.28,0,0,1,60,49h0l0,0s0,0-.06.06h0a.52.52,0,0,1-.16.06.52.52,0,0,0-.15.06h-.12s-.06,0-.06-.06l0,0,.06,0A.59.59,0,0,0,59.78,49Zm.09.84h-.09l.07,0Zm-.24-.61,0,0h-.05s0,0,0,0h.07Zm0,0h0l0,0h.05l0,0h0l0,0h0Zm0-.33h0s0,0,0,0S59.61,48.93,59.6,48.93Zm-.09-.33h.05s0,.06,0,.07,0,0,0,0l0,.05-.06,0c-.05,0-.06,0,0-.08A.18.18,0,0,1,59.51,48.6Zm-.09.61h.1a.3.3,0,0,1-.14.06h0v0h.06Zm0,.16h0s0,0,0,0h0s0,0,0,0h0A.08.08,0,0,1,59.39,49.37Zm0,.49h0l0,0s0,0,0,0h0l0,0h0Zm-.1-1.38,0,0h0a0,0,0,0,1-.05,0h0l.05,0h.07Zm-.16,1.84h.09s0,0,0,0h-.09S59.17,50.34,59.18,50.32Zm-.09.24H59s0,0,0,0H59a.23.23,0,0,1,.12-.05h0s0,0,0,0h0l0,0v0h0Zm-.13.69h0v0l0,0,0,0h.08s0,0,0,.05h0Zm0,.41h0s0,0,0,0h0Zm-.06-1.14h-.06s0,0,0,0h0l0,0h0s.05,0,0,0h0A0,0,0,0,1,58.9,50.52Zm0-.64h-.07s0,0,0,0h0v0h0Zm.08.68h0l0,0s0,0,0,0H59Zm0-1.05.07,0h0v0H59Zm.09.86s0,0,0,0h0l0,0h0l0,0h0S59.07,50.37,59.05,50.37Zm0-.67c-.05,0,0-.07,0-.09l.07-.07s.09,0,.12,0h0l0,.06-.1.07h-.07Zm.09-.34.08,0h0s0,0,0,0l-.06,0s0,0,0,0h0Zm0-.11h0s-.05,0,0,0a.19.19,0,0,1,.09,0h0s0,0,0,0Zm0,.7h.08l-.05,0h-.07Zm.08-1.18s-.05.06-.09.09,0,0,0,0l-.09,0s0,0,0-.09a.49.49,0,0,1,.15-.09h0S59.29,48.75,59.28,48.77Zm-.15-.16a.1.1,0,0,1,0,0h.07s0,0,0,0h0l-.08,0Zm.13-.41-.06,0h0l.09-.05h0s0,0,0,0Zm-.08,0a.11.11,0,0,1,.07,0h0s0,0,0,0,0,0,0,0h-.09Zm-.06.3h0l.06,0h0a0,0,0,0,1,0,0h-.09s0,0,0,0Zm0,.1a.12.12,0,0,1,.08,0h0l0,0h0l0,0Zm.05.19h0l0,0h0a.27.27,0,0,1-.12,0h0l0,0H59s0,0,0,0A.14.14,0,0,1,59.13,48.75ZM59,47.86h0l0,0h-.07l0,0h0S59.05,47.85,59,47.86Zm-.09.52s0,0,0,0h-.07Zm0,.91,0,0h-.07a.24.24,0,0,1,.09,0Zm-.08,1.42h0s0,0,0,0h0l-.09,0h0Zm.07.46H59l-.07,0h-.08S58.89,51.19,58.92,51.17Zm-.06.58h0a.34.34,0,0,1,.1,0h.12l.08,0h-.1l-.09,0h0l-.06,0h0s0,0,0,0h0Zm.23-.34h0a0,0,0,0,1,0,0H59l0,0h0s0-.08.06-.17a.3.3,0,0,1,.11-.06s.07,0,.09,0a.08.08,0,0,1,0,.08l0,0A.42.42,0,0,1,59.09,51.41Zm.13,0,.06,0h0s0,0,0,0h0a.19.19,0,0,1-.08,0h0s0,0,0,0Zm.07-.55h0s0,0,0,0h.07v0h-.07Zm.38-1.22h0a.11.11,0,0,1,.08,0h0l0,0Zm.29.65a.24.24,0,0,1,.11-.06.07.07,0,0,1,.09,0,.11.11,0,0,1,0,.08l0,0a.36.36,0,0,1-.16.12C59.87,50.53,59.8,50.46,60,50.32Zm.18-.78h0l.08,0h0l0,0Zm0,.69h0Zm.1.22h0Zm0-.45h0l.1,0h0l0,0h0A.13.13,0,0,1,60.26,50Zm.2.14h0a.14.14,0,0,1-.08,0h0S60.43,50.15,60.46,50.14Zm0-.24h0v0h0a.07.07,0,0,1-.09,0h0l.06,0,0,0h0Zm0-1.07h0s0,0,0,0v0l0,0s0,0,.06,0,.05,0,.06,0,0,0,0,.07A.27.27,0,0,1,60.45,48.83Zm.17-1.55h0s0,0,.06,0h0s0,0,0,0h-.12Zm.09-.49h0l-.06,0a.3.3,0,0,1-.19,0,.66.66,0,0,1-.21,0l-.06,0a.1.1,0,0,1,.05-.06l0,0,.09,0h.16l0,0a.3.3,0,0,1,.12,0h.08a.05.05,0,0,1,.05,0h0Zm-.2-.44s0,0,0,0h.08l0,0h-.05Zm.27-.1a.27.27,0,0,1,.1-.06s.08,0,.1,0a.11.11,0,0,1,0,.08l0,0a.51.51,0,0,1-.16.11C60.69,46.46,60.62,46.39,60.78,46.25Zm.67-3.84h.07s0,0,0,0a.09.09,0,0,1-.06,0,.08.08,0,0,1-.07,0h0s-.06,0,0,0l0,0h.1ZM62.19,41v0h.06s0,.07-.11.15H62s0-.06,0-.09A.13.13,0,0,0,62,41L62.1,41C62.16,40.94,62.18,41,62.19,41Zm-.06-1.27a.23.23,0,0,1,.09-.14s.1-.05.13,0l-.08.08h0l-.06.06Zm0,3.83h-.05c-.06,0-.09,0-.07,0h0l.08,0h.11l0,0h0Zm0,.41s0,0,0,0h0L62,44h0a.19.19,0,0,1,.08,0Zm0-1.16,0,0h.09s0,0,0,0h0l0,0h0S62.12,42.82,62.13,42.81Zm.07.45.08,0H62.2Zm0,.1h0s.05,0,0,0h0a.16.16,0,0,1-.09,0h0Zm.08.47.08,0h0a.14.14,0,0,1-.07,0h-.08Zm0-.67h-.05l0,0h0s0,0,0,0h0Zm0-1.17h0l-.09,0h0l.06,0h0s.06,0,0,0Zm0-.2H62.2s0,0,0,0h.09Zm0-.34h-.08l.08,0s0,0,0,0Zm-.21.28h0a0,0,0,0,1-.06,0h.06Zm0,.55s0,0,0,0l-.06,0h-.07s0,0,0,0H62Zm-.11,1.15h0s0,0,0,0h0l0,0h0s0,0,0,0h.11Zm0,0h0a.11.11,0,0,1-.08,0h0S61.91,43.45,61.93,43.44Zm-.2,1,.08,0h0s0,0,0,0h-.11Zm.1-1.57a.28.28,0,0,1-.1.09l-.08.06-.08,0a.06.06,0,0,1,0-.07.81.81,0,0,1,.1-.09.16.16,0,0,0,.08-.06l.08,0A.06.06,0,0,1,61.83,42.89Zm0-.9h0s0,0,0,0h.05s0,0,0,0Zm-.2,4h-.09l0,0h0Zm-.16-.62,0-.06s0,0,0,0,0-.08.22-.09l0,0s0,.07-.1.1A.54.54,0,0,1,61.45,45.41Zm-.46.81s0,0,0,0h0v0h.08l0,0h0Zm-.2-.54h0a0,0,0,0,1,0,0h0s0,0,0,0l0,0h0Zm0,.31,0,0h0l0,0h0Zm.05-.19c0-.06.14-.09.22-.1l.1,0,0,0h.09c0,.08-.13.12-.21.13H61s0,0-.1,0Zm.39-.11s0,0,.06,0h0l-.05,0h0ZM61,46h0v0H61v0h0Zm-.07,0,0,0h0s0,0,0,0h.11l-.05,0h0s0,0,0,0h-.08Zm.06.12h0l0,0h.06s0,0,0,0H61Zm.16.54h.07v0h-.14S61.1,46.67,61.13,46.66Zm0-.44,0,0v0l0,0h0a.42.42,0,0,1,.24,0h0c0,.05,0,.09-.1.12A.41.41,0,0,1,61.15,46.22Zm.15-.16a.26.26,0,0,1,.1,0h0s0,0,0,0h0l-.08,0Zm.11-.2h.05ZM61.23,44l0,0h0s.1,0,.08,0h-.06a.08.08,0,0,1-.06,0h0Zm0-.08H61.1s0,0,0,0h.12l0,0Zm0-.92a.2.2,0,0,1,.09-.1s.11,0,.13,0v0l0,0-.09.07h-.07v0h0Zm.34.23h0l0,0s0,0,0,0h0l0,0h0l0,0Zm0-.87h0l.05,0h0s0,0,0,0h-.07Zm0,1.76-.06,0h0s0,0,0,0h0Zm-.09-.35h0l0,0h-.1a.26.26,0,0,1,.1,0Zm-.12.5h0s0,0,0,0h0Zm-.17-.16h.13s0,0,0,0H61.2Zm.12.59,0,0h.08a.25.25,0,0,1-.12,0h0Zm.13-.25h.09l-.09,0S61.42,44.46,61.45,44.44Zm.07-.28h0l0,0h.08A.23.23,0,0,1,61.52,44.16Zm.08-.36h0s0,0,0,0h.12l0,0H61.6Zm0-.28h0a.18.18,0,0,1,.09,0h0A.32.32,0,0,1,61.6,43.52Zm.06-1.43,0,0h0l-.06,0h0s0,0,0,0h.07l.08,0h0S61.67,42.08,61.66,42.09Zm-.41,0h-.12s0-.07,0-.1a.13.13,0,0,0,0-.06l.06-.06c.06,0,.08,0,.09,0v0h.07S61.38,42,61.25,42.09Zm0,.15h.06l-.05,0h-.09Zm0,.82h-.06s0,0,0,0l0,0Zm0,.57h0v0s.08,0,.1,0a.11.11,0,0,1,0,.08l0,0a.33.33,0,0,1-.13.07h-.07S61.1,43.66,61.14,43.63Zm-.06,1.31h0l.08,0s0,0,0,0h0a.08.08,0,0,1-.06,0h0Zm0,.58,0,0,.13,0,0,0c.07,0,.1,0,.1,0l0,0a0,0,0,0,1,.06,0l-.05.07h0a.18.18,0,0,1-.09.1h0l0,0a.19.19,0,0,1-.17,0h0l-.07,0a0,0,0,0,0,0,0Zm-.07.16h-.09v0l.05,0h0S61,45.65,61,45.68Zm-.11-.12-.07,0-.07,0h0s0-.05,0-.07l.08-.08h.06l0,0Zm0-.74,0,0h0Zm-.07.33h0a.1.1,0,0,1,0,.09.52.52,0,0,1-.13.13l-.06,0s-.06,0,0-.11l0,0a.39.39,0,0,1,.11-.08Zm-.19.34,0,0s0,0-.05,0h.05S60.65,45.48,60.64,45.49Zm0,.26h.06s0,0,0,0h-.06s0,0,0-.05h0Zm.29,1.7,0,0H61a0,0,0,0,1,0,0h0v0a.15.15,0,0,1-.06,0h0s0,0-.06,0,0,0,0,0S60.87,47.47,60.89,47.45Zm.22-.3,0,0-.06,0h0s.06,0,.08-.06h0l0,0a.27.27,0,0,1,.07-.06s.06,0,.07,0l0,.07-.05,0h0S61.12,47.14,61.11,47.15Zm.57-1.59s0,0,.06,0h0l0,0h0Zm.12-.07h.08l0,0h0s0,0,0,0Zm.05-1,0,0h0Zm0,1.27h0s.06,0,0,0l0,0s0,0,0,0Zm.07-1.6-.08,0h0l0,0,.08,0h0Zm0-1.31h0s0,0,0,0H62v0Zm0,1.72s0,0,0,0l0,0h.08a.26.26,0,0,1-.14.06s-.06,0,0,0Zm.4-.9h-.06s0,0,0,0h.07s0,0,0,0h0s0,0,0,0h0Zm0-2.12s0,0,0,0h0a.22.22,0,0,1,.1,0h0l0,0h-.05l-.07,0h0Zm0,.94h0l.08,0h0v0s0,0,0,0h0l-.06,0h0a0,0,0,0,1,0,0s0,0,0,0Zm.1-.3a.06.06,0,0,1,0-.07.28.28,0,0,1,.1-.09.24.24,0,0,0,.08-.06l.08,0a.06.06,0,0,1,0,.07.31.31,0,0,1-.11.09l-.07.06Zm.08-.93h.07s0,0,0,0h0l-.08,0h0Zm0-.41a.15.15,0,0,1,.08,0h-.08Zm.14-.23s0,0,0,0h0l0,0h0a.1.1,0,0,1,.07,0h0s0,0-.07,0h-.07Zm.14,1.78s0,0,0,0h.06l.08,0h0a0,0,0,0,1,0,0,0,0,0,0,1,0,0h0a.08.08,0,0,1-.06,0h0Zm.52-6.4a.28.28,0,0,1-.13.16c-.06,0-.12.05-.15,0s0-.08.07-.14.15-.1.19-.07h0Zm.16,5.49h.06s0,0,0,0H63.5Zm0,.33h.08s0,0,0,0v0l-.07,0h0a.28.28,0,0,1-.13,0h-.06C63.31,41.85,63.45,41.8,63.52,41.78Zm-.52.1,0,0H62.9s0,0,0,0H63Zm-.1.29H63v0a.19.19,0,0,1-.08,0h0s0,0,0,0Zm.08-.24h.08s0,0,0,0h0l0,0Zm.05-.69h-.09a.2.2,0,0,1,.08,0h.06Zm0-.62-.05,0H62.9a.13.13,0,0,1,0-.09l0,0,0-.05c.06,0,.1,0,.09,0l0,0a.06.06,0,0,1,.06,0l0,.08h0S63.09,40.58,63,40.62ZM63,39l.07,0,.06,0h0s0,.05,0,.07a0,0,0,0,0,0,0l-.05.08a.11.11,0,0,1-.07,0h0Zm0-.2s0-.09.09-.14a.13.13,0,0,1,.13,0l-.08.09h0l0,.07Zm.12,2a.26.26,0,0,1,.09,0h0s-.06,0-.09,0h0Zm0,1h0v0h0a.22.22,0,0,1,.1,0h0l0,0,0,0h0l-.07,0Zm0,1.12a.32.32,0,0,1,.14,0h0s0,0,0,0a.19.19,0,0,1-.09,0h-.06Zm.1-3h-.05s0-.07,0-.12a.48.48,0,0,1,.16-.13h0l0,0v0A.57.57,0,0,1,63.27,39.94Zm.16-.93h0l-.06,0h0l0,0h.06Zm0,1.74a.17.17,0,0,1,.11,0h0l0,0H63.4Zm0-2.76-.07.06-.08,0s0,0,0-.07.07-.06.1-.08a.27.27,0,0,0,.08-.07l.08,0a.07.07,0,0,1,0,.08Zm-.22-1.35h-.06s0,0,0-.06,0,0,0,0l.05,0h.16l.06,0A.36.36,0,0,1,63.21,36.64Zm-.14.3s0,.07-.11.16h-.12a.38.38,0,0,1,0-.1.43.43,0,0,1,0-.05l.06-.07c.06,0,.08,0,.09,0v0Zm-.17,6.77h0l.09,0h0a.32.32,0,0,1-.13.05h0Zm0-.84.05,0c.06,0,.1,0,.12,0a.08.08,0,0,1,0,.07L63,43l-.07,0,0,0A.07.07,0,0,1,62.9,42.87Zm.17-.8H63s0-.09.06-.11.09,0,.1,0v0A.36.36,0,0,1,63.07,42.07Zm.09,1.47,0,0h0a.3.3,0,0,1,.08-.08h.06a.09.09,0,0,1,0,.1.3.3,0,0,1-.1.09h0a.06.06,0,0,1,0-.08h0s0,0,0,0Zm.13.12.08,0h.07s0,0,0,0l-.06,0-.08,0h0Zm.11-.8-.08,0s0-.05,0-.08h0a.46.46,0,0,1,.19-.17l0,0s0,0,0,0l0,.06a.36.36,0,0,1-.12.09Zm.16-.37h-.07s0,0,0,0a0,0,0,0,0,0,0l0-.05c.12-.1.17-.07.18-.06v0l0,.05a.61.61,0,0,1-.12.09Zm.16-.76h0l-.07,0h0s0,0,0,0h0a.22.22,0,0,1,.1,0h0l0,0Zm0-.42h-.07s0,0,0,0h0l0,0h.07s0,0,0,0S63.77,41.3,63.74,41.31ZM63.9,40l0,0h-.06s0,0,0,0h-.09s0,0,0,0h0a.28.28,0,0,1,.12-.05s.06,0,.06,0Zm-.2-1.68-.05,0,0,0s0,0,0,0,0,0,0,0v0a.27.27,0,0,1,.13-.09v0s0,0,.07,0,0,.06,0,.11l-.08.08Zm0-1v0l.06,0h0l0,0Zm.11,1.2.06-.08s0,0,0,0H64s0,.08-.11.15H63.8ZM64,37h-.06s0,0,0,0h0l.07,0a.15.15,0,0,1,.09,0h0Zm.07-.46,0-.05.05,0a.38.38,0,0,1,.09-.08l.05,0h0a.08.08,0,0,1,.08,0v0a.09.09,0,0,1,0,0h0a.3.3,0,0,1-.09.1l0,0-.1,0h0S64,36.6,64,36.53Zm.19.34.06,0h0c.06,0,.08,0,.09,0h-.16Zm0-1.71s0,.11-.1.17l-.1.05a.06.06,0,0,1-.07,0,.2.2,0,0,1-.12.06h0s0-.1,0-.17a.38.38,0,0,1,.16-.12h0a.09.09,0,0,1,0,.05C64.21,35.13,64.24,35.14,64.25,35.16Zm-.27-.5h0l-.06.06h-.07s0-.09.09-.14.09-.05.12,0Zm-.11.78a.7.7,0,0,1-.14.17l-.06,0-.08,0a.07.07,0,0,1,0-.08v0l0-.06.09-.07.07,0h.09Zm-.26,2h0l0,0h-.16a.1.1,0,0,1,0,0h.13Zm-.14-1.91h0s-.06.09-.08.12l0,0-.07,0s0-.08,0-.11,0,0,0,0l0-.06.11-.09.06,0h0S63.5,35.51,63.47,35.56Zm-.12-.84,0,.06a.1.1,0,0,0-.05.07h0s0,0,.06,0h0v0a.43.43,0,0,1-.15.15s-.09,0-.12,0h0l-.05,0a.08.08,0,0,1-.09-.07.08.08,0,0,0,0-.06v0h0c0-.11.16-.2.26-.27a.66.66,0,0,0,.18-.14l.09,0s0,.09,0,.14S63.35,34.69,63.35,34.72Zm-.85,4.81.11,0s0,0,0,0H62.5Zm0,1h.06l0,0,0,.07-.06,0-.07,0h0a0,0,0,0,1,0-.06A.22.22,0,0,1,62.54,40.49Zm0,.91h0l0,0h0l-.12,0h-.05a0,0,0,0,1,0,0h0l0,0h0v0A.12.12,0,0,1,62.49,41.4Zm-.08-.18,0,0h0l0,0v0l0,0h0l0,0s0,0,0-.06l0,0c.05,0,.13-.08.16,0l-.06,0Zm0-3.25c-.12,0-.14,0-.14,0a.08.08,0,0,1,0,0h0l.06,0s.12,0,.13,0v0Zm-.06-.65a.34.34,0,0,1-.09.08l0,0-.09,0a.08.08,0,0,1,0-.06.24.24,0,0,1,.1-.08l0,0h.07S62.33,37.3,62.32,37.32Zm-.27,0-.07,0-.07,0c0-.06,0-.14.12-.26l0,0a.15.15,0,0,1,.13,0h0v0A.41.41,0,0,1,62.05,37.37Zm-.1,2.2,0,0H62s.08,0,.1,0a.11.11,0,0,1,0,.08l0,0a.45.45,0,0,1-.14.07h-.06S61.92,39.59,62,39.57Zm-.06.52h0s0,0,0,0h-.09s0,0,0,0,0,0,0,0Zm0,1.4.08,0H62v0l-.05,0-.1,0h0l-.07,0H61.8s-.07,0-.07,0h0Zm-.11.43h.07s0,0,0,0h0a0,0,0,0,1-.05,0s0,0,0,0Zm0,.18h0s.06,0,0,0h0l-.09,0h0Zm0-1.23,0,0h0l0,0h0a.24.24,0,0,1,.1,0h0Zm-.11,1h-.1l0,0h.07Zm-.47.57h0v0h0Zm-.07,2.72h0s0,0,0,0h.09ZM61,44.2h-.14l.06,0h0a.16.16,0,0,1,.09,0h0Zm0-.42s-.06.06-.09.09l0,0-.08,0s0-.05,0-.09a.4.4,0,0,1,.15-.09h0A.06.06,0,0,1,61,43.78Zm-.15.4h0s0,0,0,0h-.12l0,0h0Zm-.12.11,0,0h.07s0,0,0,0h0a.26.26,0,0,1-.13.06s-.06,0,0,0l0,0Zm-.06,0s0,0-.07,0h-.08a.15.15,0,0,1,.06,0h.09Zm-.07,1.61h.08l0,0a.07.07,0,0,1,0,.06v0l0,0,0,0,0,0h0l0,0h-.11l0,0a.43.43,0,0,1-.16.07l-.07,0h0s0,0,0-.05l.05,0h0l0,0,0,0h.12s0,0,0-.07l-.07,0,0,0h0l.07,0A.34.34,0,0,1,60.59,45.91Zm-.41-.06,0,0h.08l-.06,0h-.07Zm.18-.11.06,0s0,0,0,0h0a.1.1,0,0,1-.07,0h0l0,0s0,0,0,0h0Zm0-.4h0s0,0,.06,0h0Zm0-.69,0,0h-.05v0l.06,0h0Zm.07-.37H60.4a.2.2,0,0,1,.07,0h0Zm-.06.22a.11.11,0,0,1,0,.08l0,0-.14.07h-.07s0-.11.08-.14h.06S60.39,44.48,60.41,44.5Zm-.21.31h0l0,0h-.11l0,0h.09Zm-.1.67h0l0,0-.1.07h-.07s0-.06,0-.08l.07-.08S60.07,45.44,60.1,45.48ZM59.6,47h0s0,0,0,0H59.5S59.58,47.05,59.6,47Zm-.11-1.26h-.06l0,0,0,0h0ZM59.43,47h-.12s0,0,.06,0h0S59.45,47,59.43,47Zm-.11.88h0l0,0h0a.15.15,0,0,1,.08,0h0a0,0,0,0,1,0,0l-.06,0h-.08S59.31,47.92,59.32,47.91ZM59.25,47s0,0,0,0h-.08a.13.13,0,0,1,0-.08.41.41,0,0,1,.1-.06h0l0,0Zm-.07.48,0,0h-.07s0,0,0,0h.07Zm-.06-.58s0,0,0-.06,0,0,0,0h-.08l0,0,.07,0h0a0,0,0,0,1,0,0h.06a0,0,0,0,0,0,0l0,.07h0s0,0,0,0h-.13v0h0v0h0Zm.1-.23h0l-.11,0h-.06s0,0,0,0a.19.19,0,0,1,.08,0c.06,0,.12,0,.12,0Zm-.1.53h0s0,0,0,0H59A.16.16,0,0,1,59.12,47.17Zm0,.32,0,0v0h0s.05,0,.06,0l0,0,0,0a.81.81,0,0,1-.19.14l-.06,0h-.05c-.06,0,0-.05,0-.08s0,0,0,0l0-.06,0,0A.69.69,0,0,1,59.11,47.49Zm-.22,1.27s0,0,0,0h-.1v0Zm-.1-.19h-.06l.1,0h0Zm0-.24h-.07s.06,0,.08-.05h0s0,0,0,0Zm-.31,3.81h0v0h.08a0,0,0,0,1,0,0h0Zm0-.2h0s0,0,0,0Zm0-.07h0s0,0,0,0h0Zm.07-.07h0Zm0-.14h-.09s0,0,0,0l.07,0h0l0,0a.36.36,0,0,1,.09-.07h0v0l0,.06A.14.14,0,0,1,58.54,51.66Zm-.22-2.84h0s0,0,0,.05l0,.07c-.1.07-.12,0-.07-.05A.3.3,0,0,1,58.32,48.82Zm-.07-.11h0a.34.34,0,0,1,.1,0h0l-.06,0Zm.1.37h0l0,0h-.08l.1,0Zm0,.28h0v.05l-.07,0h0l0,0c-.06,0-.11,0-.12,0s0-.05,0-.07A.25.25,0,0,1,58.32,49.36Zm.13,0h0a0,0,0,0,1,0,0h0a0,0,0,0,1,0,0s0,0,0,0Zm0,.09h0s0,0,0,0h0s0,0,0,0h.06Zm-.06,1.21h0l0,0h0s0,0,0,0l0,0S58.43,50.63,58.42,50.64Zm-.05-.11a.37.37,0,0,1-.1.07h-.06c-.06,0,0-.06,0-.08l.07-.08s.09,0,.12,0h0Zm-.18.78h0S58.19,51.3,58.19,51.31Zm0-1.61,0,0h0Zm0,1.41h0l0,0h0a.11.11,0,0,1-.06,0h0l.1,0h.06Zm-.09.5h0l0,0H58v0h0s0,0,0,0h0v0h0S58.07,51.6,58.06,51.61Zm0-1H58s0,0,0,0h.07Zm0-.15H58v0h0l0,0h0A0,0,0,0,1,58,50.5ZM58,50h-.09A.12.12,0,0,1,58,50h0A0,0,0,0,1,58,50Zm-.07,1.8.07,0h0s0,0,0,0l0,0h0S57.94,51.8,57.94,51.79Zm.11.12,0,0H58l0,0h.06ZM58,52l0,0h.09a.27.27,0,0,1-.12,0h0Zm.14-.25h.09s0,0,0,0h0a.16.16,0,0,1-.09,0S58.05,51.8,58.09,51.79Zm.06-.38h0l-.05,0h0s0,0,0,0h0a.2.2,0,0,1,.1,0h.1Zm.15-.47a0,0,0,0,1,0-.06.2.2,0,0,1,.08-.08h.1s0,0,0,0h-.07v0l0,.07C58.37,51,58.32,51,58.3,50.94Zm.27-.15h0v0h0s-.07,0-.08,0h0S58.55,50.79,58.57,50.79Zm0,.72h.09a0,0,0,0,1,0,0h-.09s0,0,0,0h0Zm-.05,0h0l0,0,.08,0h0l0,0Zm.13-.15h0l-.11,0h0l0,0h.11s0,0,0,0Zm0-.4c-.07.05-.12.05-.14,0l0-.06a.21.21,0,0,1,.09,0s0,0,.06,0a.06.06,0,0,1,0,.06Zm-.06-2h0s0,0,0,0h0l-.06,0h-.11l.11,0,.07,0,0,0h.08a.07.07,0,0,1,0,0l-.1,0h0s0,0,0,0h.18A.38.38,0,0,1,58.55,48.92Zm-.15-.37h0v0h0s0,0,0,0h-.1Zm.27.08h0s-.05,0,0,0h.12a.08.08,0,0,1,0,0h0Zm-.15-.5,0,0H58.4l.05,0h.07ZM58,49a0,0,0,0,1,0,0l-.06,0h0s0,0,0,0A.19.19,0,0,1,58,49Zm-.22,2.79h0s0,0,0,0l.06,0h.09s0,0,0,0a.15.15,0,0,1-.06,0h-.08ZM57.43,51h-.07s0,0,0,0h.07v0Zm0,.6h0a.07.07,0,0,1-.09,0h0s0,0,0,0h.06a.07.07,0,0,1,0,0Zm-.18-.75v0a.34.34,0,0,1,.09-.12h0s0-.08,0-.11h0l0-.08c.05,0,.16-.07.19,0a.07.07,0,0,1,0,.05l0,.06h0a.19.19,0,0,1-.08.17A.29.29,0,0,1,57.26,50.85Zm-.15,1.49s0,0,0,0h0a.06.06,0,0,1,.06,0v0Zm0,1.2v0h-.06s0,0,0,0h0Zm0-1.3h-.08l.06,0h.08A.09.09,0,0,1,57.14,52.24ZM57,51.75h0l0,0h0l0,0s0,0,0,0h0S57.05,51.76,57,51.75Zm.18-.32,0,0h0s0,0,0,0l.07,0h0A0,0,0,0,1,57.21,51.43Zm0-1.25h-.08s0,0,0,0h0l.1,0v0s0,0,0,0Zm.13.22h.08s0,0,0,0h0l0,0h0Zm.08-.13h0a.06.06,0,0,1,.07,0h0l-.05,0S57.41,50.28,57.41,50.27Zm.13,0,0,0h0S57.54,50.3,57.54,50.3Zm.08.06s0,0,0-.06h.07a.08.08,0,0,1,0,0h-.06Zm0-.22h.07s0,0,0,0h-.06Zm0,.87,0,0,0,0h.08s0,0,0,.05h0a.2.2,0,0,1-.12,0h0Zm.18-1.48h.06s0,0,0,0l0,0h0s0,0,0,0h0Zm0,.72h0l0,0h-.06s0,0,0,0h.05Zm-.05.2s0,0,0,0l0,0h0Zm0,.71h.09s0,0,0,0h-.08s0,0,0,0h0Zm0,.33,0,0,.08,0h0s0,0,0,0h-.12S57.72,51.5,57.74,51.49Zm.15-1.22H57.8l.06,0h0l0,0s0,0,0,0A0,0,0,0,1,57.89,50.27Zm0-1.06h0l0,0h-.08a.14.14,0,0,1,.1,0Zm-.27.75h-.09l0,0h-.06s0,0,0,0h0a.12.12,0,0,1,.1,0S57.63,49.94,57.61,50Zm-.23-.36,0,0h0s0,0,0,0h0l-.08,0h0Zm-.05.77h0l0,0h-.06s0,0,0,0h0a0,0,0,0,1,0,0S57.33,50.38,57.33,50.37Zm0-.57h0l-.12,0h-.05s0,0,0,0h0l0,0h.06s0,0,0,0h.09Zm-.17,1.72h-.09l0,0h0S57.15,51.5,57.14,51.52Zm-.1-.09,0,0h0a0,0,0,0,1,0,0,.11.11,0,0,1,.08,0h0ZM57,52.67h0s0,0,0,0v0h0Zm0,.73h0s0,0-.06,0h0s0,0,.05,0S57,53.39,57,53.4Zm0-2.27h-.07l0,0H57Zm0,1.21h0s0,0,0,0h-.09Zm-.05-.12h0v0h-.14s0,0,0,0h0a.32.32,0,0,1,.13,0h0Zm-.22.6h-.08l.07,0h0s0,0,0,0Zm0,1.32h0v0h-.06a0,0,0,0,1,0,0h0v0h0s0,0,0,0h0Zm0-2.45h0s0,0,0,0h-.08l0,0Zm0,.17h0s.07,0,.1,0h0v0h0A.15.15,0,0,1,56.68,51.86Zm0,.45h0l-.07,0h-.08l.06,0Zm-.07-.66h0a0,0,0,0,1,0,0h0l0,0h0s0,0,0,0Zm-.07.2h0a0,0,0,0,0,0,0h.11l0,0h0s0,0,0,0h0a.15.15,0,0,1-.08,0h0Zm.08.66h0l0,0,.09,0h0l0,0-.08,0Zm.13.85h0a0,0,0,0,1,0,0h0Zm-.07-.56h0l0,0h0Zm0,1.28a.1.1,0,0,1,.09,0s0,0,0,.07h-.07s0,0,0,0Zm.08-3.28h-.08a.07.07,0,0,1,.08,0h0Zm-.07.09h0s-.07.13-.12.17l-.07,0h0s0,0,0-.07l0,0A.31.31,0,0,1,56.73,50.89Zm-.13.24a.14.14,0,0,1,.1-.05h0s0,0,0,0H56.6Zm-.15,1.35h0l-.08,0h0a.12.12,0,0,1,.08,0h0S56.46,52.47,56.45,52.48Zm0,.86,0,.07-.07.05-.06,0,0,0,0-.05a.26.26,0,0,1,.08-.06h.08Zm-.16-1.2h.05l0,0h-.11Zm-.1-.16s.08,0,.1,0h0s-.07,0-.08,0Zm0,.62h.1l0,0a.15.15,0,0,1-.09,0h0S56.19,52.61,56.21,52.6Zm.08.21h.08a0,0,0,0,1,0,0h0l-.09,0S56.25,52.83,56.29,52.81Zm.15-.53h0l0,0h0l0,0s0,0,0,0S56.45,52.27,56.44,52.28Zm0-.58h0s0,0,0,0l0,0h-.06Zm0-.72,0,0h-.08s0,0,0,0h0l0,0h0S56.36,51,56.36,51Zm-.2,4.39h-.08l0,0h0l0,0h0s0,0,.07,0h0Zm.28.21-.07.06a.07.07,0,0,1-.06,0l0,0-.09,0s0-.09.1-.14l.07,0,0,0Zm0-.92h0s0,0,0,0h0l.06,0h0S56.46,54.65,56.45,54.66Zm.11-.07H56.5l0,0h0Zm.06,0h-.06l0,0h0Zm.11.45h0s0,0,0,0h0A0,0,0,0,1,56.73,55.09Zm-.37-.67-.22,0h-.06l0,0s0-.09.1-.13l.07,0h.18l0,0,0,0,0-.06.06,0a.2.2,0,0,1,.21,0l0,0h0l.05.05h0l0,0A1.09,1.09,0,0,1,56.36,54.42Zm.43,0h0l0,0h0Zm.06.07h0Zm0-.1,0,0h0s0,0,.06,0h0Zm.21.16,0,.07c-.05,0-.08,0-.1,0s0,0,0-.08A.24.24,0,0,1,57,54.5h0S57.05,54.56,57,54.58Zm.07-.61v0H57s0,0,0,0h.11Zm0-.28h0s0,0,0,0v0h.05v0Zm.07.26h0Zm0-1.37h0s0,0,0,0h0a0,0,0,0,1,.06,0h0A0,0,0,0,1,57.22,52.58Zm.15,1.92h0s0,0,0,0h.06Zm0-2.62h-.1s0,0,0,0l.06,0h0s.07,0,.08,0,0,0,0,0Zm.06,0s0,0,0-.06l.08-.08h.06v0l0,.07C57.48,51.87,57.43,51.88,57.41,51.86Zm.12.31h0Zm0-.11h0s0,0,0,0h0l.05,0s0,0,0,0h0Zm.17.51h0s0,0,0,0h-.13s0,0,0,0h0a.28.28,0,0,1,.13,0l0,0Zm0-.42h0a0,0,0,0,1,0,0s0,0,0,0h0Zm.14.63h0l0,0h-.08l0,0h.1Zm0-.27h0v0a.61.61,0,0,1,.35-.14l.06,0s0,0,0,0,0,0,0,0,0,.07-.07.1l0,0A.35.35,0,0,1,57.86,52.51Zm.29.5h0v0h0s0,0,0,0Zm.21-.44c-.07.08-.12.09-.14.09h0a.18.18,0,0,1,.07-.1s.12-.06.14,0v0Zm0-.5h-.07s0,0,0,0h0v0h0s0,0,0,0h0s.06,0,.06,0Zm0-.26s.05,0,.08,0h0s-.05,0-.06,0h0Zm.19.77a.26.26,0,0,1-.15,0l0,0s0,0,0,0l.09,0h.07l.08,0A.22.22,0,0,1,58.56,52.58Zm.12-.75h-.11s0,0,0,0l0,0,.08,0h0v0Zm0-.5h0s-.07,0-.08,0h0s0,0,.08,0h0Zm0-1.95s0,0,0,0a.13.13,0,0,1,.09,0h0s0,0,0,0l-.06,0ZM58.8,51s0,0,0,0h.07a0,0,0,0,1,0,0h0l0,0Zm.07,0h0s0,0,0,0h-.08Zm.39,1.07-.1,0h0a.27.27,0,0,1-.15.06h-.08s-.07,0-.06,0h0l0,0s.08-.12.29-.16h.07v0s0,0,.06.05Zm.08-.08h0l-.05,0h0s0,0,0,0h0Zm0-.06h0l0,0h.05A.12.12,0,0,1,59.3,52Zm.05-.26h0Zm.27-.12h-.08l-.09,0h-.12s0,0,0,0h0a.2.2,0,0,1,.1,0h0l0,0h.13Zm0-.83h-.08l.06,0h0l.08,0s0,0,0,0a.09.09,0,0,1-.06,0Zm.1.65h0s0,0,0,0l0,0h0s0,0,0,0Zm.21-.54-.06,0h0s0,0,0,0h0l0,0s0,0,0,0h0a.33.33,0,0,1,.12-.05h0Zm0-.28.05,0h.09s0,0,0,0h0l-.1,0Zm.15.18h0l0,0h.06Zm.08-.29h0s0,0,0,0h0l0,0h.05Zm.13.14v0l0,0h0s0,0,0,0a.15.15,0,0,1,.06,0Zm.07-.32h-.07v0h.06s0,0,0,0Zm0,0h0s0,0,0,0l.07,0h0a.12.12,0,0,1-.08,0Zm.16,0h-.08l0,0h0Zm0-.7h0l.08,0h0v0Zm.1-1-.06,0h0l.09,0h0s0,0,0,0h0Zm.08.93h-.05s0,0,0,0h0s0,0,0,0Zm0-1.6-.07,0h-.09l0,0h.13Zm0-.08,0,0h0v0h0l0,0h0l0,0h0Zm0-.41h0l0,0h0s0,0,0,0H60.7Zm0,1.41h0a0,0,0,0,1,0,0h0s.06,0,0,0h0l0,0h0l-.07,0Zm.08.11v0h.08v0h-.07Zm.07.24h0a0,0,0,0,1,0,0h0s0,0,0,0Zm.08-.11h0Zm.05-.83h0s0,0,0,0l.09,0h0s0,0,0,0S61.05,48.21,61,48.22Zm0-.41h0l0,0h.13s0,0-.08,0S61,47.82,61,47.81Zm.21,1,0,0h0Zm0-.62h0a0,0,0,0,1,0,0h0s0,0,0,0h.06Zm.08.75s0,0,0,0h0l0,0h-.07v0h0a.18.18,0,0,1,.12,0h0Zm.11-1.07h0v0l-.07.08h-.07l0,0a.07.07,0,0,1,0-.09l.05,0c.06,0,.1,0,.12,0s0,0,0,0h0Zm0-.16-.07,0h-.07l0,0h.08s.06,0,.05,0Zm.09-.36-.06,0h-.07s0,0,0,0l.07,0h0S61.49,47.33,61.48,47.34Zm.08,0h-.05l0,0,.06,0h0v0s0,0,0,0Zm.3.37a.61.61,0,0,1-.12.09l-.05,0-.07,0a.13.13,0,0,1,0-.08h0a.5.5,0,0,1,.2-.17l0,0s0,0,0,0Zm-.14-.2h0S61.71,47.55,61.72,47.53Zm.28-.84,0,.05h0a.91.91,0,0,1-.12.11c-.1,0-.17,0-.11-.11a.45.45,0,0,1,.14-.13h.06s0,0,0,0a.06.06,0,0,1,0,0h0Zm-.22-.22h0l0,0h0s0,0,0,0h-.11Zm.15-.44,0,0s-.06.08-.2.1h-.05s0,0,0-.06l0,0h0l0,0h-.09a.56.56,0,0,1,.22-.21c.08-.06.08-.07.08-.08l0,0a.21.21,0,0,1,.08-.06h.06a.3.3,0,0,1,.13-.14h0s0,0,.06,0a0,0,0,0,1,0,0,0,0,0,0,0,0,0l-.07.07,0,0,0,.07a.14.14,0,0,1,0,.06l-.06,0L62,46Zm.33-.66h0S62.25,45.38,62.26,45.37Zm0,.85h0l0,0v0A.34.34,0,0,1,62.3,46c.06,0,.1,0,.11,0v0l0,.05A.62.62,0,0,1,62.21,46.22Zm.11.09h0s0,0,0,0h-.09Zm-.21.13h0s.08,0,.06,0h0l0,0h-.09Zm0,.66h0Zm.1-.05a.34.34,0,0,1-.13.05h0l.07,0,.07,0h0Zm0-.09-.07.08h-.07l0,0a.07.07,0,0,1,0-.09l.05,0c.06,0,.1,0,.12,0A.08.08,0,0,1,62.25,47Zm0-.29h0s0,0,0,0h0s0,0,0,0h0l0,0h-.06Zm.08,0h0l0,0h.1A.28.28,0,0,1,62.31,46.69Zm.23-.47h0l0,0h0a.11.11,0,0,1-.1,0s0,0,0-.05h.15S62.56,46.2,62.54,46.22Zm.08-.31c0,.06-.12.08-.18.1h0l-.07,0s0,0,0-.06,0,0,0,0l.05,0h.09s0,0,.05,0h0Zm-.23-.24,0,0s0,0,0,0,0,0,0,0h0Zm.2-.46v0l0,0H62.5a.29.29,0,0,1-.1,0,.1.1,0,0,1,0,0,.41.41,0,0,1-.19,0h-.08s0,0,0-.05h0a.18.18,0,0,1,.08,0,.33.33,0,0,1,.14,0v0a.26.26,0,0,1,.19-.09l0,0A.08.08,0,0,1,62.59,45.21Zm0-.24h0v0a.05.05,0,0,1,0,0l-.07,0h.06l0,0-.17,0h-.07a.07.07,0,0,1,0-.1l0,0a.56.56,0,0,1,.21,0l0,0h0s0,0,0,0h0Zm.06-1.11a.57.57,0,0,1-.2.15H62.4s0-.07,0-.12l0,0h0l0,0h.08s0,0,.06,0h0l0,0Zm.05-.47,0,0H62.6v0a0,0,0,0,0,0,0l0-.06c.12-.1.17-.07.18-.06a0,0,0,0,1,0,0l0,0A.26.26,0,0,1,62.7,43.39Zm.1.52h0l.08,0H63l0,0h-.08C62.81,43.94,62.78,43.93,62.8,43.91Zm.24.2a.25.25,0,0,1-.11.08l-.09,0s0-.07,0-.11l0,0A.2.2,0,0,1,63,44a.07.07,0,0,1,.09,0Zm0-.73h-.1s0,0,0,0l.05,0h0l.08,0s0,0,0,0Zm0-.29h0v0h.13s0,0,0,0H63Zm.25,1.44h0l-.07,0h0l0,0h-.08l0,0h0l0,0h0l.1,0h0Zm.09-.34h0a.14.14,0,0,1-.1,0h0s0,0,0,0h0s0,0,0-.06l.09,0c.07,0,.08,0,.08,0Zm0-.12h0s0,0,0,0H63.2s0,0,0,0h0s.09,0,.12,0v0Zm.1-.3h0c0,.06-.08.14-.14.18s-.1.06-.12,0,0,0,0,0h0s0,0,0,0h0s0,0,0,0a.47.47,0,0,1,.13-.11s0,0,0,0h0l.08,0,0,0h.07Zm.06-.61h0l0,0h-.07a.09.09,0,0,1,.05-.08s.07,0,.08,0h0s0,0,0,0h.07s0,0,0,.07A.13.13,0,0,1,63.5,43.16Zm.19.09s0,0,0,0l0,0h0s0,0,0,0l.07,0Zm0-.38h-.06a.53.53,0,0,1,.14-.05h0s0,0,0,0Zm.11-.34a.12.12,0,0,1-.08,0h0s0,0,0,0l0,0h0l0,0h0S63.83,42.52,63.82,42.53Zm.25-.39h0l0,0h0s0,0,0,0l0,0S64.08,42.13,64.07,42.14Zm0-1s0,0,0,0h0a.34.34,0,0,1-.11.07h0l0,0v0l0,0a.22.22,0,0,1,.05-.08s.09,0,.1,0v0s.06,0,.07,0v0ZM64.15,40h-.08v0h0S64.16,40,64.15,40Zm-.08-.47h0l-.1.1-.05,0h0s0,0,0,0h0s0,0,0,0h0s0,0,0,0h.07c-.08,0-.1,0,0-.13a.72.72,0,0,1,.24-.18l0,0,0,0h0a.07.07,0,0,1,0,.1A.3.3,0,0,1,64.07,39.56Zm.17,2.08h-.08l0,0h.08Zm.12-.41h0a.32.32,0,0,1-.11,0h0s0,0,0,0h0l.1,0Zm-.09-1.1s0,0,0,0h.12a.08.08,0,0,1,0,0h-.1Zm.12.74h0s-.05,0,0,0a.19.19,0,0,1,.1,0h0s0,0,0,0Zm0-1h-.08s.06,0,.09-.05h0s0,0,0,0Zm.26-.47h0l-.05,0h-.06l.05,0h0S64.69,39.35,64.69,39.36Zm0-.31s.07,0,.08,0v0a.25.25,0,0,1-.11.08l-.09,0s0-.07,0-.11l0,0A.2.2,0,0,1,64.68,39.05Zm.26-2.29-.06,0h0l0,0h0s0,0,0,0h0Zm0,.05h0l0,0H65ZM65,35.56l.05-.05a.73.73,0,0,1,.09-.09h.07s.06,0,.08,0v0l0,0h0c0,.05-.07.08-.09.1h0l-.09.05h0s-.09,0-.07-.06Zm-.11.33h.07s0,0,0,0h-.08ZM64.77,37s.09,0,.1,0v0l-.09.09h-.07S64.74,37,64.77,37Zm-.17-.34,0,0h0s.1,0,.08,0l0,0h0l-.06,0h0Zm-.07,1.68a.4.4,0,0,1-.12.08l0,0H64.3a0,0,0,0,0,0,0h0a0,0,0,0,1,0,0l0-.06c.13-.1.18-.07.19-.06s0,0,0,0Zm0-.74h0l-.06,0h0s0,0,0,0h0l.08,0S64.56,37.56,64.54,37.58Zm-.09-7a0,0,0,0,1,0,0h0l-.06.08c-.08,0-.12,0-.09,0l0-.05S64.43,30.52,64.45,30.54Zm-.69-1.71s0,0,.06-.06a.36.36,0,0,1,.13-.11.09.09,0,0,1,.06,0,.13.13,0,0,1,0-.06l0,0a.55.55,0,0,1,.2-.13h.07l.07.09v0a.46.46,0,0,1-.23.16l-.07,0s0,0,0,0a.34.34,0,0,1-.15.14.13.13,0,0,1-.12,0h0a.17.17,0,0,1,0-.05h0Zm.29.22,0,.07-.09.07-.07,0a.09.09,0,0,1,0-.1L64,29h0a.06.06,0,0,1,.06,0v0Zm-.28,1.7a.71.71,0,0,1,.14-.1.66.66,0,0,0,.18-.14l.09,0s0,.09-.05.14,0,0,0,0l0,.06a.16.16,0,0,0-.06.08h0s0,0,.06,0h0v0A.43.43,0,0,1,64,31s-.09.05-.12,0h0v0l-.05,0c-.06,0-.08,0-.09-.07a.05.05,0,0,0,0,0l-.08,0h-.09a.11.11,0,0,1,0-.08v0l0,0a.29.29,0,0,1,.2-.11Zm-.51-6.12,0,0,.14-.11a.18.18,0,0,0,.07-.05l.07,0s0,0,0,0a.06.06,0,0,1,.07,0l0,.07h0v0a.15.15,0,0,1,0,.06l0,0c-.14.11-.27.15-.31.1A.14.14,0,0,1,63.26,24.63Zm0,4.27a.43.43,0,0,1,.1-.09l.08-.07.07,0s0,0,0,.05h0v0s0,0,0,0a.25.25,0,0,1,.08-.05l0,0h.06l0,.06s0,.05-.08.09l0,0c-.07.06-.11.07-.13.07h-.08v0a.2.2,0,0,1,0-.1h0l-.16.08h0v0h0Zm-.33-6.07h0a0,0,0,0,1,0,0h0Zm0,6.92.06-.06a.36.36,0,0,1,.13-.11l.06,0a.09.09,0,0,1,0-.05l0,0a.56.56,0,0,1,.2-.14h.07l.07.09v0a.46.46,0,0,1-.24.16l-.07,0,0,0a.58.58,0,0,1-.16.15.17.17,0,0,1-.12,0h0a.07.07,0,0,1,0-.06h0Zm0,1.92h0s0,.07,0,.09h0l0,.06a.29.29,0,0,1-.14.08h-.1a.11.11,0,0,1,0-.08v0l0,0a.29.29,0,0,1,.21-.11Zm-.11-9.23h0a0,0,0,0,1,0,0h-.07S62.76,22.46,62.78,22.44Zm-.21-1.39a.07.07,0,0,1,.08,0h0l0,.05,0,0-.13.11h0l0,0a0,0,0,0,0,0,0,.23.23,0,0,1,.12-.15Zm-.15.68h-.05a0,0,0,0,1,0,0h.08S62.44,21.72,62.42,21.73Zm0,1.23v0h0s0,0,0,0h.09Zm0-2.72,0,0h0Zm-.07.4h.08s0,0,0,0,0,0,0,0h-.1A.05.05,0,0,1,62.35,20.64Zm-.1,2.84h0v0h0s.12,0,.15,0v0l0,0a.51.51,0,0,1-.21.18h-.06c0-.06,0-.07-.05-.08l-.07,0,0-.08h0Zm-.15-3.32h.09l0,0h0s0,0,0,0h0Zm0-.1h0Zm0,.23h0l-.08,0h0s0,0,0,0h.09Zm0-.56h0Zm-.07.21h0s0,0,0,0h-.07S62.05,20,62.08,19.94Zm0-.1H62v0h-.05l.08,0S62.07,19.82,62.06,19.84Zm-.2-.33h0l0,0H62s.06,0,.07,0l0,0h0l-.12,0h0Zm0,.28H62s0,0,0,0l0,0h0l-.09,0h0S61.88,19.8,61.89,19.79Zm0,1.31.07,0L62,21h0l0,0a.07.07,0,0,1,0,.09l0,0c-.11.08-.15.09-.2.09h-.09s0-.07,0-.09h0Zm-.12,2.7s0,0-.06,0h0l0,0h.08v0l0,0Zm0,.21s0,.1-.15.2h0a.07.07,0,0,1-.08,0v0l0-.06a.6.6,0,0,1,.22-.13h0l-.05,0Zm-1,.21h.07a0,0,0,0,1,0,0h0s0,0,0,0h0Zm-.25-3.64,0,0s0,0,0,0h0a0,0,0,0,1,0,0l.06,0h0Zm0,.22h0Zm-.21-1.56h0l0,0h0s0,0,0,0Zm0-.14h0l0,0h0s0,0,0,0H60.2Zm0-.16-.09,0h.05l.07,0h0Zm-.13,3.71a0,0,0,0,1,0,0h-.05s0,0,0,0h0s0,0,.06,0,0,0,0,0h0Zm-.31-1.12,0,0s0,0,0-.05l.07-.13.06,0,0,0a.05.05,0,0,0,0,0l.08,0h0l0,.06,0,.05-.08.07A.49.49,0,0,1,59.81,21.53Zm.11,0h-.07v0a.09.09,0,0,1,.07,0Zm-.31-.22s0-.05.08-.08l.06,0h0s0,0,0,.06a.29.29,0,0,1-.08.08l-.06,0h0A.07.07,0,0,1,59.61,21.34Zm0-1v0h0s0,0,0,0h0s0,0,0,0h0l0,0h-.08Zm.17-.07-.08,0v0a.11.11,0,0,1,0-.05h0l-.07,0h0a.05.05,0,0,1,0,0l.07,0h0s0,0,0,0l0,0A.64.64,0,0,1,60,20h0a.28.28,0,0,1-.07.13l0,.05-.08.07h0S59.76,20.26,59.74,20.29Zm-.2.31-.09,0h0a.17.17,0,0,1,.12,0h0s0,0,0,0h0ZM59.35,20s0,0,0,0h0l.09,0h0Zm0,.53v0h0a0,0,0,0,1,0,0h0Zm-.11-.35h0a0,0,0,0,1,0,0,0,0,0,0,1,0,0s0,0,.06,0h0a0,0,0,0,1,0,0h0Zm-.1-.06h0s0,0-.08,0v0l-.05,0-.06,0s0-.06.06-.12l0,0,0,0,.06,0h.07l0,0Zm0,.08h0l-.05,0h0a0,0,0,0,1,0,0l0,0h0S59.12,20.16,59.11,20.17Zm-.33-1h0s0,0,0,0h0Zm-.09-.31h0s0,0,0,0h0Zm0,.59h0l0,0s0,0,0,0,0,0,0,0Zm0-.81h-.14a0,0,0,0,1,0,0h.12v0Zm-1.26-1.34,0,0,.08,0h0v0h-.09s0,0,0,0h0ZM57,15.85l-.07,0h0s0,0,0,0l.07,0h0Zm-.51-.37h0l0,0,.05,0s.07,0,.06,0h0l0,0Zm.05.62s-.05,0,0,0ZM56.31,14h0l0,0h0Zm-.48,1.12,0,0h.06l0,0h-.07l0,0h0Zm0-.51h0a.11.11,0,0,1-.07,0h-.11l0,0h0s0,0,.1,0h0v0h0s.07,0,.1,0h0l0,0Zm-.55-1,0,0h.09l0,0h-.15S55.26,13.56,55.29,13.55Zm0-1.59,0,0s0,0,0,0h0l0,0h0S55.27,12,55.27,12Zm.31-.35h.06s0,0,0,0h-.09Zm.08,1.21h0s0,0,0,0h0l-.11,0h0A.22.22,0,0,1,55.66,12.82Zm.62.36h0a.13.13,0,0,1-.08,0h0l.07,0ZM56.23,13h.08l-.05,0h0Zm0,.61h0s0,0,0,0Zm0-.46v0h0a.18.18,0,0,1-.09,0s0,0,0,0l.09,0Zm-.14.24h0l0,0,0,0H56s0,0,0,0h0Zm-.29.37,0,0a0,0,0,0,0,0,0l0,.07c-.08,0-.11,0-.06-.08a.24.24,0,0,1,.08-.09h.06l0,.05,0,0,.07,0H56s0,0,0,0h0s0,0,0,0l0,0h-.06l-.08,0h0Zm0,.54s0,0,0,0h0Zm.08-.94,0,0H56l0,0h-.1Zm.21-.34h0l0,0h0l-.09,0h0l-.06,0h0s0,0,0,0h0l.1,0h.18Zm-.27-.7h0l-.05,0h0s0,0,0,0h.07a0,0,0,0,1,0,0Zm-.06.57s0,0,0,0,0,0-.06,0,0,0,0,0h0l0,0h0S55.72,12.87,55.72,12.88Zm-.06.91h-.07a0,0,0,0,1,0,0l0,0h0l0,0S55.67,13.78,55.66,13.79Zm0,.6,0,0h0Zm-.23-1.57h.09s0,0,0,0h-.08s0,0,0,0h0Zm0,1h.06s0,0,0,0l-.06,0-.08,0h0s0,0,0,0Zm0-.24.05,0h0s0,0,0,0,0,0,0,0h0S55.47,13.55,55.47,13.54Zm.09-.38h-.09s0,0,0,0l0,0,.08,0h0s0,0,0,0h0Zm0-.95-.08,0h0s0,0,0,0l0,0h.1Zm0,.39s0,0,0,0h0l-.12,0h0l0,0,0,0h.08Zm-.26,2h0s0,0,0,0h-.1Zm.05-.21h0s0,0,0,0h0l0,0h0Zm0-.26h.07l0,0S55.31,14.17,55.32,14.15Zm0-.09s0,0-.06,0l0-.08c.07-.05.11,0,.12,0h0l0,.06Zm.08-.14h0l0,0h0l0,0h0Zm.05.9,0,0s.06,0,0,0h-.07Zm.07-1.21h0v0l0,0h0v0h0l0,0h.07l0,0Zm0,1,0,0h0Zm.35-.27h0l0,0s0,0,0,0l0,0h0Zm.2.63h0S56.15,15,56.14,15Zm0-.69h0Zm0,.22h0l0,0H56Zm-.11.89s0,0,0,0l0,0h0s-.05,0,0,0H56Zm0-.68h0v0h0s.06,0,0,0H56Zm.08.79.08,0h0l-.07,0h0Zm0,.23a.06.06,0,0,1,.05,0s0,0,0,0h0s0,0,0,0h-.12Zm.11-1.81H56l.07,0,0,0h.06l0,0h0Zm0-.58h0s0,0,0,0h0s0,0,0,0h0Zm.06-.05h0s.05,0,.07,0h.08l0,0h0l0,0h0s0,0,0,0h0l-.1,0h0Zm.33.21a.13.13,0,0,1,.09-.05h.09v0h0s0,0,0,0h0a.37.37,0,0,1-.15,0h0Zm.11.17h.09l0,0h0a.08.08,0,0,1,0,0h0S56.69,13.68,56.7,13.67Zm.09.16h.12l0,0h-.08Zm.14.08-.08,0h0l.06,0h0Zm0,.9h0Zm-.12.07.11,0h0l0,0h0c-.05,0-.05,0-.06,0h0Zm.13.21h0l-.06,0h0A.29.29,0,0,1,57,15.09Zm0-1.54s0,0,0-.05l.09,0h0v0h0Zm-.07-.43h0a.17.17,0,0,1,.12-.06h0s0,0,0,0h0Zm0,.62s0,0,0,0h0s0,0,0,0l0,0Zm-.09,0s0,0,0,0h-.1s-.07,0-.06,0h0l.13,0Zm-.06,1.48h0a.07.07,0,0,1-.06,0h0a.07.07,0,0,1,.06,0h0Zm-.1-.29h0l.07,0h0s0,0,0,0h0l-.09,0s0,0,0,0h0Zm0-.15s0,0,0,0h-.1l0,0Zm-.16-.62h0s0,0,0-.05l0,0h0l0,0h0l0,0A.07.07,0,0,1,56.44,14.21Zm0,.74h-.06l0,0h0Zm0-1.39h-.06l.07,0h0s0,0,0,0Zm-.14.31h0s0,0,0,0l0,0h0s0,0,0,0Zm0,.78h0s0,0,0,0Zm0,.89,0,0h0l-.06,0h0S56.36,15.55,56.37,15.54Zm.22.44s0,0,0,0h-.07Zm0-.38,0,0v0l.06,0h0Zm.08.73s0,0,0,0h0l0,0h0Zm0,.07h-.1l0,0h.07Zm0-.71h0v0h0l0,0h.09A.14.14,0,0,1,56.67,15.69Zm.11-.71h0s0,0,0,0l.08,0h0s0,0,0,0l0,0h-.05Zm.07.43h.08s0,0,0,0h-.1S56.84,15.42,56.85,15.41Zm0,.87h.06l-.08,0h0S56.82,16.3,56.84,16.28Zm0-1H57A.11.11,0,0,1,56.89,15.33ZM57,15h0v0H57s0,0,0,0h0l0,0ZM57,13.61h0a0,0,0,0,1,0,0h0A.12.12,0,0,1,57,13.61Zm0,0,.08,0h.07l-.11,0h0Zm.14-.09h.13s0,0,0,0,0,0,0,0h-.13Zm0-.39s0,0,0,0a.21.21,0,0,1,.11-.05h0v0h0l-.07,0h-.05Zm.69.38v0l.06,0v0h0a.08.08,0,0,1-.08,0h0l0,0h0Zm.06,1.67h0l.07,0h0s0,0,0,0h0l-.09,0s0,0,0,0h0Zm.27-1h0v0l.06,0h0s0,.05,0,.08a.27.27,0,0,1-.08.07h0s0-.07,0-.09,0,0,0,0Zm.23,1.23h0l0,0h-.06a.15.15,0,0,1,.11-.06h0Zm.05.32h0l0,0h-.1v0l.05,0h0s0,0,0,0h0Zm.16-1.09h0l-.07,0h0Zm0,0h0l0,0h0v0h-.06Zm0,1.89h0v0h0a.13.13,0,0,1,.08,0h0s0,0,0,0h0l-.11.06h-.06Zm-.23.57c-.05,0-.12,0-.1,0a.19.19,0,0,1,.08-.07s.09,0,.1,0,0,0,0,0Zm.07.15h0l-.1,0h0a0,0,0,0,1,0,0l0,0h0S58.43,17.15,58.41,17.18ZM58,16H58A.13.13,0,0,1,58,16h0l0,0Zm.07-.37.1-.06a.07.07,0,0,1,.05,0h0l-.08,0H58S58,15.62,58,15.61Zm.15-.26.08,0h0l-.06,0Zm.22.57h0l0,0h.07l0,0h0C58.4,15.94,58.38,15.93,58.39,15.92Zm0,.13h.08s0,0,0,0h-.1Zm.09-.25h0v0h0l.07,0h0S58.57,15.79,58.53,15.8Zm.11-.36,0,0h-.13l0,0h.12Zm-.14-.15h0s0,0,0,0l0,0h.06Zm-.17-.07h-.07l0,0h0s0,0,0,0h0Zm-.18-.74,0,0h0v0h0l0,0h0c-.05,0-.07,0,0,0l0,0Zm0,.25h0a.2.2,0,0,1-.07,0h0v0h.07Zm-.06.42h.09s0,0,0,0l0,0h-.11S58.08,15.16,58.11,15.15Zm0,.22h0s0,0-.07,0h0l.05,0Zm-.09.12h0l-.07,0v0l.06,0ZM58,14l-.07,0h0l0,0H58s0,0,0,0Zm0,.65,0,0h0v0H58Zm-.1,1H58l0,0h-.12v0Zm-.06-.33h0l0,0h0l0,0h.05Zm-.13,1.3h0s0,0,0,0h0a0,0,0,0,1-.05,0h0s0,0,0,0l.1,0,0,0Zm-.27.25h-.06s0,0,0,0h0s0,0,0,0h0Zm-.18-2.49h0l0,0h0l-.07,0Zm0,.61-.07,0h0s0,0,0,0l0,0h.07Zm0-.37h0s0,0,0,0h0S57.27,14.66,57.29,14.65Zm0,.1.11,0h0l0,0H57.3Zm.21.87h0l-.06,0h0a.07.07,0,0,1,.06,0Zm0-.31h0l-.09,0s0,0,0,0l0,0h0a.11.11,0,0,1,.07,0Zm0-1.15h0l.05,0h.06s0,0,0,0l0,0Zm-.08,1.05h0l0,0h0s0,0,0,0h0Zm0,.51.07,0h0v0l-.07,0h0S57.33,15.73,57.36,15.72Zm.06.61s0,0,0,0h-.07Zm0,.11h0s.09,0,.1,0h0l0,0Zm.07-.2h0s0,0,0,0h0a0,0,0,0,1,0,0h0v0s0,0,0,0h0s.06,0,0,0h-.09Zm.05-2.18h0l0,0h.08S57.57,14.05,57.53,14.06Zm0-.48h-.08s0,0,0,0h0v0h0l.1,0h0s0,0,0,0h0l-.08,0h0Zm.18.45h0l0,0h-.09s0,0,0,0h.09Zm.09.34s0,0,0,0l0,0h0s0,0,0,0h.07Zm0-.69v0h0s.06,0,.05,0h-.09Zm-.1,2h0s0,0,0,0h0Zm0-.38h-.06s0,0,0-.05h.09s0,0,0,0l0,0h-.05Zm0-.15s0,0,0,0h0l.06,0h0s0,0,0,0H57.6Zm.15-.9a.2.2,0,0,1-.07,0h0l.06,0h0Zm-.09,2.27h.14a.11.11,0,0,1-.07,0Zm.12-.07h0c-.06,0-.08,0,0,0h.11Zm-.07-1h0a.29.29,0,0,1,.08,0h0Zm.08-2.11h-.1l0,0h.08Zm-.1.06.06,0h0s0,0,0,0l0,0h-.06Zm0,0h0l0,0a.35.35,0,0,1-.11,0h0a.15.15,0,0,1,.08,0l0,0h.07Zm-.12,0h0l-.1,0h0a.1.1,0,0,1,.08,0h0Zm-.07.35h.08a.38.38,0,0,1-.15,0h0Zm0,.57h0s-.06,0-.1.05H57.3l.08,0Zm-.07-.92h0s0,0,0,0h0s0,0,0,0Zm0,.67h0s0,0,0,0h0l0,0h0c-.06,0-.07,0,0,0h.1Zm-.25,2.76h0c.06,0,0,0,0,0h0l-.07,0h0s0,0,0,0Zm0-.68s0,0,0,0h0Zm.08.52h.09s0,0,0,0,0,0-.05,0h-.08S57.22,16.73,57.24,16.72Zm.13.63h0c.06,0,.07,0,.07,0h0l0,0h-.06S57.32,17.37,57.37,17.35Zm0-.1h.08S57.45,17.24,57.39,17.25Zm.07-.47h0l0,0h0Zm0,.26,0,0h.12l0,0,0,0h-.08Zm.14.71h0l-.1,0s0,0,0,0l0,0h.06Zm0-.58h0s0,0,0,0h0S57.64,17.18,57.64,17.17Zm0,0v0h0l0,0h0s.07,0,.06,0h-.14Zm.09.51h0S57.69,17.66,57.71,17.65Zm0,0h.07s0,0,0,0l0,0Zm.07-1.53h0a0,0,0,0,1,0,0h0l.08,0h0s0,0,0,0h0Zm.12.09h-.07l0,0S57.93,16.2,57.92,16.21Zm0,.26h0v0h0s0,0,0,0h-.05A.07.07,0,0,1,57.88,16.47Zm0,.84h.06v0h0a0,0,0,0,1,0,0Zm0-.19h0l0,0h0s0,0,0,0h0A.15.15,0,0,1,57.87,17.12Zm.07-.47h0a.05.05,0,0,1,0,0l0,0h0l0,0Zm0,1h0a.13.13,0,0,1,.08,0h0l-.06,0H58Zm.12.92h.06s0,0,0,0l0,0h0Zm.06-1s0,0,0,0h0a.11.11,0,0,1,.06,0h0s0,0,0,0h-.11Zm.05.54,0,0,.11-.06h0s0,0,.06,0v0l0,0,0,0h0v0a0,0,0,0,1,0,0h0l0,0s-.06,0-.06,0S58.18,18.1,58.2,18.06Zm.22,0h0l-.07,0a.08.08,0,0,1-.07,0h0l.1,0h0v0h0Zm-.09.51h.08s0,0,0,0a.27.27,0,0,1-.12.05s-.06,0,0,0Zm.05-.45h0l0,0h0Zm.07-.29s0,0,0,0h0v0h-.05a.06.06,0,0,1,0,0h0v0h0l.08,0,0,0v0Zm0-1.07h0s0,0,0,0h0a0,0,0,0,1,0,0h0s0,0,0,0h0l0,0h0l-.08,0A0,0,0,0,1,58.45,16.8Zm0,.07h.14a.11.11,0,0,1-.06,0h-.08Zm.17,1.05h0a0,0,0,0,1,0,0l0,0h0s0,0,0,0Zm-.11.08h0l0,0S58.51,18,58.54,18Zm0,.78h0S58.54,18.79,58.58,18.78Zm.16-1.56h.1l0,0h-.08a0,0,0,0,1,0,0h0Zm.22-1.3,0,0h0Zm.7,1.55h.07l-.06,0h0Zm-.06,0h0s0,0,0,0l0,0h0s.08,0,.06,0h0Zm.17-.32h.14s0,0,0,0h0l0,0S59.73,17.14,59.77,17.11Zm0-.49h0l0,0h0a.13.13,0,0,1,.08,0h0l0,0Zm.45,1.61h0l0,0h0l0,0H60.1l0,0,.07,0Zm0-.38,0,0c.08,0,.12-.06.14,0s0,.08,0,.13l0,0c-.05,0-.1,0-.12,0S60.21,17.9,60.25,17.85Zm0-.79,0,0h0Zm.65,2.63s0,0,0,0h0s.05,0,.05,0h0s0,0,0,0h-.08Zm-.33-1.82h-.08l0,0h0Zm.08,0h0l0,0h-.07S60.6,17.85,60.62,17.85Zm0,.4h0s0,0,0,0h-.09Zm0,.09h0s0,0,0,0h0A0,0,0,0,1,60.62,18.34Zm0,.32h.09l0,0h-.08S60.57,18.67,60.58,18.66Zm.1-.17h0s0,0,0,0l0,0h-.08v0Zm0,0h0l0,0c.06,0,.07,0,.06,0h0l0,0C60.65,18.48,60.66,18.46,60.66,18.45Zm.07.31s0,0,0,0h0l0,0s.05,0,0,0h-.06Zm-.07-.13h0s0,0,0,0h.07l0,0Zm0,.12s0,0,0,0h-.05s0,0,0,0Zm0,.12h0a0,0,0,0,1,0,0s0,0,0,0h-.07Zm.08.11H60.6Zm0,.15h.05s0,0,0,0l0,0h0Zm0-.16h0s0,0,0,0h0Zm.15.49.06,0h0s0,0,0,0h0l0,0h0a.29.29,0,0,1-.11,0h0A.12.12,0,0,1,60.85,19.46Zm-.07-.25h.11l0,0a.11.11,0,0,1-.06,0Zm.07.32h0v0h.07l0,0Zm0,.3h0Zm-.08-.11h0s0,0,0,0h0l-.06,0S60.74,19.73,60.78,19.72Zm0,.35h.09v0h0l-.08,0h0s0,0,0,0h0S60.76,20.08,60.77,20.07Zm.08,0-.06,0h0a.29.29,0,0,1,.08,0h0Zm.11-.53H60.9l0,0h0Zm0-.18h0a0,0,0,0,1,0,0H61s0,0,0,0ZM61,18h-.05C61,18,61,18,61,18Zm-.1.15,0,0h0l0,0h-.06Zm0,.92s0,0,0,0h0Zm-.07.08h.08s0,0,0,0h-.07s0,0,0,0h0S60.82,19.15,60.83,19.14Zm0-.05h0A0,0,0,0,0,60.81,19.09Zm0-.43h0s0,0,0,0Zm0-.43a.14.14,0,0,1-.09,0h0a.05.05,0,0,1,0,0,.15.15,0,0,1,.09,0Zm-.09-.1h0a.15.15,0,0,1-.08,0h0l.05,0h.08Zm0-.6-.1,0h0l0,0h.07Zm-.1.06h-.16l0,0h.08a0,0,0,0,1,0,0Zm-.23.92h-.22l.11,0h.21A.15.15,0,0,1,60.34,18.51Zm.08.2,0,0h0s0,0,0,0h-.07l0,0a0,0,0,0,1,0,0h.06S60.43,18.71,60.42,18.71Zm-.26-.24H60.1v0a.05.05,0,0,1,0,0h0s0,0,0,0h0Zm.05.12h0S60.22,18.58,60.21,18.59Zm.19-.31h0l0,0,0,0h-.07s0,0,0,0h0l0,0h0s0,0,0,0h.08Zm0-.54h0s0,0,0,0l0,0s0,0,0,0Zm-.34.27h0l.07,0h0s0,0,0,0l0,0h-.06Zm.09-.23h0s0,0,0,0Zm0-.12a.34.34,0,0,1-.1,0h0l0,0h.07Zm-.1.06h.09s0,0,0,0h-.12s0,0,0,0Zm-.05.77h0a0,0,0,0,1,.06,0h0a0,0,0,0,1,0,0H60a.05.05,0,0,1,0,0h0S60,18.48,60,18.49Zm0,2-.09,0h-.06v0h0l.12,0h0s0,0,0,0h0ZM60,20.9a0,0,0,0,1,0,0h0a0,0,0,0,1,0,0h0a0,0,0,0,1,0,0h0Zm0-1.11s0,0,0-.05h0l0-.06s.1-.06.12,0,0,0,0,.06a.6.6,0,0,1-.08.08Zm-.31-.31h0s0,0,0,0h0l0,0-.07,0h-.07s0-.06.11-.15l.06,0h0s0,0,0,.05h0s0,0,0,0h0l0,0Zm-.1.19h0a.09.09,0,0,1-.07,0v0h.05S59.56,19.66,59.56,19.67Zm-.43-.28h0l0,0h0Zm-.21.4s0,0,0,0h0l0,0s0,0,0,0h-.07Zm.06-.68h-.11l0,0h0a.14.14,0,0,1,.09,0h0Zm.31-2.78,0,0a.13.13,0,0,1,.08,0h0s0,0,0,0,0,0,0,0h-.07s0,0,0,0h0Zm.19,2h0s0,0,0,0h0l-.06,0h0v0s0,0,.06,0h0Zm.18.8s0,0,0,0h0s0,0,0,0h0Zm0-.39h0a.09.09,0,0,1,.07,0s0,0,0,0h0s-.06,0-.07,0Zm0,.52h0s0,0,0,0h0s0,0,0,0h0Zm0-.67-.06,0s0,0,0,0h0s0,0,0,0Zm0-.15h-.11s0,0,0,0v0h0s0,0,0,0h.06s0,0,0,0h0l0,0h0Zm-.2.54.09,0h-.09Zm.07-.24h0Zm-.14-.27a0,0,0,0,1,.06,0h0v0h0a0,0,0,0,1,0,0h0Zm0,0,0,0h0v0h0s0,0,0,0h0l-.08,0h0Zm0-.78h0s0,0,.06,0h0s0,0,0,0l0,0h-.07Zm.23.92H59.4s0,0,.07-.05h0s0,0,0,0S59.5,18.57,59.48,18.58Zm-.08-.69h0l0,0h0a.12.12,0,0,1-.08,0h0l0,0Zm0-.52h0l0,0h-.08s0,0,0,0h.11Zm-.12.16h0l-.09,0h0s0,0,0,0,0,0,0,0h0S59.25,17.5,59.23,17.53Zm-.08.88h0s0,0,0,0Zm0,.41h0s0,0,0,0h0Zm0-.57h-.1s0,0,0,0h-.21v0h0l.12,0H59s0,0,0,0h0l.08,0h0s0,0,0,0h0s0,0,0,0Zm-.11.21h.07a0,0,0,0,0,0,0h0S59,18.47,59,18.46Zm0,0h0Zm-.15-.28h0s-.06,0-.08,0h0l0,0h0A.11.11,0,0,1,58.91,18.21Zm-.07-.65h0l0,0h0s0,0,0,0,0,0,0,0h0Zm0,.89h.08v0h-.06s0,0,0,0Zm0-.06h.09s0,0,0,0h-.1Zm.21-.52h0l-.05,0S59,17.88,59,17.87Zm-.05,0s0,0,0,0h0ZM59,18h0s0,0,0,0h0v0h0l-.05,0v0h0ZM59.09,17H59s0,0,0,0l0,0h0Zm0-.25h0v0h0l-.06,0s-.07,0,0,0h0l0,0h0l.08,0h0l0,0ZM58.94,18H59v0h-.07Zm0-.49,0,0h0v0h.06v0Zm0-.1,0,0h-.07l0,0h.07Zm0,.49h0l-.08,0h-.06a.2.2,0,0,1,.11,0Zm0,1.19s0,0,0,0h0s0,0,0,0l0,0h0Zm0-.08s0,0,0-.05l.07,0h-.1Zm.11-.28-.09,0h0l0,0h0l.08,0h0Zm.13.91H59s0,0,0,0h0Zm0,.06H59l0,0h0S59.09,19.68,59.08,19.69Zm0-1h0a0,0,0,0,1,0,0l0,0h.08l0,0Zm.14.52h-.06l.06,0h0Zm0-.17h0s0,0,0,0l.05,0h0Zm0-.41s0,0,0,0l0,0h.09s0,0,0,0h0a0,0,0,0,1,0,0h0Zm.07.27,0,0h0s0,0,0,0l0,0h0Zm0-.08s0,0,0-.05h.08v0h-.1Zm0,.88h.07s0,0,0,0h0l0,0h-.06Zm.31-.66h0l0,0h0l.07,0h0l-.06,0Zm.06-.37v0h.07a0,0,0,0,1,0,0s0,0,0,0h0s0,0-.06,0Zm.08.14h0Zm.06-.26h-.2s0,0-.06,0h0s0,0,0,0h0l.11,0h.11a.1.1,0,0,1,.07,0h0a0,0,0,0,1,0,0l0,0h0Zm-.2-.39h0s0,0,0,0h-.08S59.67,18.21,59.68,18.21Zm0-.31h.06s0,0,0,0l0,0h-.05Zm.14.53s0,0,0,0h0v0h.09s0,0,0,0h0s0,0,0,0h0l-.05,0h0Zm.05-.15h0l0,0h.07s0,0,0,0Zm0-1.05,0,0h.06v0Zm0,1.11,0,0h-.05l0,0h.05Zm-.06.09h0v0s-.06,0-.08,0h0v0a.06.06,0,0,1,.06,0Zm.17.31h0Zm.07-.11,0,0h0l0,0h0v0H60Zm0,.77h0l0,0h0s0,0,0,0Zm0-.27h0a.11.11,0,0,1,.08,0h0s0,0,0,0l0,0H60Zm-.07.49,0,0s0,0,0,0,0,0,0,0,0,0,0,0h0l0,0h-.12Zm.16-.43s0,0,0,0h.07s0,0,0,0h0Zm0-.28h-.07l0,0h0Zm-.08,0H60s0,0,0,0H60s0,0,0,0Zm0-.14s0,0,0,0h.05s0,0,0,0H60Zm0-.32h-.06s0,0,0,0h0a0,0,0,0,1,.06,0Zm0-.52-.09,0s0,0,0,0a.05.05,0,0,1,0,0s.07,0,.08,0Zm0-.57h-.07l0,0h.05Zm-.15.58h0a0,0,0,0,1,0,0l0,0h-.06A0,0,0,0,1,59.77,17.9Zm-.1-.16h0l0,0h-.06l0,0Zm-.06.16h0l0,0h-.06s0,0,0,0Zm-.07-.18,0,0s0,0-.06,0,0,0,0,0h.07Zm-.08-1.93s0,0,0,0h-.13l0,0h.12Zm-.15.2a.05.05,0,0,1,0,0h0l0,0h-.06Zm0,1.32h.07a.34.34,0,0,1-.1,0h0Zm-.07-.95h-.1s0,0,0,0h0c.06,0,.07,0,.07,0Zm-.12,0h0s0,0,0,0h0l.07,0h0s0,0,0,0Zm0,.31h0l0,0h0c-.06,0-.08,0,0,0h.1Zm-.16-.22v0h-.06s0,0,0,0h0Zm0,1,0,0h0s0,0,0,0h-.06s0,0,0,0Zm0-1.19h-.06l0,0s0,0,0,0Zm-.12,1.25h0a0,0,0,0,1,0,0h-.06l0,0s0,0,0,0Zm.05,2.29s0,0,0,0h-.06s0,0,0,0Zm0,.17s.07,0,.1,0h0a0,0,0,0,1,0,0h0a.14.14,0,0,1-.11,0h0S58.83,20,58.84,20Zm.32.06h0s0,0,0,0l0,0h.05s0,0,0,0Zm.09-.91h0l0,0h0Zm.24.73h0a.1.1,0,0,1,.07,0h0l0,0Zm0,.15.07,0h0a.14.14,0,0,1-.07,0h0Zm.31,1.16h0s0,0,0,0h0S59.86,21.14,59.85,21.14Zm.23-2.32h0a0,0,0,0,1,0,0l0,0h0a.05.05,0,0,1,0,0Zm.26.16h0s.06,0,.06,0h0l-.07,0s-.05,0,0,0Zm.1.93a.2.2,0,0,1-.11,0h0a.31.31,0,0,1,.09-.05h0s0,0,0,0h0Zm0,.2v0h-.07s0,0,0,0h.08Zm0-.62h0l.06,0h0Zm-.12.68s0,0,.07,0h0a0,0,0,0,1,0,0h0Zm.16-.86h0l0,0,.06,0h0l0,0Zm.05,2a.62.62,0,0,1,.14-.14h0s.07,0,.08,0l0,0,0,.06c-.11.08-.18.13-.24.07Zm.22-.93,0,0v0s0-.09.1-.17h0s.09,0,.11,0,0,0,0,0v0l0,.05C60.85,20.4,60.79,20.42,60.75,20.42Zm.42-2h.07l0,0-.07,0h0S61.14,18.47,61.17,18.46Zm0-.33,0,0h.08l-.09,0S61.14,18.14,61.14,18.13Zm.31,1.25h0s0,0,0,0h0Zm0-1.12h0Zm.05,1h0s0,0,0,0h0l0,0h0A.05.05,0,0,1,61.49,19.28Zm0-.06h0s0,0,0,0,0,0,0,0h0S61.45,19.23,61.45,19.22Zm.1.24h.05l0,0h0s0,0,0,0l0,0h0Zm0-.45h0l0,0h0s0,0,0,0,0,0,0,0h-.06Zm.22.8,0,0h0l0,0a.05.05,0,0,0,0,0h0l0,0H61.5v0h.27Zm-.11,1.44h0s0,0,0,0h0a.07.07,0,0,0,0,0l0,0h0S61.68,21.23,61.66,21.25Zm0,2.19s0,0,0,0,0,0,0,0h0Zm-.15-2.31a.06.06,0,0,1-.07,0h0l0,0h0s0,0,0,0Zm0-.67s0,0,0,0h0l0,0h.09v0h0l-.08,0Zm.06-.39h0s.05,0,0,0h0l-.06,0S61.57,20.08,61.6,20.07Zm0-.17h0l0,0h0Zm.07,0h.08l0,0h-.05Zm0,.32h0Zm.06.18s0,0,0,0h0Zm.07-.23-.11,0h0a.26.26,0,0,1,.09,0h0s0,0,0,0h0Zm-.28,2.49h0v0h0v0h-.07a0,0,0,0,1,0-.07h.09Zm-.45.22s0,0,0,0l.06-.07h0l0,0v0l.06-.08s.09,0,.12,0h0v0a.24.24,0,0,1-.08.1.4.4,0,0,1-.12.07h0A0,0,0,0,1,61,22.85Zm.08-4,0,0h.05s0,0,0,0l0,0H61s0,0,0,0h0v0s0,0,0,0Zm-.05.3v0h.17l0,0h0a.25.25,0,0,1-.12,0Zm.31.65h0l0,0s0,0,0,0h0l0,0h.07l0,0Zm-.07.43h0a.29.29,0,0,1-.11,0h0a.21.21,0,0,1,.08-.05h0S61.29,20.24,61.28,20.25Zm0,.21,0,0h0a0,0,0,0,1-.05,0s0,0,0,0l0,0h.06Zm-.14-.92h0s-.05,0,0,0h0l0,0h0a.15.15,0,0,1,.08,0s0,0,0,0h0s0,0,0,0h0Zm.1-.2-.07,0s-.05,0,0,0l0,0h.08Zm-.17.25h0l0,0h0s0,0,0,0Zm.06,1.61h0a.05.05,0,0,1,0,0h0s0,0,0,0,0,0,0,0h.09Zm0-.57H61a.06.06,0,0,1,0,0s0,0,0,0Zm.17,3.08s0,0,0,0h-.06l0,0h0Zm-.09.34h.09l0,0a.46.46,0,0,1-.1.1l-.06.06h-.08S61,24.15,61.18,24.05Zm.06-1.8,0,0-.07,0c-.05,0-.05-.06,0-.1v0l.1-.08h0s0,0,.05-.07a.1.1,0,0,1,.06-.07h0s0,0,0,.05l.07,0,0,0s0,0,0,0,0,.05,0,.09a.14.14,0,0,0,0,0l0,.05A.61.61,0,0,1,61.24,22.25Zm.14-.4h0s0,0,0,0a0,0,0,0,1,0,0h0s0,0,0,0h0Zm0,1.25a.05.05,0,0,1,0,0h0s0,0,0,0h0Zm0-3.75h-.07a.14.14,0,0,1,.08,0h0s0,0,0,0Zm0-.26a.11.11,0,0,1-.06,0h0s0,0,0,0ZM61.29,19h-.08v0h.07Zm-.14,0h0l.1,0h0s0,0,0,0S61.19,18.93,61.15,18.94Zm0-.29h0c.05,0,0,0,0,0l0,0H61.1Zm0-.51H61l0,0h0a0,0,0,0,1,0,0S61.11,18.13,61.11,18.14ZM61,20.23l.07,0s.06.09-.07.19l0,0c-.05,0-.06,0-.06,0h0s0,0,0,0l.06-.06v0h0l.05-.08Zm-.13.22.07,0h0l0,0h-.09ZM61,25.23h0l.05-.08.07,0,.07,0h0l0,0s0,0,0,.08l0,0c-.11.08-.15.09-.19.09H61S61,25.25,61,25.23Zm.26-.65-.07,0,0-.09h0l.09-.06h.05v0s0,0,0,0,.12,0,.15,0v.05a.6.6,0,0,1-.22.18h-.06C61.32,24.6,61.31,24.59,61.27,24.58Zm.55-5.16s0,0,0,0h0l-.08,0h-.07l0,0a.55.55,0,0,1,.12,0Zm-.1-.22h0a.11.11,0,0,1-.07,0s0,0,0,0,0,0,0,0h.08Zm-.12-.47h.06l0,0h0Zm-.12.07,0,0s.07,0,0,0h0l0,0c-.06,0-.06,0-.06,0Zm0,.05h.09s0,0,0,0,0,0,0,0h-.07S61.46,18.86,61.47,18.85Zm0-.64h0l0,0h0s0,0,0,0Zm-.1,0,0,0h0c.05,0,.05,0,.05,0h-.09Zm0,.13h0v0Zm0,.62h0s0,0,0,0h0a.1.1,0,0,1-.07,0h0s0,0,0,0Zm0-.43h0s0,0,0,0h0l0,0h0S61.31,18.49,61.3,18.5Zm0-.56h0l0,0h-.08l0,0h0l.09,0Zm-.12-.14.07,0h-.11S61.11,17.81,61.16,17.8Zm-.08.13,0,0h0s0,0,0,0a.05.05,0,0,1,0,0h0Zm0,.12s0,0,0,0h0l0,0h0ZM61,17.72h0l0,0h-.1s0,0,0,0H61Zm0,0H60.9s0,0,0,0h0l.06,0S61,17.66,61,17.67Zm0-.2,0,0,0,0h-.12s0,0,0,0h0a.35.35,0,0,1,.14,0h0Zm-.18-.13v0h0l.1,0h0l-.07,0h-.08Zm0,0h-.07l0,0S60.72,17.32,60.71,17.33Zm-.21-.43a.17.17,0,0,1,.11,0h0a.29.29,0,0,1-.08,0s0,0-.06,0h0Zm0,.15,0,0h0s0,0,0,0h0a.21.21,0,0,1-.08,0h0Zm0,.13,0,0h-.07a0,0,0,0,1,0,0h.08ZM60.24,17s0,0,0,0h.09a.18.18,0,0,1-.09,0h0Zm0,.59s0,0-.07,0h0s0,0,0,0h-.07a0,0,0,0,1,0,0s0,0,.09-.05h.07S60.23,17.58,60.22,17.59Zm0-.22h0l0,0h-.1s0,0,0,0h.08Zm-.08,0h0a.16.16,0,0,1-.1,0s0,0,0,0h0l.06,0h0S60.12,17.35,60.11,17.37Zm-.08-.9h0s0,0,0,0H60Zm0,.25h0s0,0,0,0h0s0,0,0,0S60.07,16.71,60.08,16.72Zm0,.22h0L60,17h-.07l0,0Zm-.2-1.28h.09l0,0h-.09s0,0,0,0h0l0,0h0Zm-.09-.06h0Zm-.06.47h0a.14.14,0,0,1-.07,0h0Zm-.13-.7,0,0h0s0,0,.05,0h0l-.07,0s0,0,0,0Zm0,2.11h0s0,0,0,0h0l-.1,0s0,0,0,0h0l.06,0Zm-.09-2.13h0l0,0h0v0h0s0,0,0,0h0a.11.11,0,0,1-.08,0h0l0,0h.1Zm-.2-.28h.05l0,0h0s.05,0,.05,0h0l-.15,0h-.09s0,0,0,0l.07,0h0Zm-.13-.38.08,0h0a.1.1,0,0,1-.07,0h0Zm0,1s0,0,0,0l-.06,0H59s0,0,0,0h.05ZM59,14.6h0l0,0h0s0,0-.05,0Zm0,.54h0v0H59s0,0,0,0h0Zm-.09.37h0l0,0H59s0,0,0,0h0a.08.08,0,0,1-.06,0h0Zm-.08-1.33h.06l0,0h0Zm0,.07h.08s0,0-.08,0h0Zm0,2.89h0l-.1,0s0,0,0,0h.1S58.82,17.12,58.8,17.14Zm0-.09s0,0,0,.05l-.05,0h0s0,0,0,0,0-.05.07-.06h.06Zm0-2.68h0l-.07,0h0a0,0,0,0,1,0,0h.09Zm-.17,0h.12v0h-.08S58.54,14.4,58.57,14.37Zm0,.33h0s0,0,0,0h0l-.14,0h-.1l.07,0h.1l0,0Zm-.21-.11h0l.06,0h0l0,0Zm.18-.21h0l0,0h-.09s0,0,0,0Zm-.19,0h0v0h.08A.12.12,0,0,1,58.35,14.4Zm0-.6s0,0,0,0h-.09l0,0Zm-.12-.18h0l-.1,0s0,0,0,0l0,0Zm-.15-.11h0l0,0h0l0,0s0,0,0,0l-.06,0-.07,0h0S58.12,13.52,58.13,13.51Zm0,.1s0,0,0,0,0,0,0,0h0s0,0,0,.05l0,0,0,0,0,.06-.11.09-.06,0c-.07,0-.07-.07,0-.14s0,0,.05,0h-.07s0,0,.09-.05H58l0,0s0,0,0,0h0Zm0-.32h0l-.1,0h0v0h0s0,0,.07,0A.22.22,0,0,1,58.08,13.29Zm-.2,0H58s0,0,0,0h-.06Zm-.09,0h0l0,0h-.08Zm-.13-.08h.05l0,0h-.1Zm-.11.11h.07l0,0h0l0,0S57.55,13.26,57.55,13.26Zm0,.14h0a.3.3,0,0,1-.08,0h0l.07,0Zm-.16,0,.09,0h0v0l0,0h0l-.08,0S57.37,13.4,57.42,13.38Zm0,0h0l0,0h0l0,0h-.08l.07,0h.07Zm0-.16h-.08l.06,0Zm-.09-.32h0s0,0,0,0h0l0,0h0Zm-.09.09a.18.18,0,0,1,.09,0h0a.29.29,0,0,1-.08,0s-.07,0-.09,0h0S57.11,13,57.16,13Zm-.06.57h0a.13.13,0,0,1-.08,0h0s0,0,0,0l.07,0ZM57,13.07v0h0a.19.19,0,0,1-.08,0h0l.06,0ZM57,13l0,0h-.1l0,0H57Zm-.14-.06h0s0,0,0,0h0s.05,0,.06,0h0l0,0h-.08Zm0,.1h0l0,0h0l0,0-.07,0h-.08s0-.12.08-.16l0,0,.09,0v0S56.84,13,56.83,13Zm-.14-.85a.23.23,0,0,1,.12,0h0v0l0,0h-.08Zm0,0h0l0,0s0,0,0,0Zm0,.4h.1s0,0,0,0h0l-.05,0h0S56.66,12.63,56.67,12.62Zm-.07-.51h0l0,0s0,0,0,0h0l0,0s0,0,0,0Zm0,.57h0s0,0,0,0h0s0,0,0,0Zm0,1.09,0,0h.11l0,0h-.17Zm0-.77h0l0,0h0l0,0h0s0,0,0,0h0l.07,0a.07.07,0,0,1,.06,0Zm-.07-.49h0l0,0h0l0,0c-.06,0-.09,0-.08,0h0s.05,0,.08,0h.07Zm-.15-1.1h0l.1,0h0a.32.32,0,0,1-.11,0h0S56.32,11.41,56.33,11.41Zm0,.92h0l0,0h0a.25.25,0,0,1,0,.07l0,0h0s0,0,0,0h.06a.18.18,0,0,1,0,.11.82.82,0,0,1-.17.11s0,0,0,0H56a.93.93,0,0,1,0-.1h0s0,0,0,0h.08l0,0a.06.06,0,0,1-.08,0v0a.19.19,0,0,1-.1,0h0v0h.11a.31.31,0,0,1,.17-.12h0a0,0,0,0,1,0,0h.05Zm-.05-.22h0s0,0,0,0h0s0,0,0,0h0Zm-.14-.64h0s0,0,0,0h-.09Zm-.15-.5H56s0,0,0,0h0s-.05,0,0,0Zm0,.14,0,0H56v0l0,0h-.12s0,0,0,0Zm0,1.86h0Zm0-1.22h0l0,0s0,0,0,0h0l0,0S55.85,11.74,55.84,11.75Zm0-.3h-.09s-.06,0,0,0l0,0h.09S55.82,11.44,55.81,11.45Zm0-.63h0a.14.14,0,0,1-.09,0h0a.16.16,0,0,1,.09,0Zm-.12-.19h0v0l-.06,0h0s-.05,0,0,0A.15.15,0,0,1,55.68,10.63Zm-.17.43h0l.1,0h0a.25.25,0,0,1-.1,0h0Zm-.07.39h.08l0,0,0,0h0s0,0,0,0S55.43,11.45,55.44,11.45Zm0,1h.07a0,0,0,0,1,0,0h-.09Zm-.11-1.86h.06s0,0,0,0h-.08s0,0,0,0Zm-.05.21.06,0h.05s0,0,0,0h0l-.09,0h0Zm0,.18.09,0h0s-.06,0-.09,0h0Zm0,2.3h0v0h0s0,0,0,0l0,0h-.11s-.07,0,0,0h0s0,0,0,0h.11Zm-.29-1.73s0,0,0,0h0a.12.12,0,0,1,.1,0h0l0,0H54.9Zm.16.78h0v0a.15.15,0,0,1-.08,0h0s-.05,0,0,0l0,0h.08Zm-.19,1.33,0,0H55s0,0,0,0h0l0,0h-.06S54.85,13.66,54.87,13.65Zm0-.55.07,0h0s0,0,0,0l0,0h0S54.85,13.11,54.85,13.1ZM55,14h0l0,0h0s0,0,0,0Zm0-1.35h-.06a.42.42,0,0,1,.14-.05h0s0,0,0,0Zm.1-2.17h0a0,0,0,0,1-.06,0h0Zm0,.55s0,0,0,0l-.07,0h-.07s0,0,0,0h0l0,0Zm-.24-1v0L54.9,10H55A.08.08,0,0,1,55,10v0l-.07.08s0,0,0,0l-.07,0,0,0Zm-.06,1.2,0,0h0s0,0,0,0h-.09Zm-.1-.71a.17.17,0,0,1,.11,0h0l0,0h-.09Zm0,1.72a.38.38,0,0,1,.11-.11l0,0h.08v0l0,.06-.07.05-.08.06h0A.08.08,0,0,1,54.62,12.28Zm-.09,1.32h0l.08,0s0,0,0,0h.08l0,0h-.08c-.07,0-.1,0-.08,0h0Zm0-.11h0l.09-.05h.06s0,0,0,0a.09.09,0,0,1-.06,0l-.09,0Zm.16-.91h-.06s0,0,0,0h.1s0,0,0,0H54.7Zm-.12.18a.19.19,0,0,1-.09.05h-.06a.32.32,0,0,1,.14,0h0S54.59,12.75,54.58,12.76Zm-.16.59,0,0s0,0,0,0h-.08l0,0Zm.14-1.73h0l0,0,0,0h0l-.07,0h0s0,0,0,0h0a.22.22,0,0,1,.1,0Zm-.16-1a.13.13,0,0,1,.09,0h0a.15.15,0,0,1-.1,0h0Zm0,2.21s0,0,0,0h-.14v0h0l0,0h0l.06,0Zm-.21.36h0s0,0,0,0l.05,0h0c.05,0,.08,0,.09,0s0,0,0,0l-.06,0h0a.06.06,0,0,1-.06,0h0Zm0-1.49h.09s0,0,0,0h0l0,0h-.05Zm.05-.69h.06l-.05,0H54.2A.2.2,0,0,1,54.28,11Zm-.09.67h.06s0,0,0,0h-.05S54.16,11.7,54.19,11.69Zm0,.29h.1v0l-.08,0h0s-.05,0,0,0Zm0,.14h.08l0,0h0a.08.08,0,0,1-.06,0h-.05s0,0,0,0h.07Zm-.2-1.74h0l0,0h0l.08,0h0s0,0-.07,0h-.07Zm0,2.08H54s0,0,0,0h0l-.06,0h0s-.06,0-.05,0l0,0Zm0-.05,0,0h-.08l0,0h.07S53.91,12.41,53.9,12.41Zm-.22.05h0v0h-.09l0,0h0a.27.27,0,0,1,.13,0h0s0,0,0,0a.19.19,0,0,1-.09.05Zm-.18-.64h-.07a.07.07,0,0,1,.06,0h0l.06,0h0l0,0,0,.07,0,0v0l-.06,0S53.49,11.85,53.5,11.82Zm0,.78h0l0,0h0s-.06,0,0,0l0,0h.09S53.53,12.59,53.52,12.6Zm-.07-1h.08l0,0h0S53.45,11.62,53.45,11.61Zm.15-.29a0,0,0,0,1,0,0h0a.28.28,0,0,1,.11,0h0l0,0h0l-.07,0h0Zm.14-.08h0l-.12,0h-.05l0,0h0l0,0s0,0,.06,0h0a.12.12,0,0,1,.08,0h0Zm-.12,1h0l.08,0h0v0l0,0h0l-.06,0h0s0,0,0,0Zm.14-1.19,0,0h.05l-.08,0Zm.12-.48H53.8a.15.15,0,0,1,.08,0Zm-.12-1.25.11,0s0,0,0,0h-.11ZM53.5,10v0l0,0s.1-.06.14,0v.06a.51.51,0,0,1-.12.09s0,0,0,0v0l-.06.07s-.06,0-.06,0S53.47,10,53.5,10Zm-.11,1.32h0l.08,0s0,0,0,0l0,0h-.13Zm-.14.28h0s.05,0,0,0h0A0,0,0,0,1,53.25,11.55Zm0,.56-.06,0h-.07s0,0,0,0h.09S53.27,12.1,53.26,12.11Zm-.18-2.19.07,0h-.07s0,0,0,0Zm-.24.78a.35.35,0,0,1,.11,0h0l0,0h0l0,0h0Zm0,.76a.28.28,0,0,1,.07-.09.29.29,0,0,1,.16,0l0,0,.08,0h.12v0l0,0-.1,0h0l-.06,0h0a.41.41,0,0,1-.12.14h-.07s0,0,0,0l0,0h-.08s0-.08,0-.1h0Zm.18.45h0s.06,0,0,0h0L53,12s0,0,0,0h0Zm0-.17h.09s0,0,0,0H53Zm.1.06h0s0,0,0,0h.05s0,0,0,0Zm-.15.08s0,0,0,0l0,0h0l-.06,0h-.06s0,0,0,0h.07l.08,0Zm-.14-.22h0s0,0-.06,0h0Zm-.32-1.8h0l0,0s.06,0,0,0h-.09s0,0,0,0Zm-.29,1.52s0,0,0,0h-.05v0ZM51.83,9a.77.77,0,0,1,.22-.16h.05c0,.06,0,.15-.18.29l0,0c-.05,0-.06,0-.05-.06s0,0,0,0ZM52,11.32s-.06,0-.06,0H52ZM51.9,11h0v0a.37.37,0,0,1,.11,0h0l0,0ZM52,11H52s0,0,0,0H52Zm-.82-.26a.67.67,0,0,1,.19-.12l0,0h0l0,.06a.62.62,0,0,1-.17.11s-.07,0-.08,0ZM48.76,7.37l0,0,.11-.09.06,0,.06,0s0,0,0,.06l0,0-.12.09,0,0h-.07v0A.07.07,0,0,1,48.76,7.37ZM47.6,8l0,0,.09,0h0s0,.07,0,.08h0l0,.07-.11.05h0l0,0A.2.2,0,0,1,47.6,8ZM45.71,5.15l0,0A.55.55,0,0,1,45.88,5L46,5l.07,0h.12l0,.08h0s0,0,0,.06l0,0c-.15.11-.27.15-.31.1S45.69,5.2,45.71,5.15Zm-2.25-1.8.07-.08h0l0,0a0,0,0,0,0,0,0l.06-.07a.11.11,0,0,1,.12,0h0v0s0,.06-.09.1a.24.24,0,0,1-.11.06h0s0,0,0-.07ZM40.74,2.7a.24.24,0,0,1,.12-.14l0,0a.06.06,0,0,1,.07,0h0l0,.05,0,0a.64.64,0,0,1-.13.1l0,0-.05,0A0,0,0,0,0,40.74,2.7ZM38.52,4.62a0,0,0,0,0,0,0l.09-.08h0s0,0,0-.07a.2.2,0,0,1,.06-.07h0s0,0,0,.06l.07,0,0,0s0,0,.05,0,0,.05,0,.09l0,0,0,.05a.61.61,0,0,1-.12.09l0,0-.07,0S38.52,4.65,38.52,4.62ZM37.09,2.69a.2.2,0,0,1,0-.1l0,0a.52.52,0,0,1,.24-.15h.06s0,.09-.08.13l0,0-.07.07h0s0,0,0,0l-.08,0Zm-6.72,1a.2.2,0,0,1,.09-.13l.06,0,0,0,0,.07-.09.07-.06,0ZM28.54,2.06a.46.46,0,0,1,.1-.1l.06,0h0s0,0,0,.06a.27.27,0,0,1-.11.1l-.06,0S28.53,2.08,28.54,2.06Zm-3.36.71.05,0h.07s0,.1-.09.17l-.07,0s0,0,0-.05h0S25.12,2.83,25.18,2.77ZM24.7,4.2l.09-.06s.05,0,.05,0h0l0-.06s.06,0,.07,0,0,0,0,.07,0,0,0,0l0,.06-.05,0h-.09c-.05,0-.07,0-.08,0Zm-1.3-.68a.26.26,0,0,1,.12-.11l.06,0,0,.06,0,.06-.05,0a.25.25,0,0,1-.14.08h0A.1.1,0,0,1,23.4,3.52Zm.28,1a.13.13,0,0,1,0,.07l-.05.06c-.06,0-.13,0-.12,0l0,0,.07,0h.1Zm-.31.33.06,0,.07,0s0,.08-.06.11-.11.07-.14,0Zm-2.5.43L21,5.21h.09c0,.06-.08.14-.11.17l-.05,0c-.06,0-.07,0-.07,0v0ZM20.7,6.86s.1-.06.14,0v0l0,.07c-.09.07-.12.05-.13,0l0,0h0Zm-1.84-.12c.05,0,.09,0,.11,0s0,.2-.09.24l0,0c-.11.06-.16.05-.17,0s0-.09,0-.17h0a.29.29,0,0,1,.11-.08l0,0,0,0Zm-.18-1.42.06,0h0s0,0,0,.07a.23.23,0,0,1-.12.08l0,0A.18.18,0,0,1,18.68,5.32ZM17.5,8.77h0s.09,0,.11,0h0l0,.07h0l-.07.07h-.07l0,0ZM16,9.24c.07-.06.12-.07.14,0s0,0,0,.06v0l0,.05s-.11.06-.14,0,0,0,0-.09Zm-1.21.14.06,0h0a.24.24,0,0,1,.09-.09l.06,0h0s0,.06-.08.12h0v0a.37.37,0,0,1-.25.23l0,0h0v0A.24.24,0,0,1,14.77,9.38Zm-3.67,2.7.05,0s0,0,0,0,0,0,0,0a.05.05,0,0,0,0,.05l0,.07-.05,0a.38.38,0,0,1-.13.13H11a.08.08,0,0,0,0-.07S10.92,12.22,11.1,12.08ZM10.56,14s0,0,.07,0l0,0,.06,0h0s0,0,0,.06l-.07.07h0s-.07,0-.09,0ZM4.19,20.4l.11-.06h0s0,.06-.11.16H4.15A.14.14,0,0,1,4.19,20.4ZM1.94,30.74h0a.3.3,0,0,1-.1.09H1.77a0,0,0,0,0,0,0s-.09,0-.1,0l.05-.07,0,0h0V30.7a.28.28,0,0,1,.09-.05h0s.07-.05.1,0v0Zm1,7.08a.19.19,0,0,1-.06.07l-.06,0s0,0,0-.06l0-.07.07,0a0,0,0,0,1,0,0S3,37.79,2.93,37.82Zm.24-16a.19.19,0,0,1-.09.05h0s0,0,0-.05a.2.2,0,0,1,.08-.08l0,0h.08A.15.15,0,0,1,3.17,21.79Zm.6,15.62s0,0,0,0l0,.05s-.06,0-.07,0l-.09,0h0s0-.06,0-.09a0,0,0,0,0,0,0l0-.05a.4.4,0,0,1,.12-.07h0l.06,0,0,0S3.8,37.37,3.77,37.41Zm0-1.58,0,0-.07,0s0,0,.05-.11l.08,0h0S3.76,35.82,3.74,35.83ZM4.21,41A.66.66,0,0,1,4,41.1H4c-.05-.07.07-.18.11-.22l0,0a.08.08,0,0,1,.08,0l0,0Zm2.15,5.41,0-.07,0,0a.41.41,0,0,1,.14-.15h0s0,0,.06,0,0,.1,0,.15l0,0a.25.25,0,0,1-.08.05l0,0a.09.09,0,0,1-.06,0s0,0,0,0Zm.35,4.11a.61.61,0,0,1-.16.16l-.14.06,0,0s0-.09.05-.13l0,0,0,0s.15-.1.2,0v.06Zm.5.94a.41.41,0,0,1-.18.12H7c-.06,0-.06,0-.06-.08s0,0,0,0v-.05a.35.35,0,0,1,.15-.12.12.12,0,0,1,.13,0S7.25,51.35,7.21,51.41Zm.35-.2,0,0-.09,0v0a.06.06,0,0,1,0-.08l0,0A.8.8,0,0,1,7.63,51h0S7.61,51.16,7.56,51.21Zm1.12.46,0,0h0a.26.26,0,0,1,.09-.17.54.54,0,0,1,.16-.1h0s0,.08,0,.11a0,0,0,0,0,0,0l-.05.06Zm.4,1.7-.18.15-.06,0h0s0,0,0-.06v0h0l0,0a.43.43,0,0,1,.14-.13c.07,0,.13,0,.16,0s0,0,0,0Zm1.07-.91c-.06,0-.08,0-.1,0v0a.54.54,0,0,1,.22-.19h0s0,0,0,0l0,.06,0,0a.24.24,0,0,1-.09.09Zm.25,2.39a.37.37,0,0,1-.1.07h-.07c-.06,0,0-.12.08-.17l0,0s0,0,.05,0,0,0,0,0h0Zm.53-.1a.05.05,0,0,1,0,0l0-.07.15-.1,0,0h.06a.43.43,0,0,1,0,0,0,0,0,0,0,0,0,.19.19,0,0,1,.16,0l0,.07,0,0h0l0,0a.53.53,0,0,1-.17.12s-.08,0-.1,0v0a.24.24,0,0,1-.13,0Zm.31,1,0,0-.07,0,0,0,0,0-.1.08s0,0,0,0v0h0v-.05a.31.31,0,0,0,.05-.1.45.45,0,0,1,.1-.16s0,0,0-.09a.59.59,0,0,1,.18-.17h.09l0,0v0l0,.05h.07a.07.07,0,0,1,0,0s0,0,0,0l-.07.09s-.08,0-.18.14A.09.09,0,0,1,11.24,55.74Zm.34.25-.09.07h-.07s0-.08.11-.15h.06l0,0Zm.51.41a.32.32,0,0,1-.12.11l-.05,0h0s0-.11.07-.13l0,0,.07,0h0A0,0,0,0,1,12.09,56.4Zm.5.75a.56.56,0,0,1-.18.16c-.07,0-.11,0-.12,0l0-.07a.19.19,0,0,0,.08-.07l.05,0,.08,0h.06Zm.45.09,0,0s-.07.06-.09.06l-.1.05s0-.05,0-.09a.6.6,0,0,1,.14-.13l.06,0,0,0A.07.07,0,0,1,13,57.24Zm0-2.67-.05,0a0,0,0,0,0,0,0l0-.06-.17-.16h0l0,0,0,0,0,0a.11.11,0,0,1,0-.12A28.18,28.18,0,0,1,9.7,50.66l0,0-.1,0H9.48a.26.26,0,0,1,.09-.17l0,0-.7-1,0,0h0s-.09.11-.14.11h0l-.05,0s0,0,0-.08l.06-.05c.07-.06.11-.07.13-.06l-.48-.74h0a.33.33,0,0,1-.15.1h0a0,0,0,0,1,0,0l0,0h0C8.13,49,8,49,8,49H8s0-.14.09-.24.09-.15.08-.16l0-.06.07,0c-.35-.58-.67-1.18-1-1.78l0,0h0l0,0h0s0,0,0,0,0,0,0,0l0,0s0-.11.08-.16h0l.06,0h0a28.63,28.63,0,0,1-1.35-3h0v0A29,29,0,0,1,42.28,5.91s.07,0,.08,0l0,0a29.21,29.21,0,0,1,9.83,5.66h.07s.06,0,0,0h0l-.06,0c.21.18.42.36.62.55h0l0,0h0c.35.32.68.65,1,1l.07-.05,0,0s.06,0,.06,0h0v.06l0,0,0,.05.25.26h0a.18.18,0,0,1,.09,0h0a.23.23,0,0,1-.1,0,2.39,2.39,0,0,1,.22.23h.08s0,0,0,0h0l0,0h0l.09.1.07,0v0h0v0h0l.11.13h0c.06,0,.12-.06.14,0v0h0l0,0s0,.07,0,.08l0,0,.45.53h0l.1,0h0s0,0,0,0h0l-.07,0h0l.36.44h0s0,0,0,0h0a.86.86,0,0,0,.07.1l0,0,.13-.1.07,0c0,.05,0,.1,0,.18l-.06,0h-.07l.11.14,0,0h0s0,0,0,.07c.22.28.43.56.64.85h0l0,0c.17.23.33.45.49.69h0c.12.18.24.36.35.54l0,0h0l0,0h0l0,0c.06,0,.07,0,.08,0h0l0,0h-.05c.17.27.35.54.51.82h.1s0,0,0,0h-.07l.06.11a.09.09,0,0,1,.07,0h0s0,0,0,0h0l0,.05v0h.07l.07,0v0h0v0h-.17a1.62,1.62,0,0,1,.1.18h0v0l0,0h0l.09.15h.05s0,0,0,0l0,0h0v0l.09-.06h0l0,0h0a.13.13,0,0,1-.08.13l0,0,.11.19.08,0h0s0,0-.07,0l.26.49,0,0h0l0,0a.1.1,0,0,1,.07,0h0s0,0,0,0l-.07,0h0a.08.08,0,0,1,0,0h0s0,0,0,0h0c.09.18.19.35.27.53h0c.39.79.73,1.59,1.05,2.41L60.3,23h0s0,0,0-.06a.12.12,0,0,1,.06-.08h0s0,0,0,.05l.07,0,0,0h0s0,.05,0,.09,0,0,0,.05l0,0a.26.26,0,0,1-.12.09l0,0-.05,0a29,29,0,0,1,1.86,10.23c0,.79,0,1.56-.1,2.33a1.24,1.24,0,0,1,.18-.14.66.66,0,0,0,.18-.14l.09,0s0,.09,0,.14,0,0,0,0l0,.06a.1.1,0,0,0-.05.08h0a.06.06,0,0,1,.07,0h0v0a.58.58,0,0,1-.16.15s-.09.05-.12,0h0v0l0,0C62,36.06,62,36,62,36h0a29.52,29.52,0,0,1-1,5.59h0a.84.84,0,0,1-.05.17H61s.06,0,0,0h0l-.09,0h0c0,.1,0,.19-.08.28h0c0,.1-.07.19-.1.29h.09l0,0h0l-.13.4h0l0,0h0c-.08.23-.16.47-.25.7h.09l0,0H60.3l-.32.81h0c-.07.18-.14.35-.22.52,0,0,0,0,0,0h0s0,0,0,0h-.06c-.15.34-.3.68-.46,1h.07s0,0,0,0h0l-.06,0h0c-.17.36-.35.7-.53,1h.07v0s0,.06-.07.09h-.07l-.16.29h0s0,0,0,0h0c-.27.48-.55,1-.85,1.43h0l-.57.88h0s0,0,0,0,0,0,0,0h0l-.62.87h0l-.33.44h0v0h0l-.21.27h0c-.52.65-1.07,1.28-1.64,1.89h0s0,0,0,0h0c-.59.62-1.22,1.22-1.86,1.8h0l0,.05h-.06a27,27,0,0,1-2.75,2.14h0s0,0,0,0h.06s0,.11-.17.19h0s0-.06,0-.08v0c-.45.3-.91.59-1.38.86v0l-.09.07h-.06A27.64,27.64,0,0,1,44.92,60l-.15.1-.05,0h0c-.36.16-.73.31-1.09.45l0,0-.06,0s0,0,0,0a28.59,28.59,0,0,1-4.4,1.31s0,0,0,0L39,62s-.08,0-.1,0v0l0-.06h0a29.89,29.89,0,0,1-4.26.55l0,0c-.08.05-.15.07-.18,0s0,0,0-.06c-.47,0-.94,0-1.41,0s-1,0-1.53,0c-.07,0-.14.08-.17.07h0s0,0,0-.08l-1.07-.08a.13.13,0,0,1,0,0,.24.24,0,0,1-.13.09h0a.19.19,0,0,1,.08-.14c-.75-.07-1.48-.18-2.21-.31l0,0,0,0v0h-.1s0,0,0,0v0l-.07.06-.07,0h0s-.08,0-.1,0l.05,0h0l-.05,0h0v0l0,0s0,0,0,0l.05-.07h0a28.43,28.43,0,0,1-3.58-.91.14.14,0,0,1-.08.09h0l-.05,0h0l-.06,0s0-.07.07-.11h0s0,0,0,0L24,61a28.79,28.79,0,0,1-7.31-3.61h0s0,0,0,0a29.51,29.51,0,0,1-3.54-2.86h0Zm2.84,2.9,0-.07,0,0c.11-.08.24-.17.32-.1l0,.07a.1.1,0,0,0-.05.06.32.32,0,0,1-.09.11l-.06,0h0l-.09,0A.09.09,0,0,0,15.91,57.47Zm-2.66-1.3,0,0a.92.92,0,0,1,.2-.14l.07-.05h.07a.39.39,0,0,0,0,.15l0,.06a.21.21,0,0,1-.12.06h0l-.06,0a.06.06,0,0,1-.06,0h0l0,0h0A.08.08,0,0,1,13.25,56.17Zm.07,1.95,0,0-.07,0s0-.07,0-.09v0L13.3,58s.06,0,.07,0v0h0S13.35,58.09,13.32,58.12Zm0-1.07a.15.15,0,0,1,.05-.11.6.6,0,0,1,.19-.16h0l0,0a.08.08,0,0,1,0,.07h0l0,.07a.43.43,0,0,1-.16.07l-.07,0Zm.07,1.1s0,0,0-.08,0,0,0,0l0,0a.28.28,0,0,1,.1-.06l0,0h.06a.36.36,0,0,1-.19.22Zm.24.41a.3.3,0,0,1-.18.08h0a.1.1,0,0,1,0-.09.35.35,0,0,1,.17-.09h.05A.15.15,0,0,1,13.67,58.56Zm1.89.35,0,0a.37.37,0,0,1-.1.07.15.15,0,0,1-.13,0h0l0,0,0,0s0-.08,0-.14a.69.69,0,0,1,.26-.17h0s0,0,0,0S15.6,58.86,15.56,58.91Zm.28.77h0l0,.05s-.09,0-.1,0v-.05h0l-.06,0a.69.69,0,0,1,.15-.14.12.12,0,0,1,.13,0v0A.25.25,0,0,1,15.84,59.68Zm.36-1.58h0l0,0,0,0h0l0,0a.59.59,0,0,1-.28.18h-.07s0-.09.05-.13h0a.31.31,0,0,1,.24-.16h.07l0-.06a.69.69,0,0,1,.27-.17h0l0,0s0,.12-.05.17l0,0a.24.24,0,0,1-.09.07C16.26,58.13,16.23,58.12,16.2,58.1Zm.06,1.57c0-.05,0-.09.08-.12h.07s0,0,0,.06l-.1.08Zm.47.49-.08.05a.67.67,0,0,1-.22.13h0c-.06,0,0-.08,0-.11s0,0,0,0l.05-.07.09-.06A.39.39,0,0,1,16.7,60h.05a.11.11,0,0,1,0,0v0Zm.42-1.41s0-.1.08-.12l.05,0s0,0,0,0,0,0,0,0a.3.3,0,0,1-.1.09Zm.46.48-.07.06a.8.8,0,0,1-.22.13h0c-.06,0,0-.08,0-.12a0,0,0,0,0,0,0l.06-.08a.19.19,0,0,0,.09,0,.6.6,0,0,1,.16-.08h0a.06.06,0,0,1,0,.05v0Zm1.46,1.58h0a.22.22,0,0,1-.07.07h0l-.06,0h-.1a.07.07,0,0,1,0-.06.36.36,0,0,1,.11-.14s.1-.06.14,0l0,0Zm2.69-.38a.58.58,0,0,1-.19.15h-.05c0-.06.07-.18.11-.21l.05,0a.08.08,0,0,1,.09,0v0Zm.58,2.31h-.05c-.05,0-.05,0-.05-.06s0,0,0,0l0,0a.19.19,0,0,1,.13-.08h.1v0A.34.34,0,0,1,22.34,62.74Z"/><polygon class="cls-1" points="59.62 19.45 59.62 19.45 59.62 19.45 59.62 19.45"/><polygon class="cls-1" points="60.44 47.06 60.45 47.06 60.45 47.06 60.44 47.06 60.44 47.06"/><path class="cls-1" d="M26,24.2h0s0,0,0,0A0,0,0,0,1,26,24.2Z"/><path class="cls-1" d="M23.94,23a1.74,1.74,0,0,0-.66,2.38c.56,1,1.15,1.92,1.75,2.83h0a.17.17,0,0,1,.12.18h0c.55.82,1.12,1.61,1.7,2.37a.43.43,0,0,0,0,0v0l.07-.09H27l.07.07v.13l-.06.06h0s0,0-.07,0c.73.94,1.47,1.85,2.25,2.7.42.44.83.86,1.25,1.28a28.9,28.9,0,0,1-5,3.1V38h0s0,0,0,0h0s0,0,0,0h0v.08a.09.09,0,0,1-.08-.09h0a.15.15,0,0,1,0-.09,26.8,26.8,0,0,1-4.26,1.61v0h.08l.08,0a.31.31,0,0,1,0,.2.45.45,0,0,0,0,.12l-.1.06h0l0,0v0l-.09.06a.2.2,0,0,1,.05.14.29.29,0,0,1-.05.21l.06.05a.11.11,0,0,1-.07.11.08.08,0,0,1,0,.1s-.11,0-.18,0h-.06v.07h0a.21.21,0,0,1-.12,0s0,0-.07,0l-.09-.06s0,0,0,0a0,0,0,0,1,0,0l-.05,0,0,0a.09.09,0,0,1-.07,0,.19.19,0,0,1,0-.1.12.12,0,0,1-.1,0l0,0a.11.11,0,0,1,0-.12h0l-.07,0a.31.31,0,0,1,0-.13.25.25,0,0,0,0-.1l-.07,0,0,0v0a26.49,26.49,0,0,1-4.55.67,1.75,1.75,0,0,0,.1,3.49h.11a31.06,31.06,0,0,0,3.21-.37h0s-.06-.08,0-.14v0l.08,0h0a.16.16,0,0,1-.12-.18l0,0v0a.06.06,0,0,1,0-.06l0,0a.14.14,0,0,1,0-.06c-.05,0-.07,0-.07,0s0,0,0-.05h0L18.47,43a.12.12,0,0,1-.14,0,.14.14,0,0,1,0-.13l.11,0h0a.28.28,0,0,1,0-.13l.06,0v0l0,0,0,0a.57.57,0,0,0,0-.23l0,0-.05.05a.53.53,0,0,1-.11.11h0l-.07,0h0a.14.14,0,0,1-.2,0l0-.06c0-.06,0-.08,0-.09l-.08-.07a1.57,1.57,0,0,1,0-.23v0s-.09,0-.09-.1a.29.29,0,0,1-.12-.13l0-.07v-.07a.21.21,0,0,0,0-.15s0-.06,0-.09l.05-.07,0,0v0a.08.08,0,0,1,.08-.07.1.1,0,0,1,.17,0h0a.48.48,0,0,1,.16-.08l.07.07h0l0,.09h0l.07,0h0s0,0,0,0l.08-.05s.05,0,.06,0a.24.24,0,0,1,.12.07l0,0h.06l0,0v0h0l.09,0h0l.09,0a.1.1,0,0,1,.06.09.12.12,0,0,1,.06.08.11.11,0,0,1-.07.12h0l0,0h0l0,0a.13.13,0,0,1,0,.06l0,0h0a.25.25,0,0,1,.09,0l0,0,.1.08s0,0,0,0v0a.09.09,0,0,1,.14.07.12.12,0,0,1,0,.1h0a.31.31,0,0,1,0,.09.15.15,0,0,1,0,.1l0,0a.35.35,0,0,1,.08.1c0,.05,0,.05,0,.05h0l.07.06h0v0h0l.11-.08,0,0a.29.29,0,0,1,.06.1.15.15,0,0,1,.13.12.13.13,0,0,1,0,.16h-.05c-.08,0-.09-.08-.1-.12v0h0a.06.06,0,0,1-.05,0h0l-.06,0-.07,0,.06,0a.08.08,0,0,1,0,.08h0l0,0h0l0,0a.14.14,0,0,1,.09,0l0,0h0l.05,0,0,0a.14.14,0,0,1,.17.05.09.09,0,0,1,0,.11l-.06,0h0a.4.4,0,0,1,.07.13.15.15,0,0,1,.11,0l0,.1,0,0,.05,0v0a.14.14,0,0,1,.11-.12l.1-.09.08,0,0,0,0,.1a31,31,0,0,0,12.47-6.13,30.69,30.69,0,0,0,17.55,6.87h.11a1.74,1.74,0,0,0,1.42-.74h0l-.06,0a.09.09,0,0,1-.08-.09l-.08,0,0,0a.13.13,0,0,1-.09-.05l0,0v-.08a.16.16,0,0,1-.05-.14.16.16,0,0,1,.1-.12V42.7l.08,0v0l.06-.07a.22.22,0,0,1,.25.13h0l.07,0h0l.08.06v0l0,0,0-.1a.11.11,0,0,1,0-.09.11.11,0,0,1,.08-.11s0-.05,0-.08a1.74,1.74,0,0,0-1.64-1.85c-.6,0-1.23-.1-1.88-.18v0a.37.37,0,0,1,0,.09h0c.12,0,.1.14.09.2v.07l0,0,.09.09A.19.19,0,0,1,49,41s0,0,0,0l0,.09v0h0l0,.12h0a.24.24,0,0,1,0,.13c0,.07-.07.09-.11.08h0l0,0h0c0,.09-.06.1-.09.1a.15.15,0,0,1-.11-.06l0,0h0a.17.17,0,0,1-.1,0,.31.31,0,0,1-.1-.1v0h0l-.05,0h0l0,.07a.29.29,0,0,1-.08-.07h0l-.1-.07s0,0,0,0h-.06l-.05-.1,0-.06a.05.05,0,0,0,0,0l-.06-.1s0,0,0,0a.18.18,0,0,1,0-.1l0-.06s.07,0,.09,0v0a.56.56,0,0,1,0-.1l0,0,0,0s0,0,0-.07a.29.29,0,0,1-.06-.1.28.28,0,0,1,0-.09v0h0v0l-.07.07h-.09L48,40.37v-.09h0l-.16,0h0l0,.06v0l.06.06a.22.22,0,0,1,0,.08v0l.08.06a.1.1,0,0,1-.07.1l0,0-.06.06h0l-.07,0a.12.12,0,0,1,0-.09s0,0,0,0h0l0,0s0,0,0,.07l0,.09a.12.12,0,0,1-.19-.09h0l0,0a.1.1,0,0,1,0-.13,0,0,0,0,0,0,0l.07,0h0s-.13-.07-.11-.19l0,0h0s0-.05,0-.06L46.78,40h-.11a0,0,0,0,1,0,0A26.19,26.19,0,0,1,41,38.1h0c-.07,0-.14,0-.17.08h-.12l0-.06a.32.32,0,0,1-.07-.22l-.73-.36h-.12a.08.08,0,0,1,0,0c0-.05,0-.07-.08-.07v0a29.55,29.55,0,0,1-3.92-2.54q.45-.45.9-.93v0l.09-.1v0l.24-.25a42.85,42.85,0,0,0,5.08-6.8H42a.18.18,0,0,1-.08.05v.06a.25.25,0,0,1,0,.14l-.09,0h0a.18.18,0,0,1-.09.1h-.11v0l-.06.05h-.06l-.05.06a.14.14,0,0,1-.17-.09s0,0,0,0l-.09-.06a.23.23,0,0,1,0-.13l0,0a.1.1,0,0,1-.12,0h0l0,0v.07a.1.1,0,0,1-.11-.1h0a.14.14,0,0,1,0,.07L41,27c0,.05,0,.08,0,.11h0l.06,0s.15,0,.17.11l0-.06a.17.17,0,0,1,.09.05.22.22,0,0,1,0,.14h.06l0,.12a.36.36,0,0,1-.19.07.12.12,0,0,1-.1,0,.16.16,0,0,1,0-.12l0,0v0h0l-.12,0s0,.07,0,.09l0,0h0a.25.25,0,0,1-.06.13l0,.05v0a.34.34,0,0,1,0,.17.2.2,0,0,1,.12.06h0l0,0c.05,0,.07,0,.07.07s0,.08,0,.09a.32.32,0,0,1-.19.15h0a.15.15,0,0,1-.11-.06l-.08-.09a.12.12,0,0,1,.12-.1V28h0l-.05-.07a.16.16,0,0,1-.1,0h0c-.06,0-.07-.09-.09-.14s0,0,0-.05l0-.06c0-.06.06-.09.09-.1a.1.1,0,0,0-.1-.07l-.07,0a.15.15,0,0,1,0-.07.31.31,0,0,1-.1.1s0,0,0,0l0,0,.08,0s0,0,.06,0l.09.07v.09l-.06.07a.12.12,0,0,1-.11,0l0,0a.17.17,0,0,1-.09-.05.17.17,0,0,1,0-.16.12.12,0,0,1-.13-.13v0l0,0-.08-.07a.17.17,0,0,1,.1-.14l0,0,.09,0h0L40,27.09a.18.18,0,0,1,.08-.13s0,0,0-.07l.09-.07.08,0c.12,0,.27.06.3.21l0,0,0,0a.32.32,0,0,1-.06.13l0,0a.88.88,0,0,1,.23,0,.06.06,0,0,1,0-.06v0s0,0,0,0-.06,0-.07-.08a.1.1,0,0,1,0-.09l0,0a.2.2,0,0,1-.06-.19l.07-.07a.13.13,0,0,1,.12.12l0,0a.05.05,0,0,1,0,0v-.06a0,0,0,0,0,0,0v-.17a.3.3,0,0,1,0-.12h0s0,0,0,0a.15.15,0,0,1-.08-.1l0,0a.26.26,0,0,1,0,.14l-.11,0a.13.13,0,0,1,0-.16s0,0,0,0l0,0a.15.15,0,0,1,0-.11s0,0,0,0,0,0,0,0h0l-.09-.09,0,0h0a.27.27,0,0,1-.08-.07v-.07s0,0,0,0v0a.16.16,0,0,1,0-.12h0a.34.34,0,0,1,0-.14l0-.06a.16.16,0,0,1,.2,0v-.06l0,0a.22.22,0,0,1,0-.14l.11,0h0l0-.08a.16.16,0,0,1,0-.08l-.08,0a.13.13,0,0,1,0-.14l0,0-.08,0a.13.13,0,0,1,0,.1l-.06.05v.06a.31.31,0,0,0,0,.1l-.06.07h0a.15.15,0,0,1,.08.15l-.07.07h0a.26.26,0,0,1-.16,0l-.05-.06s0,0,0,0l0-.13,0,0v0a.31.31,0,0,1,0-.1s0-.08,0-.11,0,0,0,0l0-.1s0-.05,0-.08a.1.1,0,0,1,0-.08.07.07,0,0,1,0-.06v0h0l.08,0h-.06l-.08-.07a.12.12,0,0,1,.09-.11s0,0,0,0l.11-.06h0a.2.2,0,0,1,.09.06l0-.05a.94.94,0,0,0,.1-.1l.06,0h.09l0,0a.17.17,0,0,1-.12-.21l.09-.05h0a.14.14,0,0,1,.06-.16.18.18,0,0,1,.22,0h0l0,0a.11.11,0,0,1,.1.05.12.12,0,0,1,0,.11h.08s0,0,0,0a.22.22,0,0,1,.13,0l0,0a.07.07,0,0,1,.06,0,.06.06,0,0,1,0,.06l.05,0a.14.14,0,0,1,0,.06,0,0,0,0,1,0,0s0,0,0,0l.1.06a.35.35,0,0,1-.29.34h-.06l-.05,0a.1.1,0,0,0-.07,0L41,24.45a.86.86,0,0,0,0-.13.33.33,0,0,1,0-.14h0s-.08.09-.14.09h0a.13.13,0,0,1,.1.1h0l.07.05a.12.12,0,0,1,0,.11.21.21,0,0,1,0,.1,0,0,0,0,0,0,0l0,.06a.19.19,0,0,1-.07.11h0s.06.05.07.09l.1,0a.16.16,0,0,0,.15.07l.07.08a.12.12,0,0,1-.09.1s0,0,0,0v0h.12l0,0h0l.07,0v0l.07,0h0a.09.09,0,0,1,.08,0h0a.14.14,0,0,1,.15.06l.07.08H42l0,0s0,.06,0,.1h0a.14.14,0,0,1,.09,0l0,.06h0l.06,0v0a.1.1,0,0,1,.08,0h0l0,.09,0,0a.33.33,0,0,1,.14.19l.33-.55a1.75,1.75,0,0,0-3-1.73l-.1.17a.18.18,0,0,1,.09,0V24s0,0,0,.06l.13,0h0l0,0s0,0,0,0L40,24c.08,0,.12,0,.12,0s0,.13-.06.2a.13.13,0,0,0,0,.07l-.11,0h0l0,0h0a.18.18,0,0,1,0,.21.1.1,0,0,0,0,.05s0,0,0,0,0,.1-.07.11a.23.23,0,0,1-.07.14l0,.05h.06l.06,0c.06,0,.08,0,.08,0s0,.09,0,.12,0,0,0,0l-.08.06h0l-.1,0-.08,0a.12.12,0,0,1-.07-.07h0a.12.12,0,0,1-.08,0v0a.27.27,0,0,0,0,.2l0,.06h0l0,0,0,.09a.09.09,0,0,1-.1.07.21.21,0,0,1-.11,0h0l0-.06,0,0-.08.07h0l0,.1a.21.21,0,0,1-.18.1l-.08-.08a.14.14,0,0,1-.12.05h0c-.25.39-.51.76-.77,1.14,0,0,.08,0,.09.08a.2.2,0,0,1-.07.16l0,0-.09,0s0-.06,0-.09a37.29,37.29,0,0,1-3.29,4.15c-.4.43-.79.83-1.19,1.22a.24.24,0,0,1,0,.07l-.06,0h0l0,0c-.45-.43-.89-.88-1.34-1.36a39.55,39.55,0,0,1-4.8-6.49.2.2,0,0,0,0,.07s0,0,0,.08h0A.08.08,0,0,1,27,25,.19.19,0,0,1,27,25v0s0,0,.05,0l.07.06a.11.11,0,0,1-.06.13s0,0,0,0a.19.19,0,0,1,.07.19l-.07.06h-.34a.18.18,0,0,1-.07-.19v0h0l-.07-.09a.15.15,0,0,0,0-.06v0l-.06,0a.22.22,0,0,1-.11-.2l0,0h0a.15.15,0,0,1,.08.19l-.07.05h0v0l0,0-.07,0s0,0,0,0l-.06.06h0a.1.1,0,0,1-.09-.05l0,0h0a.14.14,0,0,1-.14-.07.2.2,0,0,1,.07-.2l0,0a.1.1,0,0,1,.08,0h0l0,0,0-.1h0a.19.19,0,0,1,0-.08l.08-.07h0a.09.09,0,0,0,.07,0,.14.14,0,0,1,.17,0v0l0,0a.4.4,0,0,1-.08-.16l.05-.08h0l0,0v-.09l.1-.06a.3.3,0,0,1,.18.17v0a.21.21,0,0,1,.13.05h0s0,0,.06,0c-.19-.31-.38-.61-.57-.94A1.74,1.74,0,0,0,23.94,23Zm-9.5,19.61a.17.17,0,0,1-.1,0l0,0c-.11,0-.09-.13-.09-.17v0l-.06-.1c0-.06.06-.08.1-.08a.11.11,0,0,1,.09.05l0,0h0l0,0a.2.2,0,0,1,.11,0l.08.07s0,0,0,0l0,0,0,.12A.3.3,0,0,1,14.44,42.65Zm.83-1.86s0,0,0,0l0,0h0a.15.15,0,0,1,0,.07.12.12,0,0,1-.11.13l-.06,0,0-.06V40.9h0l-.07,0a.1.1,0,0,1,0-.11l.08,0h.06l.08-.06a.13.13,0,0,1,.09.06S15.27,40.77,15.27,40.79ZM17,43.66H16.9a.24.24,0,0,1,0-.1s0,0,0,0l-.07-.06a.2.2,0,0,1,0-.14.13.13,0,0,0,0-.07l.06-.08h.07a.13.13,0,0,1,.13-.09h.13l0,0,.12,0a.18.18,0,0,1,0,.16s0,0,0,0l0,.08A.41.41,0,0,1,17,43.66Zm.76-1.39a.29.29,0,0,1,0,.15.42.42,0,0,0,0,.12l-.08.1-.05,0a.45.45,0,0,1-.1.13h-.07l-.12,0a.44.44,0,0,1-.24-.13l0,0h0a.13.13,0,0,1-.07,0l0-.06a.16.16,0,0,1,0-.06.15.15,0,0,1-.06-.11.11.11,0,0,1,0,0,.13.13,0,0,1,0-.06l0,0h0l0,.06,0,0,0,0h0c-.08.1-.2.05-.2,0a.11.11,0,0,1,.06-.11.53.53,0,0,1,0-.19l.07,0a.13.13,0,0,1,.05-.09l.06,0a.23.23,0,0,1,.14.11.17.17,0,0,1,.13,0,.07.07,0,0,0,.06,0v0l0,0h.14l.07.07v.13a.23.23,0,0,1,.12,0l0,.11h0l0,0A.13.13,0,0,1,17.71,42.27ZM20.22,41l0,.07h0s0,0,0,0h.06a.15.15,0,0,1,.14.12.23.23,0,0,1,0,.21l-.05,0h-.13l-.06,0a.2.2,0,0,1,0-.18H20L20,41.2v0h-.09l-.05-.07h0l0-.11a.59.59,0,0,0,.08-.11v0s0,0,0,0,0-.08,0-.12h0v-.07h0v0s0-.08.08-.08a.08.08,0,0,1,.08.09h0a.16.16,0,0,1,.1,0l0,.11.09,0c.05,0,.07,0,.07.06a.14.14,0,0,1,0,.14v0l-.08.05h-.05Zm3.31-1.19h-.08a.05.05,0,0,1,0,.06h0l-.07,0,0,0h0c-.08,0-.1-.09-.11-.12l0,0h0l-.05.06h0a.33.33,0,0,1-.06-.08s0,0,0,0l0-.08.06-.09s0,0,0-.08l.06-.09a.42.42,0,0,1,.4.12v.07a.06.06,0,0,0,0,.06.19.19,0,0,1,0,.12Zm2,.7h-.05a0,0,0,0,0,.05,0l-.11.08c-.13-.11-.11-.18-.05-.3a.09.09,0,0,1,.08-.06l.05,0s0,.06,0,.1l0,0,.05.07C25.63,40.55,25.56,40.55,25.54,40.55Zm.51.26-.12,0-.07,0-.12,0-.07-.08a.24.24,0,0,1,.1-.16s.05,0,.05-.06l.11,0H26l.07.07Zm.74-.25a.11.11,0,0,1-.1-.11.12.12,0,0,1,.16-.12v.06h0v0h0l.05,0A.12.12,0,0,1,26.79,40.56Zm1.52-2.26h0a.12.12,0,0,1,0,.13.15.15,0,0,1-.09,0h0v0l-.08.1a.26.26,0,0,1-.16-.07s0,0,0,0a.16.16,0,0,1-.12,0c0,.05-.06.08-.09.11l0,0a.15.15,0,0,1-.05.18l-.06,0-.06,0a.24.24,0,0,1-.2.11l-.07,0a.3.3,0,0,0-.11-.14l-.05,0,0,0,0,0-.06,0a.17.17,0,0,1,0-.12v0h0l-.05,0h0a.16.16,0,0,1-.1,0l0-.07a.1.1,0,0,1,0-.06.18.18,0,0,1-.15,0l0-.07,0,0a.15.15,0,0,1-.07-.07l0-.07,0,0a.59.59,0,0,1-.06-.16l.08-.07h0v-.05l.11,0h.16a.12.12,0,0,1,.14,0h0l0,0,0-.06a.15.15,0,0,1,.23,0v0h0a.11.11,0,0,1,.14-.1v0a.45.45,0,0,1,.38.07l.06,0h0a.28.28,0,0,0,.24,0l.08.1,0,.06a.14.14,0,0,0,0,.06h0l.06,0a.11.11,0,0,1,0,.08l.05,0a.34.34,0,0,1,.09.15c0,.08,0,.1.08.1l.06,0A.14.14,0,0,1,28.31,38.3Zm.23-.53-.05,0s-.06,0-.09-.08l0,0,.05,0-.07,0a.09.09,0,0,1,.09-.08c.05,0,.09,0,.11.09A.16.16,0,0,1,28.54,37.77Zm.77.85a.31.31,0,0,1-.1.16.11.11,0,0,1-.06.09h0a.4.4,0,0,1-.16,0h-.05v0l-.1,0a.33.33,0,0,1-.18-.25h0a.22.22,0,0,1,0-.24s.06,0,.09-.06h.05s0,0,0,0l.05-.11a.82.82,0,0,1,.4,0l0,0,.05.08a.06.06,0,0,0,0,.07l0,0v.08S29.31,38.6,29.31,38.62ZM50.7,43.56l.08-.05.06,0,.08-.07a.18.18,0,0,1,.09.06s0,.07,0,.09a.08.08,0,0,0,0,0l0,0,0,0a.13.13,0,0,1,0,.06c0,.08,0,.13-.11.13l-.06,0,0-.06v-.06h0l0,0a.15.15,0,0,1-.07-.05A.08.08,0,0,1,50.7,43.56Zm-1.37-1.23,0,0h-.07l-.06-.08v0l0,0a.09.09,0,0,1,0-.08.14.14,0,0,1,.2,0A.09.09,0,0,1,49.33,42.33Zm-.59-.56s0,0,0-.09l.06-.08a.42.42,0,0,1,.4.12v.07a.06.06,0,0,0,0,.06.4.4,0,0,1,0,.12l0,.07h-.08s0,.05,0,.06h0l-.06,0,0,0h0c-.08,0-.1-.09-.1-.12l0,0h0l-.05.06h0a.18.18,0,0,1-.06-.08s0,0,0,0l0-.08A.2.2,0,0,1,48.74,41.77Zm-2.06.11h0s.17,0,.15.16l-.06.06h-.06a.16.16,0,0,1-.14-.05.12.12,0,0,1,0-.12Zm-2,.3a.36.36,0,0,0,0-.09l.07,0a.3.3,0,0,1,.15,0,.07.07,0,0,0,.09,0l.1.07s0,0,0,0h0l0,.12a.09.09,0,0,1,0,.08h0l0,0v0l0,0h0v0h0l0,0h0a.23.23,0,0,1,.08-.07h0l.1-.08h0l.08,0,0,0h0l.06,0a.13.13,0,0,1,0,.05v0a.1.1,0,0,1,0,.08h0l.08,0a.13.13,0,0,1,0,.08h0l0,.12a.12.12,0,0,0,0,.16l-.08.1a.11.11,0,0,1-.1.06l-.1,0H45.4a.08.08,0,0,1,0,0c0-.05,0-.07-.08-.07l-.06-.1s0,0,0-.07,0,0,0,0a.36.36,0,0,1-.15.17h0a.13.13,0,0,1-.11,0,0,0,0,0,1,0,0,.19.19,0,0,1-.1,0l0,0-.09,0C44.55,42.41,44.64,42.27,44.69,42.18Zm-.54-2.67a.1.1,0,0,1,.08-.07h.05l.07.13a.11.11,0,0,1-.11.11h0l-.05-.06a.12.12,0,0,1,0-.09Zm-.71.38v0l.06-.09h.09l.07.1v0s0,0,0,.07h.06l.07.05a.14.14,0,0,1,0,.1.18.18,0,0,1-.13,0l-.08-.09h0l-.07,0L43.38,40A.13.13,0,0,1,43.44,39.89Zm-.1,2a1.63,1.63,0,0,0,0-.25l.07-.07h.12l.07.08h0l.06,0c.06,0,.19,0,.16.22l-.11,0H43.6v.08l-.09.08h0a.13.13,0,0,1-.11.07h0l0-.07A1,1,0,0,1,43.34,41.92ZM42.27,39.2v-.05l.09-.1c.09,0,.11.14.14.22a.36.36,0,0,0,0,.11l-.06.11s0,.06-.1.06h0l-.05-.1s0,0,0,0a.19.19,0,0,1,0-.09A.18.18,0,0,1,42.27,39.2Zm-5.7,0a.14.14,0,0,1,0-.08l0,0a.14.14,0,0,1,.17.11v0s0,0,0,0l.07.06h0l0,.08a.08.08,0,0,1-.08.07l-.06,0h-.05a.2.2,0,0,1-.1,0h-.06a.09.09,0,0,1-.06-.08.1.1,0,0,0,0-.16ZM41.92,25h0V25L42,25h0a.11.11,0,0,1,0,.12.14.14,0,0,1-.12.07.18.18,0,0,1-.14-.07V25S41.85,25,41.92,25Zm-1.43-1.49s0,0,0-.07l.07-.08s0,0,0,0a.25.25,0,0,1,0-.07l0,0h0a.2.2,0,0,1,.2-.06l0,.08s0,0,0,0a.17.17,0,0,1,.05.12h0l.05.07c0,.16-.13.18-.22.2l-.07,0h0a.1.1,0,0,1-.09-.07.15.15,0,0,1-.15,0l0-.07A.29.29,0,0,1,40.49,23.48ZM40,27.11a.21.21,0,0,1-.18.09.28.28,0,0,1-.21-.11v0a.28.28,0,0,1,.13-.3h.07a.1.1,0,0,1,.08,0s0,0,.1,0l.06.05A.31.31,0,0,1,40,27.11Zm-.89-1h.06V26h0v-.11a.18.18,0,0,1,0-.12s.09,0,.12-.05l.08.09a.21.21,0,0,0,0,.11s0,0,0,.08l-.1.05.06,0,0,.05,0,0,0,0h0l0-.07a.06.06,0,0,0,0-.05l.07-.07a.07.07,0,0,1,.06,0h0a.14.14,0,0,1,0-.18l0,0a.09.09,0,0,1,0-.06h0v-.06l.09-.06h0v0a.11.11,0,0,1,0-.09l0,0h.06s0,0,0,0l.12,0,.06,0a.29.29,0,0,1,.17.2l0,.09h-.07s0,0,0,0,0,0,0,.08l-.08.09s0,.06,0,.09a.19.19,0,0,0,.13.17l0,.09a.1.1,0,0,1,0,.07h0l0,0h0a.08.08,0,0,1,0,0l.08-.08v.07h.06s0,.06,0,.06v.07h0a.06.06,0,0,1,0,.06h0s0,0,0,0l-.06,0,0,0a.16.16,0,0,1-.09,0l-.08,0,0-.05a.25.25,0,0,0,0-.07l0-.06h0l-.06.05-.05,0h0s0,0,0,0a.07.07,0,0,1,0,0l-.11.09h-.05c-.07,0-.08-.07-.08-.12h-.1a.37.37,0,0,0-.14,0l-.07-.05h-.06l-.06-.07s0,0,0-.05v0a.09.09,0,0,1-.06,0v-.08s0,0,0,0,0,0,0,0h0S39.05,26.09,39.06,26.08Zm-.14,3.42,0-.1a.24.24,0,0,1,.23.05l.07,0,0,.11h0l0,0,0,0a.23.23,0,0,1-.05.18.31.31,0,0,1-.23.08L39,29.87a.1.1,0,0,0,0-.08.32.32,0,0,1-.08-.13.15.15,0,0,1,.06-.14Zm-1.87,1.79.07.07v.12l-.06.07h0c-.11,0-.13-.1-.14-.15v0l.07-.08Zm-.36-1.15.1-.07.05,0,.06.07v.06l-.07.07h-.12l-.07-.09A.25.25,0,0,1,36.69,30.14ZM31.8,36.2l-.06-.05v0h0a.1.1,0,0,1,0-.1l.08,0h.12L32,36a.21.21,0,0,1,0,.12.19.19,0,0,1-.15.06Zm.27,1.65H32l-.07-.07v-.06l.06-.07a.16.16,0,0,1,.14,0,.13.13,0,0,1,0,.1Zm2.43-1.3a2,2,0,0,1,0,.24l-.06.05h-.06a.14.14,0,0,1-.12.06h-.08l-.07.05a.09.09,0,0,1-.08-.11,0,0,0,0,1,0,0,.41.41,0,0,0-.09-.1l-.06,0v-.09l.06-.07h0s0,0,0,0l.07-.1,0,0a.22.22,0,0,1,.1-.09h0a.13.13,0,0,1,.09,0s0,0,0,0h.05a.18.18,0,0,1,.16,0v0h0l.06.08S34.51,36.52,34.5,36.55Zm-.27-1.93c0-.07.07-.15.14-.15h0l.05.05a.13.13,0,0,1-.06.15l-.08.06A.11.11,0,0,1,34.23,34.62Zm1.11-.5h0l.06,0,.07-.06a.15.15,0,0,1,.11.05s0,.09,0,.11l0,0,0,.11a.18.18,0,0,1-.15.07.4.4,0,0,1-.22-.09v-.1A.17.17,0,0,1,35.34,34.12ZM34.19,32s.1,0,.13.13l-.08.09h0l0,0a.14.14,0,0,1-.1-.16A.1.1,0,0,1,34.19,32Zm-.28,1.82a.15.15,0,0,1,0-.07l.07,0h0a.22.22,0,0,1,.1-.17l.08,0a.19.19,0,0,1,.09,0,.27.27,0,0,1,.16,0,.42.42,0,0,0,.12,0l.07.06s0,.07,0,.1a.72.72,0,0,1,0,.22l0,0-.07,0h0a.1.1,0,0,1,0,.05.14.14,0,0,1-.11,0h0s0,0,0,0l-.1.1-.11,0a.41.41,0,0,1-.27-.08V34h0a.1.1,0,0,1-.08-.09A.1.1,0,0,1,33.91,33.83Zm-.18,1.07a.12.12,0,0,1,.14.07h0l.06,0L34,35h0l.06.07v.18l0,0h.07l.08.07v.09l-.09.07h0v0l-.1.06a.14.14,0,0,0-.11,0h0a.14.14,0,0,1-.14.13h0v0h-.07l-.05-.08a.12.12,0,0,0,0-.11.21.21,0,0,1,0-.19l.05-.06a.12.12,0,0,1,.1,0l0-.05s0,0,0,0l.07-.07s0-.06,0-.09v0ZM33,33.15a.09.09,0,0,1,0-.08h0a.18.18,0,0,1,0-.08.14.14,0,0,1,.11,0h0l0-.06h0a.1.1,0,0,1,.08,0,.36.36,0,0,1,.28.5l0,0a.46.46,0,0,1-.3.13.31.31,0,0,1-.13,0v0c-.07,0-.14,0-.16-.13a.27.27,0,0,1-.09-.26Zm-.15,3.3s0,0,0,0l.07-.08a.16.16,0,0,1,.11.07l.06.12a.08.08,0,0,0,0,0,.25.25,0,0,1-.19.1h0l-.07-.07A.18.18,0,0,1,32.83,36.45Zm-.54-3c0-.08.09-.08.13-.08h0l.06,0a.3.3,0,0,1,0,.21l-.07.06h-.16l-.07-.08a.1.1,0,0,1,.06-.08Zm-.56,1.51v0a.15.15,0,0,1,0-.16.09.09,0,0,1,0-.06l.05,0h0l0,0a.72.72,0,0,1,.25,0h.16l0,.08s.06,0,.07,0a.12.12,0,0,1,0,.08s.05,0,.06.05,0,0,0,.06,0,0,0,.05v.07a.14.14,0,0,0,0,.14l-.06.11s0,0-.07.09a.2.2,0,0,1-.06.13l-.06,0H32a.12.12,0,0,1-.08,0,.18.18,0,0,1,0-.06c-.05,0-.1,0-.12,0v-.1h0s-.07-.09-.06-.25A.14.14,0,0,1,31.73,34.94Zm-5.26-5.76-.07,0h0l-.05-.08,0-.08h0l0-.07a.21.21,0,0,1,.23-.22l.06,0,.08.05a.25.25,0,0,1,0,.18v0a.39.39,0,0,0,0,.14l-.06.09A.22.22,0,0,1,26.47,29.18Zm.39.41-.07.07h-.12l-.07-.09a.13.13,0,0,1,0-.07l.1-.07.05,0,.06.07ZM29.64,29l.08-.07a.14.14,0,0,1,.13.16.1.1,0,0,1-.11.1.14.14,0,0,1-.1,0l0-.09A.08.08,0,0,0,29.64,29Zm-.77-.09.05-.11a.23.23,0,0,1,.23.06s0,0,.07,0l0,.11h0l0,0v0a.21.21,0,0,1,0,.18.29.29,0,0,1-.23.08L29,29.23a.1.1,0,0,0,0-.08.21.21,0,0,1-.08-.13.13.13,0,0,1,.06-.13Zm-.31.62h0l.07.09a.21.21,0,0,1-.17.13.16.16,0,0,1-.1,0v-.09A.2.2,0,0,1,28.56,29.49Zm-.32,2.65a.05.05,0,0,1,0,0,.1.1,0,0,1,0-.09l.07,0a.2.2,0,0,1,.15.1.22.22,0,0,1,0,.21l0,0h-.05l-.06,0h0l-.06,0s0-.08,0-.1A.1.1,0,0,1,28.24,32.14ZM28,29.43l-.12,0a.21.21,0,0,1-.05-.25l.1,0A.19.19,0,0,1,28,29.43Zm-.35-3.18h0s0,0,0,0l.09-.08a.13.13,0,0,1,.1.09c0,.07,0,.12-.06.16l0,0-.09,0a.19.19,0,0,1-.1-.18Zm-.07,2.14a.09.09,0,0,1,0,.07l0,0a.09.09,0,0,1-.06,0l-.06,0v-.1l0,0a.09.09,0,0,1,.09-.09A.14.14,0,0,1,27.62,28.39Zm-.23-1.29.09-.06a.12.12,0,0,1,.1.08.13.13,0,0,1,0,.12l-.06,0h-.06l-.07-.06A.14.14,0,0,1,27.39,27.1Zm-.34-1.39h.05a.09.09,0,0,0-.06,0h0l.07-.05a.09.09,0,0,1,.08.09v0a.19.19,0,0,1,0,.08l-.08.07,0,0-.08,0a.11.11,0,0,1-.08-.06s0-.05,0-.08l0,0C27,25.72,27,25.71,27.05,25.71Zm-.07.81a.07.07,0,0,0,0-.06l.07-.09s0,0,0,0a.15.15,0,0,1,.08,0h.06a.14.14,0,0,1,.07.12,0,0,0,0,0,0,0v.06c0,.05,0,.06-.06.06a.12.12,0,0,1,.07.15l-.06,0h0a.26.26,0,0,1-.19-.08h0l-.06-.09A.26.26,0,0,1,27,26.52Zm-.14.13a.15.15,0,0,1,0,.17.12.12,0,0,1-.22,0c0-.06,0-.13.1-.19Zm-.9-.95c0-.07.15-.06.23,0a.14.14,0,0,1,.18-.07l0,.09h.06l.07-.05h0a.16.16,0,0,1,.12,0l.06.07a.24.24,0,0,1-.13.19h0a.14.14,0,0,0,0,.09.09.09,0,0,0,.09,0l.1.08s0,.05,0,.07,0,.1,0,.15h0l0,0-.13.05h0a.09.09,0,0,1-.08,0h0a.09.09,0,0,1-.06,0h-.06l0-.08a.11.11,0,0,1-.16,0l0-.08a.28.28,0,0,0,0-.06v0h-.15L26,26.08,26,26a.19.19,0,0,1,0-.07h0l0,0a.14.14,0,0,1,0-.16ZM24.18,25h0l0,0-.05.08a.2.2,0,0,0,0,.08L24,25.3h-.06l-.08,0h-.05s-.06,0-.08-.08,0-.05,0-.05h0l-.1-.07c0-.14,0-.35.2-.4l.07,0h0c.06,0,.07,0,.07,0l.07,0a.1.1,0,0,1,.09.07.15.15,0,0,1,0,.07.09.09,0,0,1,0,0l0,0V25S24.18,25,24.18,25ZM24.1,23.9a.14.14,0,0,1-.1,0l0-.09a.06.06,0,0,0,0-.05l.08-.07a.13.13,0,0,1,.13.15A.1.1,0,0,1,24.1,23.9Zm1.43,1.31s0,0,0,0,0,0,0,0v.14a0,0,0,0,1,0,0l0,0h0a.66.66,0,0,1-.16.11l-.07,0-.06,0,0,0a.08.08,0,0,1-.07-.09v0a.44.44,0,0,1,0-.19.66.66,0,0,0,0-.14l.08-.09a.26.26,0,0,1,.18.14,0,0,0,0,0,0,0l.07-.05h0a.11.11,0,0,1,.08,0A.23.23,0,0,1,25.53,25.21Zm-.48-1.47h.09l.07.09v0a.19.19,0,0,1,0,.09h0s0-.05,0-.08l.07-.06h.12l.06,0h0a.14.14,0,0,1,.11.05.16.16,0,0,1,0,.12l-.05,0h0a.18.18,0,0,1,.17.07l.05,0,.07.06.09-.08h0v0a.17.17,0,0,1,.07-.14h0a.1.1,0,0,1,.16,0s.06,0,.09,0l.1.07c0,.07,0,.1,0,.14s0,.08,0,.16l-.11.05h0a.09.09,0,0,1-.12,0,.15.15,0,0,1-.09.06.21.21,0,0,1-.1.18s0,0,0,.05l-.07.06h0l-.07,0v0l-.09.07h0l-.07,0h0l-.07,0h0l0,.08h0l-.05,0a.11.11,0,0,1-.1-.08l0,0-.1-.09s0,0,0-.06h0l-.08-.1a.09.09,0,0,0,0-.11l0-.08h0l-.05-.11,0,0-.09-.05v0h0l-.05-.08a.13.13,0,0,1,.07-.11h0L25,24l0,0,0,0h0a.37.37,0,0,1-.1-.16Z"/><path class="cls-1" d="M39.61,24.16l0,0h0a.08.08,0,0,1,0,0l.05,0-.1,0h0l-.05.09A.06.06,0,0,1,39.61,24.16Z"/><polygon class="cls-1" points="40.29 26.36 40.22 26.36 40.29 26.36 40.29 26.36"/><polygon class="cls-1" points="25.35 38.09 25.28 38.1 25.35 38.1 25.35 38.09"/><path class="cls-1" d="M39.41,24.39v.06l0,0h0s0,0,0-.05,0,0,0-.06h0Z"/><path class="cls-1" d="M41,24.08h0v0Z"/><path class="cls-1" d="M19.77,42.69h0s0,0,0,0Z"/><path class="cls-1" d="M41.05,26.94h0l0,0Z"/><path class="cls-1" d="M19.48,43.41v0h0v0l-.07.07H19.3l-.07-.07v-.09h0a.09.09,0,0,1,0,0h0l-.07-.07a.2.2,0,0,1,0-.09v0l0,0a.19.19,0,0,1,0-.17l.08-.06a.45.45,0,0,1,.17.08.92.92,0,0,1,0-.09h0l0,0,0,0h-.15s0,0,0,0h0a.15.15,0,0,1,0,.07.41.41,0,0,1-.05.18.13.13,0,0,1,.06.16s0,.07-.07.07l0,0a.08.08,0,0,1,0,0l.06.06a.24.24,0,0,1,0,.08v0l.08.06h0l.27-.06,0-.07A.33.33,0,0,1,19.48,43.41Z"/><polygon class="cls-1" points="25.37 38.05 25.36 38.05 25.36 38.05 25.37 38.05"/><polygon class="cls-1" points="41.05 26.49 41.05 26.49 41.05 26.48 41.05 26.49"/><path class="cls-1" d="M19,43.68h0Z"/></svg>