<svg id="Layer_1" data-name="Layer 1" xmlns="http://www.w3.org/2000/svg" viewBox="0 0 308 307.02"><defs><style>.cls-1{fill:none;stroke:#b37764;stroke-linecap:round;stroke-linejoin:round;stroke-width:1.75px;}</style></defs><title>flower-intro</title><path class="cls-1" d="M168.92,135.57c-13.22,39.22-31.6,75.3-62.74,103.7-1,.93-1.37,2.6-2,3.93"/><path class="cls-1" d="M207.79,202.34c13-11.86,28.18-19.11,45.84-18.64,8.21.22,16.33,3.6,26.36,6A96,96,0,0,1,233.67,207a66.53,66.53,0,0,1-25.79-2.94c-12.85-3.94-23.1-.18-33,7.26"/><path class="cls-1" d="M12.45,162.48c9.41,22.23,24.46,39.44,45.89,50.74,3.67,1.93,8.43,2,11.83,4.2,13.66,9,13.51,9.21,9.89,24.75-1.8,7.73-5.29,15.06-8,22.57l2.06,1.56c1.71-1.39,3.37-2.83,5.13-4.15,22.66-17,47.12-30.86,72.64-43.1,6.4-3.07,11.41-9.07,17-13.72"/><path class="cls-1" d="M160,7c4.65,10,8.51,20.42,14.16,29.77,6.71,11.1,3,22.73,3.53,34,.84,17,1.17,34.27-4.62,50.85-.48,1.38.55,3.29.89,4.95"/><path class="cls-1" d="M16.44,165.47c21.54,10,41,22.41,51.77,44.87.71,1.48.72,3.3,1.05,5"/><path class="cls-1" d="M211.78,145.53c-9.3,9.3-19.59,17.84-27.61,28.14-6.94,8.91-11.32,19.81-16.83,29.83l2.66,1.75,28.82-35.8"/><path class="cls-1" d="M211.78,149.52c-2.05,25.82-15.31,43.54-38.87,53.82"/><path class="cls-1" d="M127.06,149.52c-3.32,6.64-7.67,13-9.76,20-5.27,17.73-15.88,30.1-33.1,36.72-.76-6,8.21-18.07,28.91-38.77"/><path class="cls-1" d="M173.91,212.31c20.8,23.63,29.66,28.59,59.81,33-9.82-20.14-24.71-31.64-46.86-33"/><path class="cls-1" d="M41.35,105.67c8,11,15.71,22.1,24,32.83,7.42,9.62,6.37,21.18,7.63,32,1.46,12.5,3.6,24.55,8.82,37.92-.39,3.89-1,9.88-1.57,15.87"/><path class="cls-1" d="M122.08,153.51c-18.31,1.11-41,22.35-37.87,44.84"/><path class="cls-1" d="M197.83,76.76c-5.65,12.63-11.07,25.37-17.05,37.83-2.7,5.61-6.54,10.68-9.86,16"/><path class="cls-1" d="M258.62,191.38a86.38,86.38,0,0,0-38.92,7.85c-1.25.57-3.27-.54-4.93-.88"/><path class="cls-1" d="M111.12,110.65h-7.25l4.39,4.83c3.19-3.17,5.8-5.28,7.78-7.86,4.78-6.21,10.58-5.26,15.93-1.83,7,4.47,13.17,10.14,20.07,14.74,6.2,4.13,12.89,7.53,18.89,12.52-21.14-.17-40.27-7.23-58.82-16.42"/><path class="cls-1" d="M244.67,146.53c5-1,5-1,4,4.12l-18.91-8.1-2.28.74q2.13,5.61,4.27,11.21"/><path class="cls-1" d="M72.25,267.12,37.37,291"/><path class="cls-1" d="M53.31,133.57l13,33.89"/><path class="cls-1" d="M49.33,135.57c2.33,15.24,9,27.91,21.92,36.87"/><path class="cls-1" d="M33.38,183.4c5.65,5.32,11.28,10.65,16.95,15.95q6.95,6.5,14,13"/><path class="cls-1" d="M162.94,82.74c-6.5,6.56-5.53,14-3.06,22,2.34,7.54,4.06,15.26,6.05,22.9"/><path class="cls-1" d="M176.9,210.31c9.63,5.11,21.39,6.7,27.9,16.95"/><path class="cls-1" d="M171.91,131.58c12.12,5.34,23.85,7.11,36-.79,5.5-3.57,12.49-4.86,18.8-7.18"/><path class="cls-1" d="M203.81,119.62q-12.47,6-24.93,11.94a26.8,26.8,0,0,1-3,1"/><path class="cls-1" d="M231.71,140.55,243,135.74c-1.68-7.69-7.91-4.68-11.16-3.84-8.27,2.13-16.37,4.37-25,3.63a6.55,6.55,0,0,1-2-1"/><path class="cls-1" d="M241.68,59.82c-.35-1.37-.69-2.74-1-4.11l-2,1.12q1.49,10,3,19.93"/><path class="cls-1" d="M127.06,102.68c-9.35-11.41-20-22-23.36-37.87H99.16"/><path class="cls-1" d="M221.74,100.68l-18.81,14.89c1.95,4.81,3.4,8.42,4.86,12"/><path class="cls-1" d="M87.2,85.73l6.93-3.36c-5.3-3.44-7.71-3.19-7.77.38s1.4,7.28,1.77,11c.32,3.29.06,6.64.06,10"/><path class="cls-1" d="M149,74.77q4,10,8,19.93"/><path class="cls-1" d="M255.63,74.77c-9.56.93-17.66,4.22-23,12.9-2.07,3.35-5.22,6-7.88,9"/><path class="cls-1" d="M132.05,90.72l4.75-4.44c-2-1.47-3.68-2.75-6.42-4.8-.58,3.15-.95,5.2-1.32,7.24"/><path class="cls-1" d="M193.84,18c-1.32,1.66-2.63,3.32-4,5,3.73-.49,10.51.3,5-6"/><path class="cls-1" d="M208.79,25.94q-.49,8.46-1,16.94"/><path class="cls-1" d="M202.81,51.85c5.73,7.1-.05,12.28-3,17.94"/><path class="cls-1" d="M69.26,90.72l-9.19-11c.68-2.92,1.36-5.84,2.43-10.48l-5.2,1.56,3,5"/><path class="cls-1" d="M263.6,135.57l5.67-4L267.08,129c-1.49,1.86-3,3.74-4.5,5.57a1,1,0,0,1-.95,0,5.48,5.48,0,0,1-1-1"/><path class="cls-1" d="M46.34,115.63l1,16"/><path class="cls-1" d="M192.84,45.87c-.51,10.21,3,19.26,8,30.14l13.07-14.42,13,3.74L210.43,82.1l4.34,1.64"/><path class="cls-1" d="M124.07,39.89c4.29,6.42,11.92,10.94,9.46,21-.61,2.52,4.23,8.4,7.61,9.47A34.81,34.81,0,0,1,160,84.74"/><path class="cls-1" d="M148,45.87c.77.91,1.53,1.83,2.67,3.21l3.77-2.55-.87-2.74L148,44.87"/><path class="cls-1" d="M179.89,20l4.8,16.56,13.14-1.61"/><path class="cls-1" d="M126.07,25.94c-.62,4.32-1.24,8.64-2,14.33L108.13,37.9"/><path class="cls-1" d="M175.9,62.81l-13-6.58L145,58.45c.28.92.64,2.14,1,3.37l5-2"/><path class="cls-1" d="M240.68,89.72l-10,12"/><path class="cls-1" d="M222.74,115.63q-5,6-10,12"/><path class="cls-1" d="M162,18l-7.43-1.29c-.2,1.92-.37,3.6-.55,5.28"/><path class="cls-1" d="M229.72,69.79q3.84,11.17-7,15.94"/><path class="cls-1" d="M220.75,41.88l3,1c.33-1.59.66-3.18,1.48-7.17L204.8,51.85"/><path class="cls-1" d="M265.6,120.62c1.24-4.08,1.24-4.08,7.44-2.66l-21.4,9.63"/><path class="cls-1" d="M107.13,90.72l-1.48,5.57,3.26.17-.78-5.74"/><path class="cls-1" d="M68.26,108.66l20.85-3.52,12,6.51"/><path class="cls-1" d="M117.1,69.79q-2.49,6.48-5,12.95"/><path class="cls-1" d="M76.24,78.76l-4,11"/><path class="cls-1" d="M146,94.7l-9.87,6-2.09-7"/><path class="cls-1" d="M221.74,73.77q.51,6,1,12"/><path class="cls-1" d="M223.74,87.73c-.38,4-.75,8-1.21,12.9,8,2.35,16.56,3.2,24.51-4.41,2.51,6,2.58,8.76-4.37,4.46"/><path class="cls-1" d="M138,58.83l5,11"/><path class="cls-1" d="M128.06,88.72l-3.56,3.39c2.81.56,7.5,4.62,5.55-2.39"/><path class="cls-1" d="M237.69,165.47l3.24-5.24-1.5-1.63-5.67,1.72-2,2.16,5,2"/><path class="cls-1" d="M128.06,128.59l-18.94,7"/><path class="cls-1" d="M97.16,90.72h6.34l-4-5.85L91.18,96.7"/><path class="cls-1" d="M77.23,100.68l4.07,8.18c-1.54,4.07-2.8,7.42-4.07,10.76"/><path class="cls-1" d="M201.81,53.84l-5.37,10.85-8.58-6.86"/><path class="cls-1" d="M102.15,101.68l10,2"/><path class="cls-1" d="M116.1,27.93l6,9"/><path class="cls-1" d="M164.94,211.31h10"/><path class="cls-1" d="M118.09,133.57q.51,6,1,12"/><path class="cls-1" d="M126.07,22V17l1.88-.89,5,5-5.84,2.91"/><path class="cls-1" d="M253.64,118.62q-5.49,6-11,12"/><path class="cls-1" d="M215.76,56.83l4.48,1.51c-.18,3.79-.33,7.12-.49,10.45"/><path class="cls-1" d="M130.05,71.78c.86,5-.48,5.68-4.52,1.45L134,66.8"/><path class="cls-1" d="M155,69.79c10.49,1.06,2.3,7.22,3,11"/><path class="cls-1" d="M189.85,25.94l-5,7"/><path class="cls-1" d="M155,48.86l6,6"/><path class="cls-1" d="M226.73,142.54l-7-4"/><path class="cls-1" d="M183.87,37.9l-5,7"/><path class="cls-1" d="M75.24,97.69l9,5"/><path class="cls-1" d="M69.26,92.71h-10"/><path class="cls-1" d="M215.76,72.78l-6-2"/><path class="cls-1" d="M248.65,127.59l10,5"/><path class="cls-1" d="M231.71,103.67l4,5"/><path class="cls-1" d="M110.12,97.69l5,7"/><path class="cls-1" d="M105.14,132.58,104,138.42l3.35-.18-1.19-4.67"/><path class="cls-1" d="M111.12,19c-.45,2.24-.89,4.47-1.54,7.71,7.69-2.23,5.71-4.88,2.53-7.71"/></svg>