<svg id="Layer_1" data-name="Layer 1" xmlns="http://www.w3.org/2000/svg" viewBox="0 0 273.03 177.04"><defs><style>.cls-1{fill:none;stroke:#efefef;stroke-miterlimit:10;stroke-width:5.08px;}.cls-2{fill:#efefef;}</style></defs><title>primary-logo</title><line class="cls-1" x1="220.69" y1="93.5" x2="251.69" y2="93.5"/><path class="cls-2" d="M23.21,130.14C20.16,130,18,128.5,18.15,125a7.43,7.43,0,0,1,.63-2.67l2.55.77a4.14,4.14,0,0,0-.42,1.58c-.05,1.22.69,1.91,2.4,2l16.3.73-.15,3.46Zm1.59,2.05L24.74,130l.28-6.15,2.75.12-.38,8.31Z"/><path class="cls-2" d="M37.08,116,20,112.85l.63-3.4,17.29,3.21c.84.15,1.2-.17,1.27-.52a2,2,0,0,0,0-.54l2.61,0a4.66,4.66,0,0,1,0,1.85C41.33,115.9,39.61,116.49,37.08,116Z"/><path class="cls-2" d="M36.46,102.11c-4.6-1.72-6.09-5.83-4.8-9.27s5.1-5.58,9.7-3.87,6.06,5.83,4.78,9.27S41,103.81,36.46,102.11Zm3.65-9.81c-2.76-1-5.06-.5-5.81,1.52s.63,3.93,3.4,5,5,.49,5.79-1.53S42.88,93.33,40.11,92.3Z"/><path class="cls-2" d="M39.65,76.41,41.12,74l2.38,1.14,0-.09c-1.1-1.89-1.2-3.78-.39-5.13a3.89,3.89,0,0,1,1.12-1.27l2.26,2.07a5,5,0,0,0-1,1.17c-.61,1-.65,2.63.81,4.55l7.69,4.66-1.79,3Z"/><path class="cls-2" d="M57.3,69c-2.37-2.08-1.89-5.13,1.6-10.11-1.22-1-2.63-1.4-3.94.1a8.13,8.13,0,0,0-1.64,4.07l-2.57-.56a11.49,11.49,0,0,1,2.53-5.82c2.42-2.77,5.32-2.65,8.41.06l6.57,5.74L66.4,64.65,65,63.77l-.06.08a7.1,7.1,0,0,1-1.51,4.75A4.13,4.13,0,0,1,57.3,69ZM63,62.52l-2.49-2.18c-2.25,3.34-2.34,5-1.22,6s2,.56,2.81-.37A4.63,4.63,0,0,0,63,62.52Z"/><path class="cls-2" d="M72.79,53.33l-11-13.47,2.68-2.19L75.58,51.28c.54.66,1,.65,1.31.42a1.9,1.9,0,0,0,.38-.38l2,1.72A5,5,0,0,1,78,54.43C76.12,56,74.42,55.32,72.79,53.33Z"/><path class="cls-2" d="M93.79,41.66,94.38,39a6.42,6.42,0,0,0,4.38-.14c1.47-.65,1.86-1.65,1.45-2.57-.5-1.13-2.18-1-3.87-.9-2.06.12-4.52,0-5.52-2.25s.1-4.87,3.12-6.2a7.91,7.91,0,0,1,5.19-.37l-.59,2.58a5.59,5.59,0,0,0-3.47.13c-1.35.6-1.71,1.54-1.33,2.38.47,1.07,2,.87,3.71.76,2.12-.13,4.55-.15,5.66,2.36,1,2.32,0,5-3.38,6.5A9.16,9.16,0,0,1,93.79,41.66Z"/><path class="cls-2" d="M111.39,31.35l-1.76-6.8-2,.53L107,22.57l2.17-.72-.62-4,2.78-.72,1,3.9,3.63-1,.69,2.66-3.63,1,1.75,6.78c.44,1.68,1.3,2.34,2.67,2a4.56,4.56,0,0,0,1.41-.71l1.2,2.32a9.48,9.48,0,0,1-2.78,1.28C114,36.19,112.19,34.42,111.39,31.35Z"/><path class="cls-2" d="M127.15,27.42l-.61-9.22L130,18l.58,8.78c.16,2.42.92,3.28,2.51,3.18,1.29-.09,2.1-.74,3.12-2.26l-.67-10.07,3.45-.23,1,14.71-2.83.19-.4-2.15h-.1A6,6,0,0,1,132.07,33C128.92,33.18,127.4,31.14,127.15,27.42Z"/><path class="cls-2" d="M149.47,25c.7-4.75,4.11-7.22,7.3-6.76a5.48,5.48,0,0,1,3.59,2.17l.21-2.37.78-5.29,3.41.51-3.07,21-2.8-.41,0-1.62h-.09a6.19,6.19,0,0,1-4.43,1.33C150.71,33,148.77,29.82,149.47,25Zm9.4,4.61,1-6.79a4.37,4.37,0,0,0-2.79-1.64c-1.85-.28-3.64,1.26-4.09,4.3s.5,5,2.61,5.32A3.85,3.85,0,0,0,158.87,29.63Z"/><path class="cls-2" d="M175.52,22.84l3.28,1.08-4.63,14-3.28-1.09Zm1-4.43A2.15,2.15,0,1,1,178,20.94,2,2,0,0,1,176.57,18.41Z"/><path class="cls-2" d="M185.7,34.4c2.32-4.33,6.59-5.25,9.83-3.52s4.84,5.81,2.53,10.13-6.59,5.23-9.82,3.49S183.4,38.7,185.7,34.4Zm9.22,4.93c1.4-2.6,1.18-4.94-.72-6s-4,.1-5.37,2.7-1.17,4.93.74,6S193.53,41.94,194.92,39.33Z"/><path class="cls-2" d="M87.55,125.92v-21h8.84v21.89c0,7.66,2.41,10.3,6.79,10.3s6.93-2.64,6.93-10.3V104.93h8.52v21c0,13.13-5.34,18.84-15.45,18.84S87.55,139.05,87.55,125.92Z"/><path class="cls-2" d="M131.79,124.71c0-13,8.58-20.5,18.46-20.5A16.47,16.47,0,0,1,162,109.29L157.35,115a9.8,9.8,0,0,0-6.9-3.11c-5.36,0-9.6,4.72-9.6,12.57,0,8,3.74,12.7,9.46,12.7a10.31,10.31,0,0,0,7.65-3.65l4.66,5.55A16.1,16.1,0,0,1,150,144.76C140.08,144.76,131.79,137.88,131.79,124.71Z"/><path class="cls-2" d="M174.55,104.93h8.84V120h13.5V104.93h8.84V144h-8.84V127.71h-13.5V144h-8.84Z"/><path class="cls-2" d="M220.74,125.92v-21h8.84v21.89c0,7.66,2.42,10.3,6.79,10.3s6.93-2.64,6.93-10.3V104.93h8.52v21c0,13.13-5.33,18.84-15.45,18.84S220.74,139.05,220.74,125.92Z"/></svg>