<svg id="Layer_1" data-name="Layer 1" xmlns="http://www.w3.org/2000/svg" viewBox="0 0 326.98 176.99"><defs><style>.cls-1{fill:#efefef;}.cls-2{font-size:55.64px;fill:#f8e9d7;font-family:Baskerville, Baskerville;}.cls-3{letter-spacing:0.02em;}</style></defs><title>secondary-logo</title><rect class="cls-1" x="204.57" y="19.83" width="24.72" height="2.3"/><path class="cls-1" d="M101.49,56.91c-3.88,4.7-6.74,6.77-10.69,6.77-5.33,0-7.55-3.35-7.55-10.37V32.44h-3V53.71c0,8.56,3.18,12.71,10,12.71,4.57,0,8-2.56,11.26-6.38h.15L102,65.6h2.58V32.44h-3.05Z"/><path class="cls-1" d="M136.56,63.73c-7.21,0-12-5.92-12-14.65s5.23-14.77,12-14.77c3.23,0,5.71,1.53,7.85,3.52l1.79-2.13a13.64,13.64,0,0,0-9.71-4.08c-8.06,0-15.14,6.37-15.14,17.46s6.47,17.34,15,17.34A15.73,15.73,0,0,0,147,62.05l-1.57-2.14A13.21,13.21,0,0,1,136.56,63.73Z"/><path class="cls-1" d="M176.52,31.62c-4.57,0-8,2.59-11.47,6l0-7.3V15.93h-3V65.6h3v-25c4-4.14,6.89-6.23,10.84-6.23,5.33,0,7.55,3.34,7.55,10.37V65.6h3.06V44.33C186.55,35.77,183.37,31.62,176.52,31.62Z"/><path class="cls-1" d="M226.17,56.91c-3.88,4.7-6.74,6.77-10.68,6.77-5.33,0-7.56-3.35-7.56-10.37V32.44h-3.05V53.71c0,8.56,3.18,12.71,10,12.71,4.57,0,8-2.56,11.25-6.38h.15l.33,5.56h2.58V32.44h-3.05Z"/><text class="cls-2" transform="translate(29.34 151.54)"><tspan class="cls-3">f</tspan><tspan x="16.14" y="0">loral studio</tspan></text></svg>