<svg id="Layer_1" data-name="Layer 1" xmlns="http://www.w3.org/2000/svg" viewBox="0 0 289.37 238.63"><defs><style>.cls-1{fill:none;stroke:#efefef;stroke-linecap:round;stroke-miterlimit:10;stroke-width:8px;}</style></defs><title>squigle</title><path class="cls-1" d="M16.12,221.32a81.71,81.71,0,0,0,18.73-5.11c7.09-2.89,16.19-6.59,23.84-15.33,8.49-9.7,10.57-20.35,11.92-27.25,2.32-11.84,1-21.53,0-28.95-1.74-12.4-3.9-12.32-5.11-23.84-.74-7-1.62-16.29,1.7-27.24C68.84,88.21,71,81.16,77.42,74.86c8.4-8.21,18.6-9.73,22.14-10.21,7.51-1,13.79.3,20.43,1.7,4.82,1,5.67,2,11.93,3.4,5.93,1.33,10,2.2,15.32,1.71a26.58,26.58,0,0,0,11.92-3.41c4.49-2.69,6.71-6.2,10.22-11.92,4.45-7.25,3.77-8.83,8.51-17,2.93-5.05,4.83-8.34,8.52-11.92A33.42,33.42,0,0,1,200,18.67c8.2-2.56,15.21-.85,18.74,0a53.13,53.13,0,0,1,15.32,6.81c2.09,1.26,2.82,2.19,5.11,3.4a24.53,24.53,0,0,0,11.92,3.41c6.21,0,10.66-3.09,13.62-5.11a32.58,32.58,0,0,0,8.52-8.51"/></svg>